{"glyphs":{"0":{"ha":718,"x_min":92,"x_max":628,"o":"m 358 -14 q 200 29 258 -14 q 117 147 142 72 q 92 318 92 222 l 92 807 q 117 978 92 904 q 202 1094 143 1053 q 358 1136 261 1136 q 517 1094 458 1136 q 602 978 576 1053 q 628 807 628 904 l 628 318 q 602 146 628 221 q 518 28 576 71 q 358 -14 460 -14 m 358 67 q 459 100 424 67 q 509 188 494 133 q 524 310 524 243 l 524 814 q 509 937 524 882 q 460 1024 494 992 q 358 1056 425 1056 q 259 1024 294 1056 q 209 937 224 992 q 194 814 194 882 l 194 310 q 209 188 194 243 q 260 100 224 133 q 358 67 296 67 z "},"1":{"ha":510,"x_min":60,"x_max":336,"o":"m 233 0 l 233 989 q 200 964 225 976 q 145 942 175 951 q 91 924 115 932 q 60 915 67 917 l 60 997 q 106 1014 79 1003 q 158 1041 132 1025 q 210 1078 185 1057 q 254 1125 236 1099 l 336 1125 l 336 0 l 233 0 z "},"2":{"ha":674,"x_min":68,"x_max":601,"o":"m 68 0 l 68 75 l 371 539 q 433 638 404 590 q 481 739 463 686 q 500 858 500 792 q 463 1000 500 949 q 350 1051 426 1051 q 244 1021 282 1051 q 192 937 207 990 q 178 817 178 883 l 178 792 l 76 792 l 76 819 q 104 994 76 924 q 191 1100 132 1064 q 346 1136 250 1136 q 538 1060 474 1136 q 601 850 601 985 q 582 725 601 782 q 532 616 563 668 q 468 511 501 564 l 188 86 l 578 86 l 578 0 l 68 0 z "},"3":{"ha":669,"x_min":81,"x_max":599,"o":"m 331 -14 q 188 20 243 -14 q 106 115 132 54 q 81 260 81 176 l 81 288 l 179 288 q 179 276 179 285 q 179 264 179 268 q 194 160 181 204 q 242 93 208 117 q 331 69 275 69 q 420 92 383 69 q 476 168 457 115 q 494 306 494 221 q 457 476 494 410 q 326 544 419 542 q 313 544 324 544 q 299 544 301 544 l 299 642 q 313 642 301 642 q 326 642 324 642 q 456 692 417 642 q 494 856 494 743 q 462 999 494 943 q 342 1054 429 1054 q 219 1006 257 1054 q 179 858 181 958 q 179 849 179 856 q 179 839 179 843 l 81 839 l 81 865 q 106 1009 81 949 q 190 1103 132 1069 q 340 1136 249 1136 q 486 1100 429 1136 q 571 1001 543 1064 q 599 856 599 938 q 553 673 599 738 q 438 592 508 608 q 516 547 479 581 q 576 455 553 514 q 599 307 599 396 q 572 140 599 213 q 486 26 544 67 q 331 -14 428 -14 z "},"4":{"ha":679,"x_min":69,"x_max":638,"o":"m 408 0 l 408 329 l 69 329 l 69 432 l 389 1125 l 508 1125 l 508 421 l 638 421 l 638 329 l 508 329 l 508 0 l 408 0 m 172 421 l 408 421 l 408 990 l 172 421 z "},"5":{"ha":663,"x_min":85,"x_max":596,"o":"m 335 -12 q 190 22 244 -12 q 110 125 135 57 q 85 290 85 193 l 186 290 q 200 172 186 222 q 247 96 214 122 q 339 69 281 69 q 436 102 403 69 q 482 199 469 135 q 494 356 494 263 q 480 519 494 458 q 431 608 465 581 q 340 635 397 635 q 260 611 297 635 q 194 542 222 588 l 110 542 l 110 1125 l 547 1125 l 546 1029 l 200 1029 l 194 639 q 262 692 219 671 q 367 714 304 714 q 501 673 450 714 q 574 554 551 632 q 596 368 596 476 q 582 207 596 278 q 537 87 568 136 q 456 13 506 38 q 335 -12 407 -12 z "},"6":{"ha":693,"x_min":92,"x_max":617,"o":"m 351 -14 q 201 28 258 -14 q 118 151 144 71 q 92 339 92 231 l 92 788 q 117 970 92 892 q 199 1092 142 1049 q 350 1136 256 1136 q 490 1107 435 1136 q 574 1020 546 1078 q 603 876 603 963 q 603 865 603 874 q 604 853 604 856 l 503 853 q 469 1007 503 961 q 354 1053 435 1053 q 271 1030 307 1053 q 214 954 235 1007 q 193 811 193 901 l 193 599 q 266 643 218 622 q 374 664 314 664 q 519 629 467 664 q 594 521 572 594 q 617 329 617 447 q 590 149 617 226 q 506 28 564 71 q 351 -14 449 -14 m 351 71 q 442 95 407 71 q 496 172 478 119 q 514 310 514 225 q 503 463 514 401 q 459 554 493 524 q 351 585 425 585 q 288 574 318 585 q 232 549 257 564 q 193 521 207 535 l 193 326 q 210 180 193 236 q 262 97 226 124 q 351 71 297 71 z "},"7":{"ha":558,"x_min":42,"x_max":486,"o":"m 163 0 l 382 1043 l 42 1043 l 42 1125 l 486 1125 l 486 1075 l 263 0 l 163 0 z "},"8":{"ha":693,"x_min":82,"x_max":611,"o":"m 347 -14 q 192 26 250 -14 q 108 136 135 65 q 82 301 82 207 q 97 424 82 375 q 135 506 111 474 q 188 557 158 538 q 244 590 217 576 q 135 683 176 618 q 93 854 93 747 q 118 1000 93 936 q 199 1100 143 1064 q 347 1136 256 1136 q 494 1099 439 1136 q 574 999 550 1063 q 599 851 599 935 q 558 682 599 744 q 449 590 517 619 q 506 557 476 576 q 558 506 535 538 q 596 424 581 474 q 611 301 611 375 q 585 136 611 207 q 501 26 560 65 q 347 -14 443 -14 m 347 68 q 439 93 403 68 q 493 170 475 118 q 511 301 511 222 q 495 423 511 371 q 444 507 479 475 q 347 543 408 539 q 249 507 286 539 q 197 423 213 475 q 181 301 181 371 q 199 170 181 222 q 255 93 218 118 q 347 68 292 68 m 347 636 q 438 668 406 639 q 485 747 471 697 q 499 856 499 796 q 463 1003 499 953 q 347 1054 426 1054 q 230 1003 267 1054 q 193 856 193 953 q 207 747 193 796 q 255 668 221 697 q 347 636 289 639 z "},"9":{"ha":696,"x_min":79,"x_max":606,"o":"m 350 -14 q 208 15 265 -14 q 123 103 151 44 q 93 250 94 163 q 93 260 93 251 q 93 269 93 268 l 193 269 q 228 117 193 163 q 351 71 263 71 q 433 93 399 71 q 485 169 467 115 q 503 313 503 222 l 503 525 q 437 479 482 500 q 322 458 392 458 q 176 494 229 458 q 101 603 124 529 q 79 794 79 678 q 106 975 79 899 q 192 1094 133 1051 q 347 1136 251 1136 q 496 1094 439 1136 q 579 973 553 1051 q 606 785 606 894 l 606 336 q 581 154 606 233 q 501 31 557 75 q 350 -14 446 -14 m 346 538 q 444 559 406 538 q 503 603 483 581 l 503 796 q 487 944 503 888 q 436 1026 471 1000 q 347 1051 401 1051 q 256 1026 293 1051 q 201 947 219 1000 q 183 814 183 894 q 194 660 183 722 q 239 568 204 599 q 346 538 274 538 z "},"A":{"ha":663,"x_min":38,"x_max":625,"o":"m 38 0 l 275 1125 l 386 1125 l 625 0 l 521 0 l 465 301 l 197 301 l 140 0 l 38 0 m 213 378 l 451 378 l 332 985 l 213 378 z "},"Á":{"ha":663,"x_min":38,"x_max":625,"o":"m 38 0 l 275 1125 l 386 1125 l 625 0 l 521 0 l 465 301 l 197 301 l 140 0 l 38 0 m 213 378 l 451 378 l 332 985 l 213 378 m 306 1192 l 393 1464 l 494 1464 l 358 1192 l 306 1192 z "},"Ă":{"ha":663,"x_min":38,"x_max":625,"o":"m 38 0 l 275 1125 l 386 1125 l 625 0 l 521 0 l 465 301 l 197 301 l 140 0 l 38 0 m 213 378 l 451 378 l 332 985 l 213 378 m 331 1211 q 208 1255 250 1211 q 164 1378 167 1299 l 229 1378 q 258 1297 231 1322 q 331 1272 285 1272 q 405 1297 378 1272 q 435 1378 432 1322 l 499 1378 q 455 1255 497 1299 q 331 1211 413 1211 z "},"Ắ":{"ha":663,"x_min":38,"x_max":625,"o":"m 38 0 l 275 1125 l 386 1125 l 625 0 l 521 0 l 465 301 l 197 301 l 140 0 l 38 0 m 213 378 l 451 378 l 332 985 l 213 378 m 275 1424 l 364 1588 l 467 1588 l 332 1424 l 275 1424 m 331 1201 q 208 1245 250 1201 q 164 1368 167 1289 l 229 1368 q 258 1288 231 1313 q 331 1263 285 1263 q 405 1288 378 1263 q 435 1368 432 1313 l 499 1368 q 455 1245 497 1289 q 331 1201 413 1201 z "},"Ặ":{"ha":663,"x_min":38,"x_max":625,"o":"m 38 0 l 275 1125 l 386 1125 l 625 0 l 521 0 l 465 301 l 197 301 l 140 0 l 38 0 m 213 378 l 451 378 l 332 985 l 213 378 m 278 -208 l 278 -85 l 386 -85 l 386 -208 l 278 -208 m 331 1211 q 208 1255 250 1211 q 164 1378 167 1299 l 229 1378 q 258 1297 231 1322 q 331 1272 285 1272 q 405 1297 378 1272 q 435 1378 432 1322 l 499 1378 q 455 1255 497 1299 q 331 1211 413 1211 z "},"Ằ":{"ha":663,"x_min":38,"x_max":625,"o":"m 38 0 l 275 1125 l 386 1125 l 625 0 l 521 0 l 465 301 l 197 301 l 140 0 l 38 0 m 213 378 l 451 378 l 332 985 l 213 378 m 333 1424 l 199 1588 l 301 1588 l 392 1424 l 333 1424 m 331 1201 q 208 1245 250 1201 q 164 1368 167 1289 l 229 1368 q 258 1288 231 1313 q 331 1263 285 1263 q 405 1288 378 1263 q 435 1368 432 1313 l 499 1368 q 455 1245 497 1289 q 331 1201 413 1201 z "},"Ẳ":{"ha":663,"x_min":38,"x_max":625,"o":"m 38 0 l 275 1125 l 386 1125 l 625 0 l 521 0 l 465 301 l 197 301 l 140 0 l 38 0 m 213 378 l 451 378 l 332 985 l 213 378 m 338 1372 l 300 1413 q 349 1448 332 1431 q 365 1489 365 1465 q 348 1527 365 1515 q 303 1539 331 1539 q 272 1537 288 1539 q 239 1529 256 1535 l 239 1581 q 283 1591 261 1588 q 325 1594 304 1594 q 410 1570 378 1594 q 443 1497 443 1546 q 412 1422 443 1451 q 338 1372 381 1393 m 331 1211 q 208 1255 250 1211 q 164 1378 167 1299 l 229 1378 q 258 1297 231 1322 q 331 1272 285 1272 q 405 1297 378 1272 q 435 1378 432 1322 l 499 1378 q 455 1255 497 1299 q 331 1211 413 1211 z "},"Ẵ":{"ha":663,"x_min":38,"x_max":625,"o":"m 38 0 l 275 1125 l 386 1125 l 625 0 l 521 0 l 465 301 l 197 301 l 140 0 l 38 0 m 213 378 l 451 378 l 332 985 l 213 378 m 331 1211 q 208 1255 250 1211 q 164 1378 167 1299 l 229 1378 q 258 1297 231 1322 q 331 1272 285 1272 q 405 1297 378 1272 q 435 1378 432 1322 l 499 1378 q 455 1255 497 1299 q 331 1211 413 1211 m 417 1442 q 357 1458 383 1442 q 308 1492 331 1475 q 260 1508 285 1508 q 226 1494 238 1508 q 214 1453 214 1481 l 151 1453 q 159 1505 151 1476 q 188 1554 167 1533 q 247 1575 208 1575 q 307 1559 281 1575 q 357 1526 333 1543 q 406 1510 381 1510 q 440 1523 429 1510 q 451 1569 451 1536 l 513 1569 q 506 1515 513 1544 q 479 1463 500 1485 q 417 1442 458 1442 z "},"Ǎ":{"ha":663,"x_min":38,"x_max":625,"o":"m 38 0 l 275 1125 l 386 1125 l 625 0 l 521 0 l 465 301 l 197 301 l 140 0 l 38 0 m 213 378 l 451 378 l 332 985 l 213 378 m 286 1215 l 168 1447 l 250 1447 l 332 1281 l 414 1447 l 496 1447 l 376 1215 l 286 1215 z "},"Â":{"ha":663,"x_min":38,"x_max":625,"o":"m 38 0 l 275 1125 l 386 1125 l 625 0 l 521 0 l 465 301 l 197 301 l 140 0 l 38 0 m 213 378 l 451 378 l 332 985 l 213 378 m 156 1200 l 275 1447 l 389 1447 l 507 1200 l 432 1200 l 331 1396 l 231 1200 l 156 1200 z "},"Ấ":{"ha":663,"x_min":38,"x_max":654,"o":"m 38 0 l 275 1125 l 386 1125 l 625 0 l 521 0 l 465 301 l 197 301 l 140 0 l 38 0 m 213 378 l 451 378 l 332 985 l 213 378 m 156 1200 l 275 1403 l 389 1403 l 508 1200 l 433 1200 l 332 1353 l 231 1200 l 156 1200 m 488 1332 l 561 1492 l 654 1492 l 556 1332 l 488 1332 z "},"Ậ":{"ha":663,"x_min":38,"x_max":625,"o":"m 38 0 l 275 1125 l 386 1125 l 625 0 l 521 0 l 465 301 l 197 301 l 140 0 l 38 0 m 213 378 l 451 378 l 332 985 l 213 378 m 156 1200 l 275 1403 l 389 1403 l 508 1200 l 433 1200 l 332 1353 l 231 1200 l 156 1200 m 278 -208 l 278 -85 l 386 -85 l 386 -208 l 278 -208 z "},"Ầ":{"ha":663,"x_min":38,"x_max":625,"o":"m 38 0 l 275 1125 l 386 1125 l 625 0 l 521 0 l 465 301 l 197 301 l 140 0 l 38 0 m 213 378 l 451 378 l 332 985 l 213 378 m 156 1200 l 275 1403 l 389 1403 l 508 1200 l 433 1200 l 332 1353 l 231 1200 l 156 1200 m 524 1332 l 424 1492 l 517 1492 l 590 1332 l 524 1332 z "},"Ẩ":{"ha":663,"x_min":38,"x_max":625,"o":"m 38 0 l 275 1125 l 386 1125 l 625 0 l 521 0 l 465 301 l 197 301 l 140 0 l 38 0 m 213 378 l 451 378 l 332 985 l 213 378 m 513 1319 l 475 1360 q 524 1395 507 1378 q 540 1438 540 1413 q 523 1474 540 1463 q 478 1486 506 1486 q 447 1484 463 1486 q 414 1476 431 1482 l 414 1529 q 458 1539 436 1536 q 500 1542 479 1542 q 585 1517 553 1542 q 618 1444 618 1493 q 587 1368 618 1396 q 513 1319 556 1340 m 156 1200 l 275 1403 l 389 1403 l 508 1200 l 433 1200 l 332 1353 l 231 1200 l 156 1200 z "},"Ẫ":{"ha":663,"x_min":38,"x_max":625,"o":"m 38 0 l 275 1125 l 386 1125 l 625 0 l 521 0 l 465 301 l 197 301 l 140 0 l 38 0 m 213 378 l 451 378 l 332 985 l 213 378 m 156 1200 l 275 1403 l 389 1403 l 508 1200 l 433 1200 l 332 1353 l 231 1200 l 156 1200 m 417 1469 q 357 1486 383 1469 q 308 1519 331 1503 q 260 1536 285 1536 q 226 1522 238 1536 q 214 1481 214 1508 l 151 1481 q 159 1533 151 1504 q 188 1582 167 1561 q 247 1603 208 1603 q 307 1587 281 1603 q 357 1554 333 1571 q 406 1538 381 1538 q 440 1551 429 1538 q 451 1597 451 1564 l 513 1597 q 506 1542 513 1572 q 479 1491 500 1513 q 417 1469 458 1469 z "},"Ȁ":{"ha":663,"x_min":38,"x_max":625,"o":"m 38 0 l 275 1125 l 386 1125 l 625 0 l 521 0 l 465 301 l 197 301 l 140 0 l 38 0 m 213 378 l 451 378 l 332 985 l 213 378 m 228 1231 l 94 1447 l 203 1447 l 281 1231 l 228 1231 m 379 1231 l 283 1447 l 374 1447 l 431 1231 l 379 1231 z "},"Ä":{"ha":663,"x_min":38,"x_max":625,"o":"m 38 0 l 275 1125 l 386 1125 l 625 0 l 521 0 l 465 301 l 197 301 l 140 0 l 38 0 m 213 378 l 451 378 l 332 985 l 213 378 m 394 1324 l 394 1447 l 499 1447 l 499 1324 l 394 1324 m 165 1324 l 165 1447 l 269 1447 l 269 1324 l 165 1324 z "},"Ạ":{"ha":663,"x_min":38,"x_max":625,"o":"m 38 0 l 275 1125 l 386 1125 l 625 0 l 521 0 l 465 301 l 197 301 l 140 0 l 38 0 m 213 378 l 451 378 l 332 985 l 213 378 m 278 -208 l 278 -85 l 386 -85 l 386 -208 l 278 -208 z "},"À":{"ha":663,"x_min":38,"x_max":625,"o":"m 38 0 l 275 1125 l 386 1125 l 625 0 l 521 0 l 465 301 l 197 301 l 140 0 l 38 0 m 213 378 l 451 378 l 332 985 l 213 378 m 306 1192 l 178 1464 l 281 1464 l 357 1192 l 306 1192 z "},"Ả":{"ha":663,"x_min":38,"x_max":625,"o":"m 38 0 l 275 1125 l 386 1125 l 625 0 l 521 0 l 465 301 l 197 301 l 140 0 l 38 0 m 213 378 l 451 378 l 332 985 l 213 378 m 332 1226 l 294 1267 q 351 1303 331 1285 q 371 1344 371 1321 q 352 1383 371 1371 q 299 1394 333 1394 q 267 1392 283 1394 q 233 1386 251 1390 l 233 1439 q 322 1449 278 1449 q 389 1438 361 1449 q 432 1406 417 1428 q 447 1351 447 1385 q 432 1297 447 1319 q 390 1257 417 1274 q 332 1226 364 1240 z "},"Ȃ":{"ha":663,"x_min":38,"x_max":625,"o":"m 38 0 l 275 1125 l 386 1125 l 625 0 l 521 0 l 465 301 l 197 301 l 140 0 l 38 0 m 213 378 l 451 378 l 332 985 l 213 378 m 164 1274 q 185 1367 167 1328 q 240 1426 203 1406 q 332 1447 276 1447 q 426 1426 389 1447 q 481 1367 463 1406 q 500 1274 499 1328 l 435 1274 q 406 1360 433 1336 q 332 1385 379 1385 q 259 1360 286 1385 q 229 1274 232 1335 l 164 1274 z "},"Ā":{"ha":663,"x_min":38,"x_max":625,"o":"m 38 0 l 275 1125 l 386 1125 l 625 0 l 521 0 l 465 301 l 197 301 l 140 0 l 38 0 m 213 378 l 451 378 l 332 985 l 213 378 m 207 1286 l 207 1356 l 457 1356 l 457 1286 l 207 1286 z "},"Ą":{"ha":663,"x_min":38,"x_max":643,"o":"m 38 0 l 275 1125 l 386 1125 l 625 0 l 521 0 l 465 301 l 197 301 l 140 0 l 38 0 m 213 378 l 451 378 l 332 985 l 213 378 m 588 -294 q 525 -288 554 -294 q 474 -269 496 -282 q 440 -233 451 -256 q 428 -181 428 -211 q 446 -108 428 -143 q 492 -45 464 -74 q 554 0 521 -17 l 608 0 q 559 -53 582 -25 q 522 -110 536 -81 q 507 -168 507 -139 q 538 -225 507 -210 q 611 -240 569 -240 q 628 -240 619 -240 q 643 -237 636 -239 l 628 -292 q 610 -294 621 -293 q 588 -294 599 -294 z "},"Å":{"ha":663,"x_min":38,"x_max":625,"o":"m 38 0 l 275 1125 l 386 1125 l 625 0 l 521 0 l 465 301 l 197 301 l 140 0 l 38 0 m 213 378 l 451 378 l 332 985 l 213 378 m 332 1196 q 239 1229 279 1196 q 199 1328 199 1263 q 239 1427 199 1394 q 332 1460 279 1460 q 426 1427 386 1460 q 465 1328 465 1394 q 426 1229 465 1263 q 332 1196 386 1196 m 332 1251 q 385 1270 363 1251 q 408 1328 408 1289 q 385 1388 408 1369 q 332 1406 363 1406 q 278 1388 300 1406 q 256 1328 256 1369 q 278 1270 256 1289 q 332 1251 300 1251 z "},"Ǻ":{"ha":663,"x_min":38,"x_max":625,"o":"m 38 0 l 275 1125 l 386 1125 l 625 0 l 521 0 l 465 301 l 197 301 l 140 0 l 38 0 m 213 378 l 451 378 l 332 985 l 213 378 m 332 1196 q 239 1229 279 1196 q 199 1328 199 1263 q 239 1427 199 1394 q 332 1460 279 1460 q 426 1427 386 1460 q 465 1328 465 1394 q 426 1229 465 1263 q 332 1196 386 1196 m 332 1251 q 385 1270 363 1251 q 408 1328 408 1289 q 385 1388 408 1369 q 332 1406 363 1406 q 278 1388 300 1406 q 256 1328 256 1369 q 278 1270 256 1289 q 332 1251 300 1251 m 306 1526 l 393 1799 l 494 1799 l 358 1526 l 306 1526 z "},"Ã":{"ha":663,"x_min":38,"x_max":625,"o":"m 38 0 l 275 1125 l 386 1125 l 625 0 l 521 0 l 465 301 l 197 301 l 140 0 l 38 0 m 213 378 l 451 378 l 332 985 l 213 378 m 417 1283 q 357 1300 383 1283 q 308 1333 331 1317 q 260 1350 285 1350 q 226 1336 238 1350 q 214 1294 214 1322 l 151 1294 q 159 1347 151 1318 q 188 1396 167 1375 q 247 1417 208 1417 q 307 1401 281 1417 q 357 1368 333 1385 q 406 1351 381 1351 q 440 1365 429 1351 q 451 1411 451 1378 l 513 1411 q 506 1356 513 1386 q 479 1305 500 1326 q 417 1283 458 1283 z "},"Æ":{"ha":876,"x_min":-39,"x_max":832,"o":"m -39 0 l 411 1125 l 832 1125 l 832 1040 l 532 1040 l 532 626 l 747 626 l 747 546 l 532 546 l 532 83 l 832 83 l 832 0 l 425 0 l 425 301 l 189 301 l 72 0 l -39 0 m 218 382 l 425 382 l 425 946 l 218 382 z "},"Ǽ":{"ha":876,"x_min":-39,"x_max":832,"o":"m -39 0 l 411 1125 l 832 1125 l 832 1040 l 532 1040 l 532 626 l 747 626 l 747 546 l 532 546 l 532 83 l 832 83 l 832 0 l 425 0 l 425 301 l 189 301 l 72 0 l -39 0 m 218 382 l 425 382 l 425 946 l 218 382 m 451 1192 l 539 1464 l 640 1464 l 504 1192 l 451 1192 z "},"B":{"ha":697,"x_min":99,"x_max":642,"o":"m 99 0 l 99 1125 l 340 1125 q 469 1106 417 1125 q 554 1049 522 1086 q 601 959 586 1011 q 615 844 615 907 q 602 740 615 790 q 558 653 589 689 q 472 607 528 618 q 575 545 538 589 q 627 444 613 501 q 642 325 642 386 q 630 199 642 258 q 588 96 618 140 q 507 26 558 51 q 376 0 456 0 l 99 0 m 204 79 l 356 79 q 502 139 465 79 q 539 325 539 199 q 522 446 539 393 q 466 528 506 499 q 358 558 426 558 l 204 558 l 204 79 m 204 640 l 357 640 q 457 666 422 640 q 506 737 492 692 q 519 844 519 782 q 501 957 519 913 q 436 1022 482 1001 q 304 1043 390 1043 l 204 1043 l 204 640 z "},"Ḃ":{"ha":697,"x_min":99,"x_max":642,"o":"m 99 0 l 99 1125 l 340 1125 q 469 1106 417 1125 q 554 1049 522 1086 q 601 959 586 1011 q 615 844 615 907 q 602 740 615 790 q 558 653 589 689 q 472 607 528 618 q 575 545 538 589 q 627 444 613 501 q 642 325 642 386 q 630 199 642 258 q 588 96 618 140 q 507 26 558 51 q 376 0 456 0 l 99 0 m 204 79 l 356 79 q 502 139 465 79 q 539 325 539 199 q 522 446 539 393 q 466 528 506 499 q 358 558 426 558 l 204 558 l 204 79 m 204 640 l 357 640 q 457 666 422 640 q 506 737 492 692 q 519 844 519 782 q 501 957 519 913 q 436 1022 482 1001 q 304 1043 390 1043 l 204 1043 l 204 640 m 294 1258 l 294 1411 l 403 1411 l 403 1258 l 294 1258 z "},"C":{"ha":693,"x_min":75,"x_max":626,"o":"m 360 -14 q 184 33 246 -14 q 99 160 122 81 q 75 338 75 240 l 75 785 q 99 968 75 889 q 186 1092 124 1047 q 360 1136 249 1136 q 519 1097 461 1136 q 601 987 576 1058 q 626 817 626 915 l 626 749 l 526 749 l 526 814 q 515 940 526 888 q 467 1022 503 993 q 361 1051 431 1051 q 247 1020 285 1051 q 195 932 208 989 q 182 800 182 875 l 182 321 q 198 182 182 238 q 253 99 214 126 q 361 71 292 71 q 467 101 432 71 q 515 187 503 132 q 526 315 526 242 l 526 389 l 626 389 l 626 322 q 603 148 626 224 q 523 29 581 72 q 360 -14 465 -14 z "},"Ć":{"ha":693,"x_min":75,"x_max":626,"o":"m 360 -14 q 184 33 246 -14 q 99 160 122 81 q 75 338 75 240 l 75 785 q 99 968 75 889 q 186 1092 124 1047 q 360 1136 249 1136 q 519 1097 461 1136 q 601 987 576 1058 q 626 817 626 915 l 626 749 l 526 749 l 526 814 q 515 940 526 888 q 467 1022 503 993 q 361 1051 431 1051 q 247 1020 285 1051 q 195 932 208 989 q 182 800 182 875 l 182 321 q 198 182 182 238 q 253 99 214 126 q 361 71 292 71 q 467 101 432 71 q 515 187 503 132 q 526 315 526 242 l 526 389 l 626 389 l 626 322 q 603 148 626 224 q 523 29 581 72 q 360 -14 465 -14 m 321 1192 l 408 1464 l 510 1464 l 374 1192 l 321 1192 z "},"Č":{"ha":693,"x_min":75,"x_max":626,"o":"m 360 -14 q 184 33 246 -14 q 99 160 122 81 q 75 338 75 240 l 75 785 q 99 968 75 889 q 186 1092 124 1047 q 360 1136 249 1136 q 519 1097 461 1136 q 601 987 576 1058 q 626 817 626 915 l 626 749 l 526 749 l 526 814 q 515 940 526 888 q 467 1022 503 993 q 361 1051 431 1051 q 247 1020 285 1051 q 195 932 208 989 q 182 800 182 875 l 182 321 q 198 182 182 238 q 253 99 214 126 q 361 71 292 71 q 467 101 432 71 q 515 187 503 132 q 526 315 526 242 l 526 389 l 626 389 l 626 322 q 603 148 626 224 q 523 29 581 72 q 360 -14 465 -14 m 301 1215 l 183 1447 l 265 1447 l 347 1281 l 429 1447 l 511 1447 l 392 1215 l 301 1215 z "},"Ç":{"ha":693,"x_min":75,"x_max":626,"o":"m 360 -14 q 184 33 246 -14 q 99 160 122 81 q 75 338 75 240 l 75 785 q 99 968 75 889 q 186 1092 124 1047 q 360 1136 249 1136 q 519 1097 461 1136 q 601 987 576 1058 q 626 817 626 915 l 626 749 l 526 749 l 526 814 q 515 940 526 888 q 467 1022 503 993 q 361 1051 431 1051 q 247 1020 285 1051 q 195 932 208 989 q 182 800 182 875 l 182 321 q 198 182 182 238 q 253 99 214 126 q 361 71 292 71 q 467 101 432 71 q 515 187 503 132 q 526 315 526 242 l 526 389 l 626 389 l 626 322 q 603 148 626 224 q 523 29 581 72 q 360 -14 465 -14 m 347 -283 q 318 -281 333 -283 q 288 -276 303 -279 l 288 -224 q 310 -228 299 -226 q 333 -229 322 -229 q 400 -216 376 -229 q 424 -172 424 -203 q 412 -136 424 -150 q 377 -113 400 -122 q 321 -100 354 -104 l 321 0 l 374 0 l 374 -69 q 469 -100 438 -72 q 501 -174 501 -128 q 483 -235 501 -210 q 429 -272 464 -260 q 347 -283 394 -283 z "},"Ĉ":{"ha":693,"x_min":75,"x_max":626,"o":"m 360 -14 q 184 33 246 -14 q 99 160 122 81 q 75 338 75 240 l 75 785 q 99 968 75 889 q 186 1092 124 1047 q 360 1136 249 1136 q 519 1097 461 1136 q 601 987 576 1058 q 626 817 626 915 l 626 749 l 526 749 l 526 814 q 515 940 526 888 q 467 1022 503 993 q 361 1051 431 1051 q 247 1020 285 1051 q 195 932 208 989 q 182 800 182 875 l 182 321 q 198 182 182 238 q 253 99 214 126 q 361 71 292 71 q 467 101 432 71 q 515 187 503 132 q 526 315 526 242 l 526 389 l 626 389 l 626 322 q 603 148 626 224 q 523 29 581 72 q 360 -14 465 -14 m 171 1200 l 290 1447 l 404 1447 l 522 1200 l 447 1200 l 346 1396 l 246 1200 l 171 1200 z "},"Ċ":{"ha":693,"x_min":75,"x_max":626,"o":"m 360 -14 q 184 33 246 -14 q 99 160 122 81 q 75 338 75 240 l 75 785 q 99 968 75 889 q 186 1092 124 1047 q 360 1136 249 1136 q 519 1097 461 1136 q 601 987 576 1058 q 626 817 626 915 l 626 749 l 526 749 l 526 814 q 515 940 526 888 q 467 1022 503 993 q 361 1051 431 1051 q 247 1020 285 1051 q 195 932 208 989 q 182 800 182 875 l 182 321 q 198 182 182 238 q 253 99 214 126 q 361 71 292 71 q 467 101 432 71 q 515 187 503 132 q 526 315 526 242 l 526 389 l 626 389 l 626 322 q 603 148 626 224 q 523 29 581 72 q 360 -14 465 -14 m 293 1258 l 293 1411 l 401 1411 l 401 1258 l 293 1258 z "},"D":{"ha":724,"x_min":99,"x_max":649,"o":"m 99 0 l 99 1125 l 343 1125 q 527 1084 461 1125 q 621 968 593 1043 q 649 794 649 893 l 649 347 q 621 165 649 243 q 529 43 593 86 q 353 0 465 0 l 99 0 m 204 79 l 346 79 q 476 116 435 79 q 529 217 518 153 q 540 364 540 282 l 540 783 q 526 926 540 868 q 469 1013 511 983 q 342 1043 426 1043 l 204 1043 l 204 79 z "},"Ǳ":{"ha":1289,"x_min":99,"x_max":1261,"o":"m 99 0 l 99 1125 l 343 1125 q 527 1084 461 1125 q 621 968 593 1043 q 649 794 649 893 l 649 347 q 621 165 649 243 q 529 43 593 86 q 353 0 465 0 l 99 0 m 204 79 l 346 79 q 476 116 435 79 q 529 217 518 153 q 540 364 540 282 l 540 783 q 526 926 540 868 q 469 1013 511 983 q 342 1043 426 1043 l 204 1043 l 204 79 m 771 0 l 771 79 l 1147 1046 l 801 1046 l 801 1125 l 1261 1125 l 1261 1069 l 875 79 l 1261 79 l 1261 0 l 771 0 z "},"Ǆ":{"ha":1289,"x_min":99,"x_max":1261,"o":"m 99 0 l 99 1125 l 343 1125 q 527 1084 461 1125 q 621 968 593 1043 q 649 794 649 893 l 649 347 q 621 165 649 243 q 529 43 593 86 q 353 0 465 0 l 99 0 m 204 79 l 346 79 q 476 116 435 79 q 529 217 518 153 q 540 364 540 282 l 540 783 q 526 926 540 868 q 469 1013 511 983 q 342 1043 426 1043 l 204 1043 l 204 79 m 771 0 l 771 79 l 1147 1046 l 801 1046 l 801 1125 l 1261 1125 l 1261 1069 l 875 79 l 1261 79 l 1261 0 l 771 0 m 961 1215 l 843 1447 l 925 1447 l 1007 1281 l 1089 1447 l 1171 1447 l 1051 1215 l 961 1215 z "},"Ð":{"ha":757,"x_min":15,"x_max":649,"o":"m 99 0 l 99 557 l 15 557 l 15 622 l 99 622 l 99 1125 l 343 1125 q 527 1084 461 1125 q 621 968 593 1043 q 649 794 649 893 l 649 347 q 621 165 649 243 q 529 43 593 86 q 353 0 465 0 l 99 0 m 204 79 l 346 79 q 476 116 435 79 q 529 217 518 153 q 540 364 540 282 l 540 783 q 526 926 540 868 q 469 1013 511 983 q 342 1043 426 1043 l 204 1043 l 204 622 l 317 622 l 317 557 l 204 557 l 204 79 z "},"Ď":{"ha":724,"x_min":99,"x_max":649,"o":"m 99 0 l 99 1125 l 343 1125 q 527 1084 461 1125 q 621 968 593 1043 q 649 794 649 893 l 649 347 q 621 165 649 243 q 529 43 593 86 q 353 0 465 0 l 99 0 m 204 79 l 346 79 q 476 116 435 79 q 529 217 518 153 q 540 364 540 282 l 540 783 q 526 926 540 868 q 469 1013 511 983 q 342 1043 426 1043 l 204 1043 l 204 79 m 317 1215 l 199 1447 l 281 1447 l 363 1281 l 444 1447 l 526 1447 l 407 1215 l 317 1215 z "},"Đ":{"ha":725,"x_min":18,"x_max":650,"o":"m 99 0 l 99 557 l 18 557 l 18 622 l 99 622 l 99 1125 l 346 1125 q 529 1084 463 1125 q 623 968 596 1043 q 650 794 650 893 l 650 347 q 623 165 650 243 q 531 43 596 86 q 354 0 467 0 l 99 0 m 206 79 l 347 79 q 478 116 438 79 q 531 217 519 153 q 543 364 543 282 l 543 783 q 528 926 543 868 q 471 1013 514 983 q 343 1043 428 1043 l 206 1043 l 206 622 l 319 622 l 319 557 l 206 557 l 206 79 z "},"Ḋ":{"ha":724,"x_min":99,"x_max":649,"o":"m 99 0 l 99 1125 l 343 1125 q 527 1084 461 1125 q 621 968 593 1043 q 649 794 649 893 l 649 347 q 621 165 649 243 q 529 43 593 86 q 353 0 465 0 l 99 0 m 204 79 l 346 79 q 476 116 435 79 q 529 217 518 153 q 540 364 540 282 l 540 783 q 526 926 540 868 q 469 1013 511 983 q 342 1043 426 1043 l 204 1043 l 204 79 m 308 1258 l 308 1411 l 417 1411 l 417 1258 l 308 1258 z "},"ǲ":{"ha":1186,"x_min":99,"x_max":1149,"o":"m 99 0 l 99 1125 l 343 1125 q 527 1084 461 1125 q 621 968 593 1043 q 649 794 649 893 l 649 347 q 621 165 649 243 q 529 43 593 86 q 353 0 465 0 l 99 0 m 204 79 l 346 79 q 476 116 435 79 q 529 217 518 153 q 540 364 540 282 l 540 783 q 526 926 540 868 q 469 1013 511 983 q 342 1043 426 1043 l 204 1043 l 204 79 m 768 0 l 768 71 l 1042 725 l 797 725 l 797 803 l 1149 803 l 1149 742 l 876 78 l 1144 78 l 1144 0 l 768 0 z "},"ǅ":{"ha":1186,"x_min":99,"x_max":1149,"o":"m 99 0 l 99 1125 l 343 1125 q 527 1084 461 1125 q 621 968 593 1043 q 649 794 649 893 l 649 347 q 621 165 649 243 q 529 43 593 86 q 353 0 465 0 l 99 0 m 204 79 l 346 79 q 476 116 435 79 q 529 217 518 153 q 540 364 540 282 l 540 783 q 526 926 540 868 q 469 1013 511 983 q 342 1043 426 1043 l 204 1043 l 204 79 m 768 0 l 768 71 l 1042 725 l 797 725 l 797 803 l 1149 803 l 1149 742 l 876 78 l 1144 78 l 1144 0 l 768 0 m 910 893 l 792 1125 l 874 1125 l 956 958 l 1038 1125 l 1119 1125 l 1000 893 l 910 893 z "},"E":{"ha":553,"x_min":97,"x_max":507,"o":"m 97 0 l 97 1125 l 504 1125 l 504 1043 l 204 1043 l 204 621 l 449 621 l 449 543 l 204 543 l 204 79 l 507 79 l 507 0 l 97 0 z "},"É":{"ha":553,"x_min":97,"x_max":507,"o":"m 97 0 l 97 1125 l 504 1125 l 504 1043 l 204 1043 l 204 621 l 449 621 l 449 543 l 204 543 l 204 79 l 507 79 l 507 0 l 97 0 m 279 1192 l 367 1464 l 468 1464 l 332 1192 l 279 1192 z "},"Ĕ":{"ha":553,"x_min":97,"x_max":507,"o":"m 97 0 l 97 1125 l 504 1125 l 504 1043 l 204 1043 l 204 621 l 449 621 l 449 543 l 204 543 l 204 79 l 507 79 l 507 0 l 97 0 m 304 1211 q 182 1255 224 1211 q 138 1378 140 1299 l 203 1378 q 231 1297 204 1322 q 304 1272 258 1272 q 378 1297 351 1272 q 408 1378 406 1322 l 472 1378 q 428 1255 471 1299 q 304 1211 386 1211 z "},"Ě":{"ha":553,"x_min":97,"x_max":507,"o":"m 97 0 l 97 1125 l 504 1125 l 504 1043 l 204 1043 l 204 621 l 449 621 l 449 543 l 204 543 l 204 79 l 507 79 l 507 0 l 97 0 m 260 1215 l 142 1447 l 224 1447 l 306 1281 l 388 1447 l 469 1447 l 350 1215 l 260 1215 z "},"Ê":{"ha":553,"x_min":97,"x_max":507,"o":"m 97 0 l 97 1125 l 504 1125 l 504 1043 l 204 1043 l 204 621 l 449 621 l 449 543 l 204 543 l 204 79 l 507 79 l 507 0 l 97 0 m 129 1200 l 249 1447 l 363 1447 l 481 1200 l 406 1200 l 304 1396 l 204 1200 l 129 1200 z "},"Ế":{"ha":553,"x_min":97,"x_max":628,"o":"m 97 0 l 97 1125 l 504 1125 l 504 1043 l 204 1043 l 204 621 l 449 621 l 449 543 l 204 543 l 204 79 l 507 79 l 507 0 l 97 0 m 129 1200 l 249 1403 l 363 1403 l 482 1200 l 407 1200 l 306 1353 l 204 1200 l 129 1200 m 461 1332 l 535 1492 l 628 1492 l 529 1332 l 461 1332 z "},"Ệ":{"ha":553,"x_min":97,"x_max":507,"o":"m 97 0 l 97 1125 l 504 1125 l 504 1043 l 204 1043 l 204 621 l 449 621 l 449 543 l 204 543 l 204 79 l 507 79 l 507 0 l 97 0 m 129 1200 l 249 1403 l 363 1403 l 482 1200 l 407 1200 l 306 1353 l 204 1200 l 129 1200 m 240 -208 l 240 -85 l 349 -85 l 349 -208 l 240 -208 z "},"Ề":{"ha":553,"x_min":97,"x_max":564,"o":"m 97 0 l 97 1125 l 504 1125 l 504 1043 l 204 1043 l 204 621 l 449 621 l 449 543 l 204 543 l 204 79 l 507 79 l 507 0 l 97 0 m 129 1200 l 249 1403 l 363 1403 l 482 1200 l 407 1200 l 306 1353 l 204 1200 l 129 1200 m 497 1332 l 397 1492 l 490 1492 l 564 1332 l 497 1332 z "},"Ể":{"ha":553,"x_min":97,"x_max":590,"o":"m 97 0 l 97 1125 l 504 1125 l 504 1043 l 204 1043 l 204 621 l 449 621 l 449 543 l 204 543 l 204 79 l 507 79 l 507 0 l 97 0 m 486 1319 l 449 1360 q 497 1395 481 1378 q 514 1438 514 1413 q 497 1474 514 1463 q 451 1486 479 1486 q 420 1484 436 1486 q 388 1476 404 1482 l 388 1529 q 431 1539 410 1536 q 474 1542 453 1542 q 559 1517 526 1542 q 592 1444 592 1493 q 560 1368 592 1396 q 486 1319 529 1340 m 129 1200 l 249 1403 l 363 1403 l 482 1200 l 407 1200 l 306 1353 l 204 1200 l 129 1200 z "},"Ễ":{"ha":553,"x_min":97,"x_max":507,"o":"m 97 0 l 97 1125 l 504 1125 l 504 1043 l 204 1043 l 204 621 l 449 621 l 449 543 l 204 543 l 204 79 l 507 79 l 507 0 l 97 0 m 129 1200 l 249 1403 l 363 1403 l 482 1200 l 407 1200 l 306 1353 l 204 1200 l 129 1200 m 390 1469 q 331 1486 357 1469 q 281 1519 304 1503 q 233 1536 258 1536 q 199 1522 211 1536 q 188 1481 188 1508 l 125 1481 q 133 1533 125 1504 q 161 1582 140 1561 q 221 1603 182 1603 q 281 1587 254 1603 q 331 1554 307 1571 q 379 1538 354 1538 q 414 1551 403 1538 q 425 1597 425 1564 l 486 1597 q 480 1542 486 1572 q 453 1491 474 1513 q 390 1469 432 1469 z "},"Ȅ":{"ha":553,"x_min":68,"x_max":507,"o":"m 97 0 l 97 1125 l 504 1125 l 504 1043 l 204 1043 l 204 621 l 449 621 l 449 543 l 204 543 l 204 79 l 507 79 l 507 0 l 97 0 m 201 1231 l 68 1447 l 176 1447 l 254 1231 l 201 1231 m 353 1231 l 257 1447 l 347 1447 l 404 1231 l 353 1231 z "},"Ë":{"ha":553,"x_min":97,"x_max":507,"o":"m 97 0 l 97 1125 l 504 1125 l 504 1043 l 204 1043 l 204 621 l 449 621 l 449 543 l 204 543 l 204 79 l 507 79 l 507 0 l 97 0 m 368 1324 l 368 1447 l 472 1447 l 472 1324 l 368 1324 m 139 1324 l 139 1447 l 243 1447 l 243 1324 l 139 1324 z "},"Ė":{"ha":553,"x_min":97,"x_max":507,"o":"m 97 0 l 97 1125 l 504 1125 l 504 1043 l 204 1043 l 204 621 l 449 621 l 449 543 l 204 543 l 204 79 l 507 79 l 507 0 l 97 0 m 251 1258 l 251 1411 l 360 1411 l 360 1258 l 251 1258 z "},"Ẹ":{"ha":553,"x_min":97,"x_max":507,"o":"m 97 0 l 97 1125 l 504 1125 l 504 1043 l 204 1043 l 204 621 l 449 621 l 449 543 l 204 543 l 204 79 l 507 79 l 507 0 l 97 0 m 240 -208 l 240 -85 l 349 -85 l 349 -208 l 240 -208 z "},"È":{"ha":553,"x_min":97,"x_max":507,"o":"m 97 0 l 97 1125 l 504 1125 l 504 1043 l 204 1043 l 204 621 l 449 621 l 449 543 l 204 543 l 204 79 l 507 79 l 507 0 l 97 0 m 279 1192 l 151 1464 l 254 1464 l 331 1192 l 279 1192 z "},"Ẻ":{"ha":553,"x_min":97,"x_max":507,"o":"m 97 0 l 97 1125 l 504 1125 l 504 1043 l 204 1043 l 204 621 l 449 621 l 449 543 l 204 543 l 204 79 l 507 79 l 507 0 l 97 0 m 306 1226 l 268 1267 q 324 1303 304 1285 q 344 1344 344 1321 q 326 1383 344 1371 q 272 1394 307 1394 q 241 1392 257 1394 q 207 1386 225 1390 l 207 1439 q 296 1449 251 1449 q 363 1438 335 1449 q 406 1406 390 1428 q 421 1351 421 1385 q 406 1297 421 1319 q 364 1257 390 1274 q 306 1226 338 1240 z "},"Ȇ":{"ha":553,"x_min":97,"x_max":507,"o":"m 97 0 l 97 1125 l 504 1125 l 504 1043 l 204 1043 l 204 621 l 449 621 l 449 543 l 204 543 l 204 79 l 507 79 l 507 0 l 97 0 m 138 1274 q 158 1367 140 1328 q 213 1426 176 1406 q 306 1447 250 1447 q 399 1426 363 1447 q 454 1367 436 1406 q 474 1274 472 1328 l 408 1274 q 380 1360 407 1336 q 306 1385 353 1385 q 233 1360 260 1385 q 203 1274 206 1335 l 138 1274 z "},"Ē":{"ha":553,"x_min":97,"x_max":507,"o":"m 97 0 l 97 1125 l 504 1125 l 504 1043 l 204 1043 l 204 621 l 449 621 l 449 543 l 204 543 l 204 79 l 507 79 l 507 0 l 97 0 m 181 1286 l 181 1356 l 431 1356 l 431 1286 l 181 1286 z "},"Ę":{"ha":553,"x_min":97,"x_max":507,"o":"m 97 0 l 97 1125 l 504 1125 l 504 1043 l 204 1043 l 204 621 l 449 621 l 449 543 l 204 543 l 204 79 l 507 79 l 507 0 l 97 0 m 444 -294 q 382 -288 411 -294 q 331 -269 353 -282 q 297 -233 308 -256 q 285 -181 285 -211 q 303 -108 285 -143 q 349 -45 321 -74 q 411 0 378 -17 l 465 0 q 416 -53 439 -25 q 378 -110 393 -81 q 364 -168 364 -139 q 395 -225 364 -210 q 468 -240 426 -240 q 485 -240 476 -240 q 500 -237 493 -239 l 485 -292 q 467 -294 478 -293 q 444 -294 456 -294 z "},"Ẽ":{"ha":553,"x_min":97,"x_max":507,"o":"m 97 0 l 97 1125 l 504 1125 l 504 1043 l 204 1043 l 204 621 l 449 621 l 449 543 l 204 543 l 204 79 l 507 79 l 507 0 l 97 0 m 390 1283 q 331 1300 357 1283 q 281 1333 304 1317 q 233 1350 258 1350 q 199 1336 211 1350 q 188 1294 188 1322 l 125 1294 q 133 1347 125 1318 q 161 1396 140 1375 q 221 1417 182 1417 q 281 1401 254 1417 q 331 1368 307 1385 q 379 1351 354 1351 q 414 1365 403 1351 q 425 1411 425 1378 l 486 1411 q 480 1356 486 1386 q 453 1305 474 1326 q 390 1283 432 1283 z "},"Ʒ":{"ha":651,"x_min":68,"x_max":586,"o":"m 321 -14 q 176 19 232 -14 q 94 115 121 53 q 68 260 68 176 l 68 288 l 167 288 q 167 276 167 283 q 167 264 167 268 q 201 122 167 174 q 319 69 235 69 q 406 90 374 69 q 455 145 439 110 q 476 226 471 181 q 482 322 482 272 q 459 492 482 426 q 386 588 436 557 q 257 619 336 619 l 143 619 l 143 692 l 406 1046 l 93 1046 l 93 1125 l 532 1125 l 532 1069 l 217 639 l 192 689 l 286 689 q 456 649 390 689 q 554 531 522 610 q 586 329 586 451 q 560 146 586 224 q 476 27 535 68 q 321 -14 418 -14 z "},"Ǯ":{"ha":651,"x_min":68,"x_max":586,"o":"m 321 -14 q 176 19 232 -14 q 94 115 121 53 q 68 260 68 176 l 68 288 l 167 288 q 167 276 167 283 q 167 264 167 268 q 201 122 167 174 q 319 69 235 69 q 406 90 374 69 q 455 145 439 110 q 476 226 471 181 q 482 322 482 272 q 459 492 482 426 q 386 588 436 557 q 257 619 336 619 l 143 619 l 143 692 l 406 1046 l 93 1046 l 93 1125 l 532 1125 l 532 1069 l 217 639 l 192 689 l 286 689 q 456 649 390 689 q 554 531 522 610 q 586 329 586 451 q 560 146 586 224 q 476 27 535 68 q 321 -14 418 -14 m 281 1215 l 163 1447 l 244 1447 l 326 1281 l 408 1447 l 490 1447 l 371 1215 l 281 1215 z "},"F":{"ha":536,"x_min":99,"x_max":503,"o":"m 99 0 l 99 1125 l 503 1125 l 503 1046 l 204 1046 l 204 622 l 453 622 l 453 544 l 204 544 l 204 0 l 99 0 z "},"Ḟ":{"ha":536,"x_min":99,"x_max":503,"o":"m 99 0 l 99 1125 l 503 1125 l 503 1046 l 204 1046 l 204 622 l 453 622 l 453 544 l 204 544 l 204 0 l 99 0 m 215 1258 l 215 1411 l 324 1411 l 324 1258 l 215 1258 z "},"G":{"ha":721,"x_min":75,"x_max":636,"o":"m 353 -15 q 185 29 246 -15 q 100 155 125 74 q 75 343 75 236 l 75 782 q 99 969 75 890 q 185 1092 124 1049 q 360 1136 247 1136 q 520 1099 461 1136 q 606 989 579 1061 q 632 813 632 917 l 632 774 l 532 774 l 532 813 q 517 946 532 893 q 467 1025 503 999 q 361 1051 431 1051 q 244 1018 283 1051 q 194 926 206 985 q 182 793 182 868 l 182 331 q 197 191 182 249 q 251 102 211 133 q 363 71 290 71 q 471 102 433 71 q 524 192 508 133 q 539 333 539 250 l 539 465 l 372 465 l 372 544 l 636 544 l 636 0 l 568 0 l 556 128 q 487 24 535 64 q 353 -15 439 -15 z "},"Ǵ":{"ha":721,"x_min":75,"x_max":636,"o":"m 353 -15 q 185 29 246 -15 q 100 155 125 74 q 75 343 75 236 l 75 782 q 99 969 75 890 q 185 1092 124 1049 q 360 1136 247 1136 q 520 1099 461 1136 q 606 989 579 1061 q 632 813 632 917 l 632 774 l 532 774 l 532 813 q 517 946 532 893 q 467 1025 503 999 q 361 1051 431 1051 q 244 1018 283 1051 q 194 926 206 985 q 182 793 182 868 l 182 331 q 197 191 182 249 q 251 102 211 133 q 363 71 290 71 q 471 102 433 71 q 524 192 508 133 q 539 333 539 250 l 539 465 l 372 465 l 372 544 l 636 544 l 636 0 l 568 0 l 556 128 q 487 24 535 64 q 353 -15 439 -15 m 335 1192 l 422 1464 l 524 1464 l 388 1192 l 335 1192 z "},"Ğ":{"ha":721,"x_min":75,"x_max":636,"o":"m 353 -15 q 185 29 246 -15 q 100 155 125 74 q 75 343 75 236 l 75 782 q 99 969 75 890 q 185 1092 124 1049 q 360 1136 247 1136 q 520 1099 461 1136 q 606 989 579 1061 q 632 813 632 917 l 632 774 l 532 774 l 532 813 q 517 946 532 893 q 467 1025 503 999 q 361 1051 431 1051 q 244 1018 283 1051 q 194 926 206 985 q 182 793 182 868 l 182 331 q 197 191 182 249 q 251 102 211 133 q 363 71 290 71 q 471 102 433 71 q 524 192 508 133 q 539 333 539 250 l 539 465 l 372 465 l 372 544 l 636 544 l 636 0 l 568 0 l 556 128 q 487 24 535 64 q 353 -15 439 -15 m 360 1211 q 238 1255 279 1211 q 193 1378 196 1299 l 258 1378 q 287 1297 260 1322 q 360 1272 314 1272 q 434 1297 407 1272 q 464 1378 461 1322 l 528 1378 q 484 1255 526 1299 q 360 1211 442 1211 z "},"Ǧ":{"ha":721,"x_min":75,"x_max":636,"o":"m 353 -15 q 185 29 246 -15 q 100 155 125 74 q 75 343 75 236 l 75 782 q 99 969 75 890 q 185 1092 124 1049 q 360 1136 247 1136 q 520 1099 461 1136 q 606 989 579 1061 q 632 813 632 917 l 632 774 l 532 774 l 532 813 q 517 946 532 893 q 467 1025 503 999 q 361 1051 431 1051 q 244 1018 283 1051 q 194 926 206 985 q 182 793 182 868 l 182 331 q 197 191 182 249 q 251 102 211 133 q 363 71 290 71 q 471 102 433 71 q 524 192 508 133 q 539 333 539 250 l 539 465 l 372 465 l 372 544 l 636 544 l 636 0 l 568 0 l 556 128 q 487 24 535 64 q 353 -15 439 -15 m 315 1215 l 197 1447 l 279 1447 l 361 1281 l 443 1447 l 525 1447 l 406 1215 l 315 1215 z "},"Ĝ":{"ha":721,"x_min":75,"x_max":636,"o":"m 353 -15 q 185 29 246 -15 q 100 155 125 74 q 75 343 75 236 l 75 782 q 99 969 75 890 q 185 1092 124 1049 q 360 1136 247 1136 q 520 1099 461 1136 q 606 989 579 1061 q 632 813 632 917 l 632 774 l 532 774 l 532 813 q 517 946 532 893 q 467 1025 503 999 q 361 1051 431 1051 q 244 1018 283 1051 q 194 926 206 985 q 182 793 182 868 l 182 331 q 197 191 182 249 q 251 102 211 133 q 363 71 290 71 q 471 102 433 71 q 524 192 508 133 q 539 333 539 250 l 539 465 l 372 465 l 372 544 l 636 544 l 636 0 l 568 0 l 556 128 q 487 24 535 64 q 353 -15 439 -15 m 185 1200 l 304 1447 l 418 1447 l 536 1200 l 461 1200 l 360 1396 l 260 1200 l 185 1200 z "},"Ģ":{"ha":721,"x_min":75,"x_max":636,"o":"m 353 -15 q 185 29 246 -15 q 100 155 125 74 q 75 343 75 236 l 75 782 q 99 969 75 890 q 185 1092 124 1049 q 360 1136 247 1136 q 520 1099 461 1136 q 606 989 579 1061 q 632 813 632 917 l 632 774 l 532 774 l 532 813 q 517 946 532 893 q 467 1025 503 999 q 361 1051 431 1051 q 244 1018 283 1051 q 194 926 206 985 q 182 793 182 868 l 182 331 q 197 191 182 249 q 251 102 211 133 q 363 71 290 71 q 471 102 433 71 q 524 192 508 133 q 539 333 539 250 l 539 465 l 372 465 l 372 544 l 636 544 l 636 0 l 568 0 l 556 128 q 487 24 535 64 q 353 -15 439 -15 m 326 -358 l 301 -312 q 353 -266 340 -296 q 367 -207 367 -236 l 307 -207 l 307 -85 l 421 -85 l 419 -192 q 401 -301 419 -260 q 326 -358 383 -342 z "},"Ġ":{"ha":721,"x_min":75,"x_max":636,"o":"m 353 -15 q 185 29 246 -15 q 100 155 125 74 q 75 343 75 236 l 75 782 q 99 969 75 890 q 185 1092 124 1049 q 360 1136 247 1136 q 520 1099 461 1136 q 606 989 579 1061 q 632 813 632 917 l 632 774 l 532 774 l 532 813 q 517 946 532 893 q 467 1025 503 999 q 361 1051 431 1051 q 244 1018 283 1051 q 194 926 206 985 q 182 793 182 868 l 182 331 q 197 191 182 249 q 251 102 211 133 q 363 71 290 71 q 471 102 433 71 q 524 192 508 133 q 539 333 539 250 l 539 465 l 372 465 l 372 544 l 636 544 l 636 0 l 568 0 l 556 128 q 487 24 535 64 q 353 -15 439 -15 m 307 1258 l 307 1411 l 415 1411 l 415 1258 l 307 1258 z "},"Ǥ":{"ha":721,"x_min":75,"x_max":731,"o":"m 429 307 l 429 374 l 731 374 l 731 307 l 429 307 m 353 -15 q 185 29 246 -15 q 100 155 125 74 q 75 343 75 236 l 75 782 q 99 969 75 890 q 185 1092 124 1049 q 360 1136 247 1136 q 520 1099 461 1136 q 606 989 579 1061 q 632 813 632 917 l 632 774 l 532 774 l 532 813 q 517 946 532 893 q 467 1025 503 999 q 361 1051 431 1051 q 244 1018 283 1051 q 194 926 206 985 q 182 793 182 868 l 182 331 q 197 191 182 249 q 251 102 211 133 q 363 71 290 71 q 471 102 433 71 q 524 192 508 133 q 539 333 539 250 l 539 465 l 372 465 l 372 544 l 636 544 l 636 0 l 568 0 l 556 128 q 487 24 535 64 q 353 -15 439 -15 z "},"H":{"ha":763,"x_min":97,"x_max":664,"o":"m 97 0 l 97 1125 l 204 1125 l 204 626 l 558 626 l 558 1125 l 664 1125 l 664 0 l 558 0 l 558 547 l 204 547 l 204 0 l 97 0 z "},"Ħ":{"ha":763,"x_min":40,"x_max":722,"o":"m 97 0 l 97 878 l 40 878 l 40 936 l 97 936 l 97 1125 l 204 1125 l 204 936 l 558 936 l 558 1125 l 664 1125 l 664 936 l 722 936 l 722 878 l 664 878 l 664 0 l 558 0 l 558 547 l 204 547 l 204 0 l 97 0 m 204 626 l 558 626 l 558 878 l 204 878 l 204 626 z "},"Ȟ":{"ha":763,"x_min":97,"x_max":664,"o":"m 97 0 l 97 1125 l 204 1125 l 204 626 l 558 626 l 558 1125 l 664 1125 l 664 0 l 558 0 l 558 547 l 204 547 l 204 0 l 97 0 m 336 1215 l 218 1447 l 300 1447 l 382 1281 l 464 1447 l 546 1447 l 426 1215 l 336 1215 z "},"Ĥ":{"ha":763,"x_min":97,"x_max":664,"o":"m 97 0 l 97 1125 l 204 1125 l 204 626 l 558 626 l 558 1125 l 664 1125 l 664 0 l 558 0 l 558 547 l 204 547 l 204 0 l 97 0 m 206 1200 l 325 1447 l 439 1447 l 557 1200 l 482 1200 l 381 1396 l 281 1200 l 206 1200 z "},"I":{"ha":308,"x_min":101,"x_max":207,"o":"m 101 0 l 101 1125 l 207 1125 l 207 0 l 101 0 z "},"Ĳ":{"ha":694,"x_min":101,"x_max":596,"o":"m 101 0 l 101 1125 l 207 1125 l 207 0 l 101 0 m 319 -49 l 319 31 q 412 38 378 31 q 463 67 446 46 q 486 126 481 88 q 492 226 492 165 l 492 1125 l 597 1125 l 597 221 q 581 68 597 128 q 515 -20 564 8 q 371 -49 467 -49 l 319 -49 z "},"Í":{"ha":308,"x_min":101,"x_max":317,"o":"m 101 0 l 101 1125 l 207 1125 l 207 0 l 101 0 m 128 1192 l 215 1464 l 317 1464 l 181 1192 l 128 1192 z "},"Ĭ":{"ha":308,"x_min":-12,"x_max":322,"o":"m 101 0 l 101 1125 l 207 1125 l 207 0 l 101 0 m 153 1211 q 31 1255 72 1211 q -14 1378 -11 1299 l 51 1378 q 80 1297 53 1322 q 153 1272 107 1272 q 227 1297 200 1272 q 257 1378 254 1322 l 321 1378 q 277 1255 319 1299 q 153 1211 235 1211 z "},"Î":{"ha":308,"x_min":-22,"x_max":331,"o":"m 101 0 l 101 1125 l 207 1125 l 207 0 l 101 0 m -22 1200 l 97 1447 l 211 1447 l 329 1200 l 254 1200 l 153 1396 l 53 1200 l -22 1200 z "},"Ȉ":{"ha":308,"x_min":-83,"x_max":253,"o":"m 101 0 l 101 1125 l 207 1125 l 207 0 l 101 0 m 50 1231 l -83 1447 l 25 1447 l 103 1231 l 50 1231 m 201 1231 l 106 1447 l 196 1447 l 253 1231 l 201 1231 z "},"Ï":{"ha":308,"x_min":-11,"x_max":322,"o":"m 101 0 l 101 1125 l 207 1125 l 207 0 l 101 0 m 218 1324 l 218 1447 l 322 1447 l 322 1324 l 218 1324 m -11 1324 l -11 1447 l 93 1447 l 93 1324 l -11 1324 z "},"İ":{"ha":308,"x_min":100,"x_max":208,"o":"m 101 0 l 101 1125 l 207 1125 l 207 0 l 101 0 m 100 1258 l 100 1411 l 208 1411 l 208 1258 l 100 1258 z "},"Ị":{"ha":308,"x_min":100,"x_max":208,"o":"m 101 0 l 101 1125 l 207 1125 l 207 0 l 101 0 m 100 -208 l 100 -85 l 208 -85 l 208 -208 l 100 -208 z "},"Ì":{"ha":308,"x_min":0,"x_max":207,"o":"m 101 0 l 101 1125 l 207 1125 l 207 0 l 101 0 m 128 1192 l 0 1464 l 103 1464 l 179 1192 l 128 1192 z "},"Ỉ":{"ha":308,"x_min":56,"x_max":269,"o":"m 101 0 l 101 1125 l 207 1125 l 207 0 l 101 0 m 154 1226 l 117 1267 q 173 1303 153 1285 q 193 1344 193 1321 q 174 1383 193 1371 q 121 1394 156 1394 q 90 1392 106 1394 q 56 1386 74 1390 l 56 1439 q 144 1449 100 1449 q 211 1438 183 1449 q 254 1406 239 1428 q 269 1351 269 1385 q 254 1297 269 1319 q 213 1257 239 1274 q 154 1226 186 1240 z "},"Ȋ":{"ha":308,"x_min":-14,"x_max":322,"o":"m 101 0 l 101 1125 l 207 1125 l 207 0 l 101 0 m -14 1274 q 7 1367 -11 1328 q 62 1426 25 1406 q 154 1447 99 1447 q 248 1426 211 1447 q 303 1367 285 1406 q 322 1274 321 1328 l 257 1274 q 228 1360 256 1336 q 154 1385 201 1385 q 81 1360 108 1385 q 51 1274 54 1335 l -14 1274 z "},"Ī":{"ha":308,"x_min":29,"x_max":279,"o":"m 101 0 l 101 1125 l 207 1125 l 207 0 l 101 0 m 29 1286 l 29 1356 l 279 1356 l 279 1286 l 29 1286 z "},"Į":{"ha":308,"x_min":1,"x_max":217,"o":"m 101 0 l 101 1125 l 207 1125 l 207 0 l 101 0 m 161 -294 q 99 -288 128 -294 q 47 -269 69 -282 q 13 -233 25 -256 q 1 -181 1 -211 q 19 -108 1 -143 q 66 -45 38 -74 q 128 0 94 -17 l 182 0 q 133 -53 156 -25 q 95 -110 110 -81 q 81 -168 81 -139 q 112 -225 81 -210 q 185 -240 143 -240 q 201 -240 193 -240 q 217 -237 210 -239 l 201 -292 q 183 -294 194 -293 q 161 -294 172 -294 z "},"Ĩ":{"ha":308,"x_min":-26,"x_max":335,"o":"m 101 0 l 101 1125 l 207 1125 l 207 0 l 101 0 m 239 1283 q 179 1300 206 1283 q 130 1333 153 1317 q 82 1350 107 1350 q 48 1336 60 1350 q 36 1294 36 1322 l -26 1294 q -19 1347 -26 1318 q 10 1396 -11 1375 q 69 1417 31 1417 q 129 1401 103 1417 q 179 1368 156 1385 q 228 1351 203 1351 q 263 1365 251 1351 q 274 1411 274 1378 l 335 1411 q 328 1356 335 1386 q 301 1305 322 1326 q 239 1283 281 1283 z "},"J":{"ha":388,"x_min":11,"x_max":289,"o":"m 11 -49 l 11 31 q 103 38 69 31 q 155 67 138 46 q 178 126 172 88 q 183 226 183 165 l 183 1125 l 289 1125 l 289 221 q 272 68 289 128 q 207 -20 256 8 q 63 -49 158 -49 l 11 -49 z "},"Ĵ":{"ha":388,"x_min":11,"x_max":411,"o":"m 11 -49 l 11 31 q 103 38 69 31 q 155 67 138 46 q 178 126 172 88 q 183 226 183 165 l 183 1125 l 289 1125 l 289 221 q 272 68 289 128 q 207 -20 256 8 q 63 -49 158 -49 l 11 -49 m 60 1200 l 179 1447 l 293 1447 l 411 1200 l 336 1200 l 235 1396 l 135 1200 l 60 1200 z "},"K":{"ha":657,"x_min":97,"x_max":656,"o":"m 97 0 l 97 1125 l 204 1125 l 204 531 l 504 1125 l 606 1125 l 375 642 l 656 0 l 551 0 l 304 563 l 204 379 l 204 0 l 97 0 z "},"Ǩ":{"ha":657,"x_min":97,"x_max":656,"o":"m 97 0 l 97 1125 l 204 1125 l 204 531 l 504 1125 l 606 1125 l 375 642 l 656 0 l 551 0 l 304 563 l 204 379 l 204 0 l 97 0 m 283 1215 l 165 1447 l 247 1447 l 329 1281 l 411 1447 l 493 1447 l 374 1215 l 283 1215 z "},"Ķ":{"ha":657,"x_min":97,"x_max":656,"o":"m 97 0 l 97 1125 l 204 1125 l 204 531 l 504 1125 l 606 1125 l 375 642 l 656 0 l 551 0 l 304 563 l 204 379 l 204 0 l 97 0 m 294 -358 l 269 -312 q 322 -266 308 -296 q 335 -207 335 -236 l 275 -207 l 275 -85 l 389 -85 l 388 -192 q 369 -301 388 -260 q 294 -358 351 -342 z "},"L":{"ha":531,"x_min":99,"x_max":524,"o":"m 99 0 l 99 1125 l 204 1125 l 204 79 l 524 79 l 524 0 l 99 0 z "},"Ǉ":{"ha":918,"x_min":99,"x_max":819,"o":"m 99 0 l 99 1125 l 204 1125 l 204 79 l 524 79 l 524 0 l 99 0 m 542 -49 l 542 31 q 634 38 600 31 q 685 67 668 46 q 708 126 703 88 q 714 226 714 165 l 714 1125 l 819 1125 l 819 221 q 803 68 819 128 q 738 -20 786 8 q 593 -49 689 -49 l 542 -49 z "},"Ĺ":{"ha":531,"x_min":99,"x_max":524,"o":"m 99 0 l 99 1125 l 204 1125 l 204 79 l 524 79 l 524 0 l 99 0 m 125 1192 l 213 1464 l 314 1464 l 178 1192 l 125 1192 z "},"Ľ":{"ha":531,"x_min":99,"x_max":524,"o":"m 99 0 l 99 1125 l 204 1125 l 204 79 l 524 79 l 524 0 l 99 0 m 426 813 l 406 857 q 457 905 442 878 q 472 974 472 932 l 411 974 l 411 1125 l 524 1125 l 524 985 q 501 878 524 917 q 426 813 479 839 z "},"Ļ":{"ha":531,"x_min":99,"x_max":524,"o":"m 99 0 l 99 1125 l 204 1125 l 204 79 l 524 79 l 524 0 l 99 0 m 276 -358 l 251 -312 q 303 -266 290 -296 q 317 -207 317 -236 l 257 -207 l 257 -85 l 371 -85 l 369 -192 q 351 -301 369 -260 q 276 -358 333 -342 z "},"Ŀ":{"ha":531,"x_min":99,"x_max":524,"o":"m 99 0 l 99 1125 l 204 1125 l 204 79 l 524 79 l 524 0 l 99 0 m 375 536 l 375 658 l 457 658 l 457 536 l 375 536 z "},"ǈ":{"ha":826,"x_min":99,"x_max":739,"o":"m 99 0 l 99 1125 l 204 1125 l 204 79 l 524 79 l 524 0 l 99 0 m 561 -211 q 533 -210 551 -211 q 507 -206 515 -208 l 507 -128 q 524 -130 511 -129 q 542 -131 538 -131 q 605 -115 585 -131 q 631 -73 625 -99 q 638 -19 638 -47 l 638 803 l 739 803 l 739 -28 q 692 -167 739 -124 q 561 -211 644 -211 m 638 914 l 638 1051 l 739 1051 l 739 914 l 638 914 z "},"Ł":{"ha":531,"x_min":0,"x_max":524,"o":"m 99 0 l 99 550 l 0 499 l 0 582 l 99 635 l 99 1125 l 204 1125 l 204 692 l 364 776 l 364 693 l 204 608 l 204 79 l 524 79 l 524 0 l 99 0 z "},"M":{"ha":893,"x_min":89,"x_max":804,"o":"m 89 0 l 117 1125 l 222 1125 l 444 149 l 671 1125 l 776 1125 l 804 0 l 717 0 l 694 896 l 479 0 l 411 0 l 199 894 l 176 0 l 89 0 z "},"Ṁ":{"ha":893,"x_min":89,"x_max":804,"o":"m 89 0 l 117 1125 l 222 1125 l 444 149 l 671 1125 l 776 1125 l 804 0 l 717 0 l 694 896 l 479 0 l 411 0 l 199 894 l 176 0 l 89 0 m 392 1258 l 392 1411 l 500 1411 l 500 1258 l 392 1258 z "},"N":{"ha":722,"x_min":99,"x_max":625,"o":"m 99 0 l 99 1125 l 175 1125 l 533 251 l 533 1125 l 625 1125 l 625 0 l 550 0 l 190 883 l 190 0 l 99 0 z "},"Ǌ":{"ha":1108,"x_min":99,"x_max":1011,"o":"m 99 0 l 99 1125 l 175 1125 l 533 251 l 533 1125 l 625 1125 l 625 0 l 550 0 l 190 883 l 190 0 l 99 0 m 733 -49 l 733 31 q 826 38 792 31 q 877 67 860 46 q 900 126 894 88 q 906 226 906 165 l 906 1125 l 1011 1125 l 1011 221 q 994 68 1011 128 q 929 -20 978 8 q 785 -49 881 -49 l 733 -49 z "},"Ń":{"ha":722,"x_min":99,"x_max":625,"o":"m 99 0 l 99 1125 l 175 1125 l 533 251 l 533 1125 l 625 1125 l 625 0 l 550 0 l 190 883 l 190 0 l 99 0 m 335 1192 l 422 1464 l 524 1464 l 388 1192 l 335 1192 z "},"Ň":{"ha":722,"x_min":99,"x_max":625,"o":"m 99 0 l 99 1125 l 175 1125 l 533 251 l 533 1125 l 625 1125 l 625 0 l 550 0 l 190 883 l 190 0 l 99 0 m 317 1215 l 199 1447 l 281 1447 l 363 1281 l 444 1447 l 526 1447 l 407 1215 l 317 1215 z "},"Ņ":{"ha":722,"x_min":99,"x_max":625,"o":"m 99 0 l 99 1125 l 175 1125 l 533 251 l 533 1125 l 625 1125 l 625 0 l 550 0 l 190 883 l 190 0 l 99 0 m 326 -358 l 301 -312 q 353 -266 340 -296 q 367 -207 367 -236 l 307 -207 l 307 -85 l 421 -85 l 419 -192 q 401 -301 419 -260 q 326 -358 383 -342 z "},"Ŋ":{"ha":743,"x_min":99,"x_max":625,"o":"m 388 -218 l 388 -144 q 485 -132 453 -144 q 526 -89 517 -119 q 536 -7 536 -58 l 536 32 l 185 883 l 185 0 l 99 0 l 99 1125 l 175 1125 l 539 251 l 539 1125 l 625 1125 l 625 0 q 609 -119 625 -71 q 552 -193 593 -168 q 433 -218 511 -218 l 388 -218 z "},"ǋ":{"ha":1017,"x_min":99,"x_max":931,"o":"m 99 0 l 99 1125 l 175 1125 l 533 251 l 533 1125 l 625 1125 l 625 0 l 550 0 l 190 883 l 190 0 l 99 0 m 753 -211 q 725 -210 743 -211 q 699 -206 707 -208 l 699 -128 q 716 -130 703 -129 q 733 -131 729 -131 q 797 -115 776 -131 q 823 -73 817 -99 q 829 -19 829 -47 l 829 803 l 931 803 l 931 -28 q 883 -167 931 -124 q 753 -211 836 -211 m 829 914 l 829 1051 l 931 1051 l 931 914 l 829 914 z "},"Ñ":{"ha":722,"x_min":99,"x_max":625,"o":"m 99 0 l 99 1125 l 175 1125 l 533 251 l 533 1125 l 625 1125 l 625 0 l 550 0 l 190 883 l 190 0 l 99 0 m 446 1283 q 386 1300 413 1283 q 337 1333 360 1317 q 289 1350 314 1350 q 255 1336 267 1350 q 243 1294 243 1322 l 181 1294 q 188 1347 181 1318 q 217 1396 196 1375 q 276 1417 238 1417 q 336 1401 310 1417 q 386 1368 363 1385 q 435 1351 410 1351 q 469 1365 458 1351 q 481 1411 481 1378 l 542 1411 q 535 1356 542 1386 q 508 1305 529 1326 q 446 1283 488 1283 z "},"O":{"ha":729,"x_min":75,"x_max":653,"o":"m 365 -14 q 190 30 253 -14 q 101 152 126 74 q 75 332 75 231 l 75 799 q 102 977 75 901 q 192 1094 129 1053 q 365 1136 256 1136 q 537 1094 474 1136 q 626 977 600 1053 q 653 799 653 901 l 653 331 q 627 152 653 229 q 539 31 601 75 q 365 -14 476 -14 m 365 71 q 478 101 439 71 q 531 184 517 131 q 546 308 546 238 l 546 818 q 531 942 546 889 q 478 1023 517 994 q 365 1051 439 1051 q 251 1023 290 1051 q 197 942 211 994 q 182 818 182 889 l 182 308 q 197 184 182 238 q 251 101 211 131 q 365 71 290 71 z "},"Ó":{"ha":729,"x_min":75,"x_max":653,"o":"m 365 -14 q 190 30 253 -14 q 101 152 126 74 q 75 332 75 231 l 75 799 q 102 977 75 901 q 192 1094 129 1053 q 365 1136 256 1136 q 537 1094 474 1136 q 626 977 600 1053 q 653 799 653 901 l 653 331 q 627 152 653 229 q 539 31 601 75 q 365 -14 476 -14 m 365 71 q 478 101 439 71 q 531 184 517 131 q 546 308 546 238 l 546 818 q 531 942 546 889 q 478 1023 517 994 q 365 1051 439 1051 q 251 1023 290 1051 q 197 942 211 994 q 182 818 182 889 l 182 308 q 197 184 182 238 q 251 101 211 131 q 365 71 290 71 m 339 1192 l 426 1464 l 528 1464 l 392 1192 l 339 1192 z "},"Ŏ":{"ha":729,"x_min":75,"x_max":653,"o":"m 365 -14 q 190 30 253 -14 q 101 152 126 74 q 75 332 75 231 l 75 799 q 102 977 75 901 q 192 1094 129 1053 q 365 1136 256 1136 q 537 1094 474 1136 q 626 977 600 1053 q 653 799 653 901 l 653 331 q 627 152 653 229 q 539 31 601 75 q 365 -14 476 -14 m 365 71 q 478 101 439 71 q 531 184 517 131 q 546 308 546 238 l 546 818 q 531 942 546 889 q 478 1023 517 994 q 365 1051 439 1051 q 251 1023 290 1051 q 197 942 211 994 q 182 818 182 889 l 182 308 q 197 184 182 238 q 251 101 211 131 q 365 71 290 71 m 364 1211 q 242 1255 283 1211 q 197 1378 200 1299 l 263 1378 q 291 1297 264 1322 q 364 1272 318 1272 q 438 1297 411 1272 q 468 1378 465 1322 l 532 1378 q 488 1255 531 1299 q 364 1211 446 1211 z "},"Ô":{"ha":729,"x_min":75,"x_max":653,"o":"m 365 -14 q 190 30 253 -14 q 101 152 126 74 q 75 332 75 231 l 75 799 q 102 977 75 901 q 192 1094 129 1053 q 365 1136 256 1136 q 537 1094 474 1136 q 626 977 600 1053 q 653 799 653 901 l 653 331 q 627 152 653 229 q 539 31 601 75 q 365 -14 476 -14 m 365 71 q 478 101 439 71 q 531 184 517 131 q 546 308 546 238 l 546 818 q 531 942 546 889 q 478 1023 517 994 q 365 1051 439 1051 q 251 1023 290 1051 q 197 942 211 994 q 182 818 182 889 l 182 308 q 197 184 182 238 q 251 101 211 131 q 365 71 290 71 m 189 1200 l 308 1447 l 422 1447 l 540 1200 l 465 1200 l 364 1396 l 264 1200 l 189 1200 z "},"Ố":{"ha":729,"x_min":75,"x_max":688,"o":"m 365 -14 q 190 30 253 -14 q 101 152 126 74 q 75 332 75 231 l 75 799 q 102 977 75 901 q 192 1094 129 1053 q 365 1136 256 1136 q 537 1094 474 1136 q 626 977 600 1053 q 653 799 653 901 l 653 331 q 627 152 653 229 q 539 31 601 75 q 365 -14 476 -14 m 365 71 q 478 101 439 71 q 531 184 517 131 q 546 308 546 238 l 546 818 q 531 942 546 889 q 478 1023 517 994 q 365 1051 439 1051 q 251 1023 290 1051 q 197 942 211 994 q 182 818 182 889 l 182 308 q 197 184 182 238 q 251 101 211 131 q 365 71 290 71 m 189 1200 l 308 1403 l 422 1403 l 542 1200 l 467 1200 l 365 1353 l 264 1200 l 189 1200 m 521 1332 l 594 1492 l 688 1492 l 589 1332 l 521 1332 z "},"Ộ":{"ha":729,"x_min":75,"x_max":653,"o":"m 365 -14 q 190 30 253 -14 q 101 152 126 74 q 75 332 75 231 l 75 799 q 102 977 75 901 q 192 1094 129 1053 q 365 1136 256 1136 q 537 1094 474 1136 q 626 977 600 1053 q 653 799 653 901 l 653 331 q 627 152 653 229 q 539 31 601 75 q 365 -14 476 -14 m 365 71 q 478 101 439 71 q 531 184 517 131 q 546 308 546 238 l 546 818 q 531 942 546 889 q 478 1023 517 994 q 365 1051 439 1051 q 251 1023 290 1051 q 197 942 211 994 q 182 818 182 889 l 182 308 q 197 184 182 238 q 251 101 211 131 q 365 71 290 71 m 189 1200 l 308 1403 l 422 1403 l 542 1200 l 467 1200 l 365 1353 l 264 1200 l 189 1200 m 311 -208 l 311 -85 l 419 -85 l 419 -208 l 311 -208 z "},"Ồ":{"ha":729,"x_min":75,"x_max":653,"o":"m 365 -14 q 190 30 253 -14 q 101 152 126 74 q 75 332 75 231 l 75 799 q 102 977 75 901 q 192 1094 129 1053 q 365 1136 256 1136 q 537 1094 474 1136 q 626 977 600 1053 q 653 799 653 901 l 653 331 q 627 152 653 229 q 539 31 601 75 q 365 -14 476 -14 m 365 71 q 478 101 439 71 q 531 184 517 131 q 546 308 546 238 l 546 818 q 531 942 546 889 q 478 1023 517 994 q 365 1051 439 1051 q 251 1023 290 1051 q 197 942 211 994 q 182 818 182 889 l 182 308 q 197 184 182 238 q 251 101 211 131 q 365 71 290 71 m 189 1200 l 308 1403 l 422 1403 l 542 1200 l 467 1200 l 365 1353 l 264 1200 l 189 1200 m 557 1332 l 457 1492 l 550 1492 l 624 1332 l 557 1332 z "},"Ổ":{"ha":729,"x_min":75,"x_max":653,"o":"m 365 -14 q 190 30 253 -14 q 101 152 126 74 q 75 332 75 231 l 75 799 q 102 977 75 901 q 192 1094 129 1053 q 365 1136 256 1136 q 537 1094 474 1136 q 626 977 600 1053 q 653 799 653 901 l 653 331 q 627 152 653 229 q 539 31 601 75 q 365 -14 476 -14 m 365 71 q 478 101 439 71 q 531 184 517 131 q 546 308 546 238 l 546 818 q 531 942 546 889 q 478 1023 517 994 q 365 1051 439 1051 q 251 1023 290 1051 q 197 942 211 994 q 182 818 182 889 l 182 308 q 197 184 182 238 q 251 101 211 131 q 365 71 290 71 m 546 1319 l 508 1360 q 557 1395 540 1378 q 574 1438 574 1413 q 556 1474 574 1463 q 511 1486 539 1486 q 480 1484 496 1486 q 447 1476 464 1482 l 447 1529 q 491 1539 469 1536 q 533 1542 513 1542 q 619 1517 586 1542 q 651 1444 651 1493 q 620 1368 651 1396 q 546 1319 589 1340 m 189 1200 l 308 1403 l 422 1403 l 542 1200 l 467 1200 l 365 1353 l 264 1200 l 189 1200 z "},"Ỗ":{"ha":729,"x_min":75,"x_max":653,"o":"m 365 -14 q 190 30 253 -14 q 101 152 126 74 q 75 332 75 231 l 75 799 q 102 977 75 901 q 192 1094 129 1053 q 365 1136 256 1136 q 537 1094 474 1136 q 626 977 600 1053 q 653 799 653 901 l 653 331 q 627 152 653 229 q 539 31 601 75 q 365 -14 476 -14 m 365 71 q 478 101 439 71 q 531 184 517 131 q 546 308 546 238 l 546 818 q 531 942 546 889 q 478 1023 517 994 q 365 1051 439 1051 q 251 1023 290 1051 q 197 942 211 994 q 182 818 182 889 l 182 308 q 197 184 182 238 q 251 101 211 131 q 365 71 290 71 m 189 1200 l 308 1403 l 422 1403 l 542 1200 l 467 1200 l 365 1353 l 264 1200 l 189 1200 m 450 1469 q 390 1486 417 1469 q 341 1519 364 1503 q 293 1536 318 1536 q 259 1522 271 1536 q 247 1481 247 1508 l 185 1481 q 192 1533 185 1504 q 221 1582 200 1561 q 281 1603 242 1603 q 340 1587 314 1603 q 390 1554 367 1571 q 439 1538 414 1538 q 474 1551 463 1538 q 485 1597 485 1564 l 546 1597 q 540 1542 546 1572 q 513 1491 533 1513 q 450 1469 492 1469 z "},"Ȍ":{"ha":729,"x_min":75,"x_max":653,"o":"m 365 -14 q 190 30 253 -14 q 101 152 126 74 q 75 332 75 231 l 75 799 q 102 977 75 901 q 192 1094 129 1053 q 365 1136 256 1136 q 537 1094 474 1136 q 626 977 600 1053 q 653 799 653 901 l 653 331 q 627 152 653 229 q 539 31 601 75 q 365 -14 476 -14 m 365 71 q 478 101 439 71 q 531 184 517 131 q 546 308 546 238 l 546 818 q 531 942 546 889 q 478 1023 517 994 q 365 1051 439 1051 q 251 1023 290 1051 q 197 942 211 994 q 182 818 182 889 l 182 308 q 197 184 182 238 q 251 101 211 131 q 365 71 290 71 m 261 1231 l 128 1447 l 236 1447 l 314 1231 l 261 1231 m 413 1231 l 317 1447 l 407 1447 l 464 1231 l 413 1231 z "},"Ö":{"ha":729,"x_min":75,"x_max":653,"o":"m 365 -14 q 190 30 253 -14 q 101 152 126 74 q 75 332 75 231 l 75 799 q 102 977 75 901 q 192 1094 129 1053 q 365 1136 256 1136 q 537 1094 474 1136 q 626 977 600 1053 q 653 799 653 901 l 653 331 q 627 152 653 229 q 539 31 601 75 q 365 -14 476 -14 m 365 71 q 478 101 439 71 q 531 184 517 131 q 546 308 546 238 l 546 818 q 531 942 546 889 q 478 1023 517 994 q 365 1051 439 1051 q 251 1023 290 1051 q 197 942 211 994 q 182 818 182 889 l 182 308 q 197 184 182 238 q 251 101 211 131 q 365 71 290 71 m 428 1324 l 428 1447 l 532 1447 l 532 1324 l 428 1324 m 199 1324 l 199 1447 l 303 1447 l 303 1324 l 199 1324 z "},"Ȫ":{"ha":729,"x_min":75,"x_max":653,"o":"m 365 -14 q 190 30 253 -14 q 101 152 126 74 q 75 332 75 231 l 75 799 q 102 977 75 901 q 192 1094 129 1053 q 365 1136 256 1136 q 537 1094 474 1136 q 626 977 600 1053 q 653 799 653 901 l 653 331 q 627 152 653 229 q 539 31 601 75 q 365 -14 476 -14 m 365 71 q 478 101 439 71 q 531 184 517 131 q 546 308 546 238 l 546 818 q 531 942 546 889 q 478 1023 517 994 q 365 1051 439 1051 q 251 1023 290 1051 q 197 942 211 994 q 182 818 182 889 l 182 308 q 197 184 182 238 q 251 101 211 131 q 365 71 290 71 m 428 1324 l 428 1447 l 532 1447 l 532 1324 l 428 1324 m 199 1324 l 199 1447 l 303 1447 l 303 1324 l 199 1324 m 240 1608 l 240 1678 l 490 1678 l 490 1608 l 240 1608 z "},"Ȱ":{"ha":729,"x_min":75,"x_max":653,"o":"m 365 -14 q 190 30 253 -14 q 101 152 126 74 q 75 332 75 231 l 75 799 q 102 977 75 901 q 192 1094 129 1053 q 365 1136 256 1136 q 537 1094 474 1136 q 626 977 600 1053 q 653 799 653 901 l 653 331 q 627 152 653 229 q 539 31 601 75 q 365 -14 476 -14 m 365 71 q 478 101 439 71 q 531 184 517 131 q 546 308 546 238 l 546 818 q 531 942 546 889 q 478 1023 517 994 q 365 1051 439 1051 q 251 1023 290 1051 q 197 942 211 994 q 182 818 182 889 l 182 308 q 197 184 182 238 q 251 101 211 131 q 365 71 290 71 m 311 1258 l 311 1411 l 419 1411 l 419 1258 l 311 1258 m 240 1572 l 240 1642 l 490 1642 l 490 1572 l 240 1572 z "},"Ọ":{"ha":729,"x_min":75,"x_max":653,"o":"m 365 -14 q 190 30 253 -14 q 101 152 126 74 q 75 332 75 231 l 75 799 q 102 977 75 901 q 192 1094 129 1053 q 365 1136 256 1136 q 537 1094 474 1136 q 626 977 600 1053 q 653 799 653 901 l 653 331 q 627 152 653 229 q 539 31 601 75 q 365 -14 476 -14 m 365 71 q 478 101 439 71 q 531 184 517 131 q 546 308 546 238 l 546 818 q 531 942 546 889 q 478 1023 517 994 q 365 1051 439 1051 q 251 1023 290 1051 q 197 942 211 994 q 182 818 182 889 l 182 308 q 197 184 182 238 q 251 101 211 131 q 365 71 290 71 m 311 -208 l 311 -85 l 419 -85 l 419 -208 l 311 -208 z "},"Ò":{"ha":729,"x_min":75,"x_max":653,"o":"m 365 -14 q 190 30 253 -14 q 101 152 126 74 q 75 332 75 231 l 75 799 q 102 977 75 901 q 192 1094 129 1053 q 365 1136 256 1136 q 537 1094 474 1136 q 626 977 600 1053 q 653 799 653 901 l 653 331 q 627 152 653 229 q 539 31 601 75 q 365 -14 476 -14 m 365 71 q 478 101 439 71 q 531 184 517 131 q 546 308 546 238 l 546 818 q 531 942 546 889 q 478 1023 517 994 q 365 1051 439 1051 q 251 1023 290 1051 q 197 942 211 994 q 182 818 182 889 l 182 308 q 197 184 182 238 q 251 101 211 131 q 365 71 290 71 m 339 1192 l 211 1464 l 314 1464 l 390 1192 l 339 1192 z "},"Ỏ":{"ha":729,"x_min":75,"x_max":653,"o":"m 365 -14 q 190 30 253 -14 q 101 152 126 74 q 75 332 75 231 l 75 799 q 102 977 75 901 q 192 1094 129 1053 q 365 1136 256 1136 q 537 1094 474 1136 q 626 977 600 1053 q 653 799 653 901 l 653 331 q 627 152 653 229 q 539 31 601 75 q 365 -14 476 -14 m 365 71 q 478 101 439 71 q 531 184 517 131 q 546 308 546 238 l 546 818 q 531 942 546 889 q 478 1023 517 994 q 365 1051 439 1051 q 251 1023 290 1051 q 197 942 211 994 q 182 818 182 889 l 182 308 q 197 184 182 238 q 251 101 211 131 q 365 71 290 71 m 365 1226 l 328 1267 q 384 1303 364 1285 q 404 1344 404 1321 q 385 1383 404 1371 q 332 1394 367 1394 q 301 1392 317 1394 q 267 1386 285 1390 l 267 1439 q 356 1449 311 1449 q 422 1438 394 1449 q 465 1406 450 1428 q 481 1351 481 1385 q 465 1297 481 1319 q 424 1257 450 1274 q 365 1226 397 1240 z "},"Ơ":{"ha":729,"x_min":75,"x_max":653,"o":"m 365 -14 q 190 30 253 -14 q 101 152 126 74 q 75 332 75 231 l 75 799 q 102 977 75 901 q 192 1094 129 1053 q 365 1136 256 1136 q 537 1094 474 1136 q 626 977 600 1053 q 653 799 653 901 l 653 331 q 627 152 653 229 q 539 31 601 75 q 365 -14 476 -14 m 365 71 q 478 101 439 71 q 531 184 517 131 q 546 308 546 238 l 546 818 q 531 942 546 889 q 478 1023 517 994 q 365 1051 439 1051 q 251 1023 290 1051 q 197 942 211 994 q 182 818 182 889 l 182 308 q 197 184 182 238 q 251 101 211 131 q 365 71 290 71 m 435 1067 l 435 1125 l 463 1125 q 521 1149 504 1125 q 538 1218 538 1172 l 617 1218 q 577 1104 617 1142 q 465 1067 538 1067 l 435 1067 z "},"Ớ":{"ha":729,"x_min":75,"x_max":653,"o":"m 365 -14 q 190 30 253 -14 q 101 152 126 74 q 75 332 75 231 l 75 799 q 102 977 75 901 q 192 1094 129 1053 q 365 1136 256 1136 q 537 1094 474 1136 q 626 977 600 1053 q 653 799 653 901 l 653 331 q 627 152 653 229 q 539 31 601 75 q 365 -14 476 -14 m 365 71 q 478 101 439 71 q 531 184 517 131 q 546 308 546 238 l 546 818 q 531 942 546 889 q 478 1023 517 994 q 365 1051 439 1051 q 251 1023 290 1051 q 197 942 211 994 q 182 818 182 889 l 182 308 q 197 184 182 238 q 251 101 211 131 q 365 71 290 71 m 435 1067 l 435 1125 l 463 1125 q 521 1149 504 1125 q 538 1218 538 1172 l 617 1218 q 577 1104 617 1142 q 465 1067 538 1067 l 435 1067 m 339 1192 l 426 1464 l 528 1464 l 392 1192 l 339 1192 z "},"Ợ":{"ha":729,"x_min":75,"x_max":653,"o":"m 365 -14 q 190 30 253 -14 q 101 152 126 74 q 75 332 75 231 l 75 799 q 102 977 75 901 q 192 1094 129 1053 q 365 1136 256 1136 q 537 1094 474 1136 q 626 977 600 1053 q 653 799 653 901 l 653 331 q 627 152 653 229 q 539 31 601 75 q 365 -14 476 -14 m 365 71 q 478 101 439 71 q 531 184 517 131 q 546 308 546 238 l 546 818 q 531 942 546 889 q 478 1023 517 994 q 365 1051 439 1051 q 251 1023 290 1051 q 197 942 211 994 q 182 818 182 889 l 182 308 q 197 184 182 238 q 251 101 211 131 q 365 71 290 71 m 435 1067 l 435 1125 l 463 1125 q 521 1149 504 1125 q 538 1218 538 1172 l 617 1218 q 577 1104 617 1142 q 465 1067 538 1067 l 435 1067 m 311 -208 l 311 -85 l 419 -85 l 419 -208 l 311 -208 z "},"Ờ":{"ha":729,"x_min":75,"x_max":653,"o":"m 365 -14 q 190 30 253 -14 q 101 152 126 74 q 75 332 75 231 l 75 799 q 102 977 75 901 q 192 1094 129 1053 q 365 1136 256 1136 q 537 1094 474 1136 q 626 977 600 1053 q 653 799 653 901 l 653 331 q 627 152 653 229 q 539 31 601 75 q 365 -14 476 -14 m 365 71 q 478 101 439 71 q 531 184 517 131 q 546 308 546 238 l 546 818 q 531 942 546 889 q 478 1023 517 994 q 365 1051 439 1051 q 251 1023 290 1051 q 197 942 211 994 q 182 818 182 889 l 182 308 q 197 184 182 238 q 251 101 211 131 q 365 71 290 71 m 435 1067 l 435 1125 l 463 1125 q 521 1149 504 1125 q 538 1218 538 1172 l 617 1218 q 577 1104 617 1142 q 465 1067 538 1067 l 435 1067 m 339 1192 l 211 1464 l 314 1464 l 390 1192 l 339 1192 z "},"Ở":{"ha":729,"x_min":75,"x_max":653,"o":"m 365 -14 q 190 30 253 -14 q 101 152 126 74 q 75 332 75 231 l 75 799 q 102 977 75 901 q 192 1094 129 1053 q 365 1136 256 1136 q 537 1094 474 1136 q 626 977 600 1053 q 653 799 653 901 l 653 331 q 627 152 653 229 q 539 31 601 75 q 365 -14 476 -14 m 365 71 q 478 101 439 71 q 531 184 517 131 q 546 308 546 238 l 546 818 q 531 942 546 889 q 478 1023 517 994 q 365 1051 439 1051 q 251 1023 290 1051 q 197 942 211 994 q 182 818 182 889 l 182 308 q 197 184 182 238 q 251 101 211 131 q 365 71 290 71 m 435 1067 l 435 1125 l 463 1125 q 521 1149 504 1125 q 538 1218 538 1172 l 617 1218 q 577 1104 617 1142 q 465 1067 538 1067 l 435 1067 m 365 1226 l 328 1267 q 384 1303 364 1285 q 404 1344 404 1321 q 385 1383 404 1371 q 332 1394 367 1394 q 301 1392 317 1394 q 267 1386 285 1390 l 267 1439 q 356 1449 311 1449 q 422 1438 394 1449 q 465 1406 450 1428 q 481 1351 481 1385 q 465 1297 481 1319 q 424 1257 450 1274 q 365 1226 397 1240 z "},"Ỡ":{"ha":729,"x_min":75,"x_max":653,"o":"m 365 -14 q 190 30 253 -14 q 101 152 126 74 q 75 332 75 231 l 75 799 q 102 977 75 901 q 192 1094 129 1053 q 365 1136 256 1136 q 537 1094 474 1136 q 626 977 600 1053 q 653 799 653 901 l 653 331 q 627 152 653 229 q 539 31 601 75 q 365 -14 476 -14 m 365 71 q 478 101 439 71 q 531 184 517 131 q 546 308 546 238 l 546 818 q 531 942 546 889 q 478 1023 517 994 q 365 1051 439 1051 q 251 1023 290 1051 q 197 942 211 994 q 182 818 182 889 l 182 308 q 197 184 182 238 q 251 101 211 131 q 365 71 290 71 m 435 1067 l 435 1125 l 463 1125 q 521 1149 504 1125 q 538 1218 538 1172 l 617 1218 q 577 1104 617 1142 q 465 1067 538 1067 l 435 1067 m 450 1283 q 390 1300 417 1283 q 341 1333 364 1317 q 293 1350 318 1350 q 259 1336 271 1350 q 247 1294 247 1322 l 185 1294 q 192 1347 185 1318 q 221 1396 200 1375 q 281 1417 242 1417 q 340 1401 314 1417 q 390 1368 367 1385 q 439 1351 414 1351 q 474 1365 463 1351 q 485 1411 485 1378 l 546 1411 q 540 1356 546 1386 q 513 1305 533 1326 q 450 1283 492 1283 z "},"Ő":{"ha":729,"x_min":75,"x_max":653,"o":"m 365 -14 q 190 30 253 -14 q 101 152 126 74 q 75 332 75 231 l 75 799 q 102 977 75 901 q 192 1094 129 1053 q 365 1136 256 1136 q 537 1094 474 1136 q 626 977 600 1053 q 653 799 653 901 l 653 331 q 627 152 653 229 q 539 31 601 75 q 365 -14 476 -14 m 365 71 q 478 101 439 71 q 531 184 517 131 q 546 308 546 238 l 546 818 q 531 942 546 889 q 478 1023 517 994 q 365 1051 439 1051 q 251 1023 290 1051 q 197 942 211 994 q 182 818 182 889 l 182 308 q 197 184 182 238 q 251 101 211 131 q 365 71 290 71 m 418 1235 l 494 1457 l 604 1457 l 474 1235 l 418 1235 m 275 1235 l 329 1457 l 421 1457 l 329 1235 l 275 1235 z "},"Ȏ":{"ha":729,"x_min":75,"x_max":653,"o":"m 365 -14 q 190 30 253 -14 q 101 152 126 74 q 75 332 75 231 l 75 799 q 102 977 75 901 q 192 1094 129 1053 q 365 1136 256 1136 q 537 1094 474 1136 q 626 977 600 1053 q 653 799 653 901 l 653 331 q 627 152 653 229 q 539 31 601 75 q 365 -14 476 -14 m 365 71 q 478 101 439 71 q 531 184 517 131 q 546 308 546 238 l 546 818 q 531 942 546 889 q 478 1023 517 994 q 365 1051 439 1051 q 251 1023 290 1051 q 197 942 211 994 q 182 818 182 889 l 182 308 q 197 184 182 238 q 251 101 211 131 q 365 71 290 71 m 197 1274 q 218 1367 200 1328 q 273 1426 236 1406 q 365 1447 310 1447 q 459 1426 422 1447 q 514 1367 496 1406 q 533 1274 532 1328 l 468 1274 q 440 1360 467 1336 q 365 1385 413 1385 q 292 1360 319 1385 q 263 1274 265 1335 l 197 1274 z "},"Ō":{"ha":729,"x_min":75,"x_max":653,"o":"m 365 -14 q 190 30 253 -14 q 101 152 126 74 q 75 332 75 231 l 75 799 q 102 977 75 901 q 192 1094 129 1053 q 365 1136 256 1136 q 537 1094 474 1136 q 626 977 600 1053 q 653 799 653 901 l 653 331 q 627 152 653 229 q 539 31 601 75 q 365 -14 476 -14 m 365 71 q 478 101 439 71 q 531 184 517 131 q 546 308 546 238 l 546 818 q 531 942 546 889 q 478 1023 517 994 q 365 1051 439 1051 q 251 1023 290 1051 q 197 942 211 994 q 182 818 182 889 l 182 308 q 197 184 182 238 q 251 101 211 131 q 365 71 290 71 m 240 1286 l 240 1356 l 490 1356 l 490 1286 l 240 1286 z "},"Ǫ":{"ha":729,"x_min":75,"x_max":653,"o":"m 365 -14 q 190 30 253 -14 q 101 152 126 74 q 75 332 75 231 l 75 799 q 102 977 75 901 q 192 1094 129 1053 q 365 1136 256 1136 q 537 1094 474 1136 q 626 977 600 1053 q 653 799 653 901 l 653 331 q 627 152 653 229 q 539 31 601 75 q 365 -14 476 -14 m 365 71 q 478 101 439 71 q 531 184 517 131 q 546 308 546 238 l 546 818 q 531 942 546 889 q 478 1023 517 994 q 365 1051 439 1051 q 251 1023 290 1051 q 197 942 211 994 q 182 818 182 889 l 182 308 q 197 184 182 238 q 251 101 211 131 q 365 71 290 71 m 431 -294 q 368 -288 397 -294 q 317 -269 339 -282 q 283 -233 294 -256 q 271 -181 271 -211 q 289 -108 271 -143 q 335 -45 307 -74 q 397 0 364 -17 l 451 0 q 402 -53 425 -25 q 365 -110 379 -81 q 350 -168 350 -139 q 381 -225 350 -210 q 454 -240 413 -240 q 471 -240 463 -240 q 486 -237 479 -239 l 471 -292 q 453 -294 464 -293 q 431 -294 442 -294 z "},"Ø":{"ha":735,"x_min":75,"x_max":653,"o":"m 196 -121 l 153 -108 l 531 1236 l 574 1225 l 196 -121 m 365 -14 q 190 30 253 -14 q 101 152 126 74 q 75 332 75 231 l 75 799 q 102 977 75 901 q 192 1094 129 1053 q 365 1136 256 1136 q 537 1094 474 1136 q 626 977 600 1053 q 653 799 653 901 l 653 331 q 627 152 653 229 q 539 31 601 75 q 365 -14 476 -14 m 365 71 q 478 101 439 71 q 531 184 517 131 q 546 308 546 238 l 546 818 q 531 942 546 889 q 478 1023 517 994 q 365 1051 439 1051 q 251 1023 290 1051 q 197 942 211 994 q 182 818 182 889 l 182 308 q 197 184 182 238 q 251 101 211 131 q 365 71 290 71 z "},"Ǿ":{"ha":735,"x_min":75,"x_max":653,"o":"m 196 -121 l 153 -108 l 531 1236 l 574 1225 l 196 -121 m 365 -14 q 190 30 253 -14 q 101 152 126 74 q 75 332 75 231 l 75 799 q 102 977 75 901 q 192 1094 129 1053 q 365 1136 256 1136 q 537 1094 474 1136 q 626 977 600 1053 q 653 799 653 901 l 653 331 q 627 152 653 229 q 539 31 601 75 q 365 -14 476 -14 m 365 71 q 478 101 439 71 q 531 184 517 131 q 546 308 546 238 l 546 818 q 531 942 546 889 q 478 1023 517 994 q 365 1051 439 1051 q 251 1023 290 1051 q 197 942 211 994 q 182 818 182 889 l 182 308 q 197 184 182 238 q 251 101 211 131 q 365 71 290 71 m 342 1192 l 429 1464 l 531 1464 l 394 1192 l 342 1192 z "},"Õ":{"ha":729,"x_min":75,"x_max":653,"o":"m 365 -14 q 190 30 253 -14 q 101 152 126 74 q 75 332 75 231 l 75 799 q 102 977 75 901 q 192 1094 129 1053 q 365 1136 256 1136 q 537 1094 474 1136 q 626 977 600 1053 q 653 799 653 901 l 653 331 q 627 152 653 229 q 539 31 601 75 q 365 -14 476 -14 m 365 71 q 478 101 439 71 q 531 184 517 131 q 546 308 546 238 l 546 818 q 531 942 546 889 q 478 1023 517 994 q 365 1051 439 1051 q 251 1023 290 1051 q 197 942 211 994 q 182 818 182 889 l 182 308 q 197 184 182 238 q 251 101 211 131 q 365 71 290 71 m 450 1283 q 390 1300 417 1283 q 341 1333 364 1317 q 293 1350 318 1350 q 259 1336 271 1350 q 247 1294 247 1322 l 185 1294 q 192 1347 185 1318 q 221 1396 200 1375 q 281 1417 242 1417 q 340 1401 314 1417 q 390 1368 367 1385 q 439 1351 414 1351 q 474 1365 463 1351 q 485 1411 485 1378 l 546 1411 q 540 1356 546 1386 q 513 1305 533 1326 q 450 1283 492 1283 z "},"Ȭ":{"ha":729,"x_min":75,"x_max":653,"o":"m 365 -14 q 190 30 253 -14 q 101 152 126 74 q 75 332 75 231 l 75 799 q 102 977 75 901 q 192 1094 129 1053 q 365 1136 256 1136 q 537 1094 474 1136 q 626 977 600 1053 q 653 799 653 901 l 653 331 q 627 152 653 229 q 539 31 601 75 q 365 -14 476 -14 m 365 71 q 478 101 439 71 q 531 184 517 131 q 546 308 546 238 l 546 818 q 531 942 546 889 q 478 1023 517 994 q 365 1051 439 1051 q 251 1023 290 1051 q 197 942 211 994 q 182 818 182 889 l 182 308 q 197 184 182 238 q 251 101 211 131 q 365 71 290 71 m 450 1283 q 390 1300 417 1283 q 341 1333 364 1317 q 293 1350 318 1350 q 259 1336 271 1350 q 247 1294 247 1322 l 185 1294 q 192 1347 185 1318 q 221 1396 200 1375 q 281 1417 242 1417 q 340 1401 314 1417 q 390 1368 367 1385 q 439 1351 414 1351 q 474 1365 463 1351 q 485 1411 485 1378 l 546 1411 q 540 1356 546 1386 q 513 1305 533 1326 q 450 1283 492 1283 m 240 1614 l 240 1683 l 490 1683 l 490 1614 l 240 1614 z "},"Œ":{"ha":894,"x_min":75,"x_max":854,"o":"m 382 0 q 198 40 265 0 q 103 154 131 81 q 75 328 75 228 l 75 785 q 103 967 75 890 q 198 1084 132 1043 q 375 1125 264 1125 l 851 1125 l 851 1042 l 579 1042 l 579 625 l 806 625 l 806 546 l 579 546 l 579 82 l 854 82 l 854 0 l 382 0 m 383 83 l 472 83 l 472 1044 l 382 1044 q 253 1012 296 1044 q 196 918 210 979 q 182 772 182 857 l 182 333 q 197 197 182 253 q 256 113 213 142 q 383 83 300 83 z "},"P":{"ha":671,"x_min":99,"x_max":635,"o":"m 99 0 l 99 1125 l 368 1125 q 528 1088 469 1125 q 610 983 586 1050 q 635 826 635 917 q 609 680 635 747 q 524 572 583 613 q 369 532 465 532 l 204 532 l 204 0 l 99 0 m 204 611 l 339 611 q 449 631 407 611 q 511 699 492 651 q 531 826 531 746 q 514 960 531 913 q 456 1027 497 1008 q 340 1046 415 1046 l 204 1046 l 204 611 z "},"Ṗ":{"ha":671,"x_min":99,"x_max":635,"o":"m 99 0 l 99 1125 l 368 1125 q 528 1088 469 1125 q 610 983 586 1050 q 635 826 635 917 q 609 680 635 747 q 524 572 583 613 q 369 532 465 532 l 204 532 l 204 0 l 99 0 m 204 611 l 339 611 q 449 631 407 611 q 511 699 492 651 q 531 826 531 746 q 514 960 531 913 q 456 1027 497 1008 q 340 1046 415 1046 l 204 1046 l 204 611 m 282 1258 l 282 1411 l 390 1411 l 390 1258 l 282 1258 z "},"Þ":{"ha":700,"x_min":99,"x_max":663,"o":"m 99 0 l 99 1125 l 204 1125 l 204 979 l 397 979 q 553 938 494 979 q 637 825 611 896 q 663 665 663 754 q 649 542 663 601 q 603 438 635 483 q 517 365 571 392 q 382 339 463 339 l 204 339 l 204 0 l 99 0 m 204 428 l 361 428 q 509 481 461 428 q 557 664 557 535 q 509 838 557 786 q 371 890 461 890 l 204 890 l 204 428 z "},"Q":{"ha":736,"x_min":75,"x_max":660,"o":"m 599 -221 q 535 -172 568 -204 q 467 -98 501 -140 q 403 -12 433 -56 q 385 -14 394 -14 q 367 -14 376 -14 q 192 30 256 -14 q 102 152 129 74 q 75 332 75 231 l 75 799 q 103 977 75 901 q 194 1094 131 1053 q 367 1136 258 1136 q 540 1094 476 1136 q 632 977 604 1053 q 660 799 660 901 l 660 331 q 643 184 660 250 q 588 72 626 118 q 483 4 550 25 q 524 -45 501 -18 q 572 -96 547 -72 q 613 -132 596 -119 l 599 -221 m 367 71 q 482 101 442 71 q 538 184 522 131 q 553 308 553 238 l 553 818 q 538 942 553 889 q 483 1023 522 994 q 367 1051 443 1051 q 253 1023 293 1051 q 198 942 214 994 q 182 818 182 889 l 182 308 q 198 184 182 238 q 253 101 214 131 q 367 71 293 71 z "},"R":{"ha":711,"x_min":99,"x_max":649,"o":"m 99 0 l 99 1125 l 353 1125 q 519 1091 458 1125 q 606 992 579 1057 q 632 839 632 928 q 618 721 632 776 q 571 626 604 665 q 476 575 538 588 l 649 0 l 546 0 l 381 553 l 204 553 l 204 0 l 99 0 m 204 631 l 347 631 q 457 654 418 631 q 513 724 496 678 q 529 839 529 769 q 493 994 529 943 q 350 1046 457 1046 l 204 1046 l 204 631 z "},"Ŕ":{"ha":711,"x_min":99,"x_max":649,"o":"m 99 0 l 99 1125 l 353 1125 q 519 1091 458 1125 q 606 992 579 1057 q 632 839 632 928 q 618 721 632 776 q 571 626 604 665 q 476 575 538 588 l 649 0 l 546 0 l 381 553 l 204 553 l 204 0 l 99 0 m 204 631 l 347 631 q 457 654 418 631 q 513 724 496 678 q 529 839 529 769 q 493 994 529 943 q 350 1046 457 1046 l 204 1046 l 204 631 m 329 1192 l 417 1464 l 518 1464 l 382 1192 l 329 1192 z "},"Ř":{"ha":711,"x_min":99,"x_max":649,"o":"m 99 0 l 99 1125 l 353 1125 q 519 1091 458 1125 q 606 992 579 1057 q 632 839 632 928 q 618 721 632 776 q 571 626 604 665 q 476 575 538 588 l 649 0 l 546 0 l 381 553 l 204 553 l 204 0 l 99 0 m 204 631 l 347 631 q 457 654 418 631 q 513 724 496 678 q 529 839 529 769 q 493 994 529 943 q 350 1046 457 1046 l 204 1046 l 204 631 m 311 1215 l 193 1447 l 275 1447 l 357 1281 l 439 1447 l 521 1447 l 401 1215 l 311 1215 z "},"Ŗ":{"ha":711,"x_min":99,"x_max":649,"o":"m 99 0 l 99 1125 l 353 1125 q 519 1091 458 1125 q 606 992 579 1057 q 632 839 632 928 q 618 721 632 776 q 571 626 604 665 q 476 575 538 588 l 649 0 l 546 0 l 381 553 l 204 553 l 204 0 l 99 0 m 204 631 l 347 631 q 457 654 418 631 q 513 724 496 678 q 529 839 529 769 q 493 994 529 943 q 350 1046 457 1046 l 204 1046 l 204 631 m 321 -358 l 296 -312 q 348 -266 335 -296 q 361 -207 361 -236 l 301 -207 l 301 -85 l 415 -85 l 414 -192 q 396 -301 414 -260 q 321 -358 378 -342 z "},"Ȑ":{"ha":711,"x_min":99,"x_max":649,"o":"m 99 0 l 99 1125 l 353 1125 q 519 1091 458 1125 q 606 992 579 1057 q 632 839 632 928 q 618 721 632 776 q 571 626 604 665 q 476 575 538 588 l 649 0 l 546 0 l 381 553 l 204 553 l 204 0 l 99 0 m 204 631 l 347 631 q 457 654 418 631 q 513 724 496 678 q 529 839 529 769 q 493 994 529 943 q 350 1046 457 1046 l 204 1046 l 204 631 m 251 1231 l 118 1447 l 226 1447 l 304 1231 l 251 1231 m 403 1231 l 307 1447 l 397 1447 l 454 1231 l 403 1231 z "},"Ȓ":{"ha":711,"x_min":99,"x_max":649,"o":"m 99 0 l 99 1125 l 353 1125 q 519 1091 458 1125 q 606 992 579 1057 q 632 839 632 928 q 618 721 632 776 q 571 626 604 665 q 476 575 538 588 l 649 0 l 546 0 l 381 553 l 204 553 l 204 0 l 99 0 m 204 631 l 347 631 q 457 654 418 631 q 513 724 496 678 q 529 839 529 769 q 493 994 529 943 q 350 1046 457 1046 l 204 1046 l 204 631 m 188 1274 q 208 1367 190 1328 q 263 1426 226 1406 q 356 1447 300 1447 q 449 1426 413 1447 q 504 1367 486 1406 q 524 1274 522 1328 l 458 1274 q 430 1360 457 1336 q 356 1385 403 1385 q 283 1360 310 1385 q 253 1274 256 1335 l 188 1274 z "},"S":{"ha":639,"x_min":57,"x_max":596,"o":"m 338 -14 q 185 24 246 -14 q 94 131 125 63 q 57 292 64 200 l 150 319 q 175 194 157 250 q 232 105 193 138 q 339 72 271 72 q 456 111 414 72 q 497 235 497 150 q 460 364 497 310 q 360 478 424 418 l 161 668 q 83 774 108 719 q 58 894 58 829 q 128 1074 58 1011 q 313 1136 197 1136 q 420 1121 372 1136 q 502 1072 468 1106 q 556 983 536 1038 q 582 851 575 929 l 492 828 q 469 949 486 899 q 415 1026 451 1000 q 313 1053 378 1053 q 199 1017 243 1053 q 154 904 154 981 q 172 821 154 858 q 233 740 189 783 l 432 553 q 547 414 499 490 q 596 242 596 338 q 563 100 596 157 q 472 15 531 43 q 338 -14 414 -14 z "},"Ś":{"ha":639,"x_min":57,"x_max":596,"o":"m 338 -14 q 185 24 246 -14 q 94 131 125 63 q 57 292 64 200 l 150 319 q 175 194 157 250 q 232 105 193 138 q 339 72 271 72 q 456 111 414 72 q 497 235 497 150 q 460 364 497 310 q 360 478 424 418 l 161 668 q 83 774 108 719 q 58 894 58 829 q 128 1074 58 1011 q 313 1136 197 1136 q 420 1121 372 1136 q 502 1072 468 1106 q 556 983 536 1038 q 582 851 575 929 l 492 828 q 469 949 486 899 q 415 1026 451 1000 q 313 1053 378 1053 q 199 1017 243 1053 q 154 904 154 981 q 172 821 154 858 q 233 740 189 783 l 432 553 q 547 414 499 490 q 596 242 596 338 q 563 100 596 157 q 472 15 531 43 q 338 -14 414 -14 m 293 1192 l 381 1464 l 482 1464 l 346 1192 l 293 1192 z "},"Š":{"ha":639,"x_min":57,"x_max":596,"o":"m 338 -14 q 185 24 246 -14 q 94 131 125 63 q 57 292 64 200 l 150 319 q 175 194 157 250 q 232 105 193 138 q 339 72 271 72 q 456 111 414 72 q 497 235 497 150 q 460 364 497 310 q 360 478 424 418 l 161 668 q 83 774 108 719 q 58 894 58 829 q 128 1074 58 1011 q 313 1136 197 1136 q 420 1121 372 1136 q 502 1072 468 1106 q 556 983 536 1038 q 582 851 575 929 l 492 828 q 469 949 486 899 q 415 1026 451 1000 q 313 1053 378 1053 q 199 1017 243 1053 q 154 904 154 981 q 172 821 154 858 q 233 740 189 783 l 432 553 q 547 414 499 490 q 596 242 596 338 q 563 100 596 157 q 472 15 531 43 q 338 -14 414 -14 m 274 1215 l 156 1447 l 238 1447 l 319 1281 l 401 1447 l 483 1447 l 364 1215 l 274 1215 z "},"Ş":{"ha":639,"x_min":57,"x_max":596,"o":"m 338 -14 q 185 24 246 -14 q 94 131 125 63 q 57 292 64 200 l 150 319 q 175 194 157 250 q 232 105 193 138 q 339 72 271 72 q 456 111 414 72 q 497 235 497 150 q 460 364 497 310 q 360 478 424 418 l 161 668 q 83 774 108 719 q 58 894 58 829 q 128 1074 58 1011 q 313 1136 197 1136 q 420 1121 372 1136 q 502 1072 468 1106 q 556 983 536 1038 q 582 851 575 929 l 492 828 q 469 949 486 899 q 415 1026 451 1000 q 313 1053 378 1053 q 199 1017 243 1053 q 154 904 154 981 q 172 821 154 858 q 233 740 189 783 l 432 553 q 547 414 499 490 q 596 242 596 338 q 563 100 596 157 q 472 15 531 43 q 338 -14 414 -14 m 319 -283 q 290 -281 306 -283 q 260 -276 275 -279 l 260 -224 q 283 -228 271 -226 q 306 -229 294 -229 q 372 -216 349 -229 q 396 -172 396 -203 q 384 -136 396 -150 q 349 -113 372 -122 q 293 -100 326 -104 l 293 0 l 346 0 l 346 -69 q 442 -100 410 -72 q 474 -174 474 -128 q 455 -235 474 -210 q 401 -272 436 -260 q 319 -283 367 -283 z "},"Ŝ":{"ha":639,"x_min":57,"x_max":596,"o":"m 338 -14 q 185 24 246 -14 q 94 131 125 63 q 57 292 64 200 l 150 319 q 175 194 157 250 q 232 105 193 138 q 339 72 271 72 q 456 111 414 72 q 497 235 497 150 q 460 364 497 310 q 360 478 424 418 l 161 668 q 83 774 108 719 q 58 894 58 829 q 128 1074 58 1011 q 313 1136 197 1136 q 420 1121 372 1136 q 502 1072 468 1106 q 556 983 536 1038 q 582 851 575 929 l 492 828 q 469 949 486 899 q 415 1026 451 1000 q 313 1053 378 1053 q 199 1017 243 1053 q 154 904 154 981 q 172 821 154 858 q 233 740 189 783 l 432 553 q 547 414 499 490 q 596 242 596 338 q 563 100 596 157 q 472 15 531 43 q 338 -14 414 -14 m 143 1200 l 263 1447 l 376 1447 l 494 1200 l 419 1200 l 318 1396 l 218 1200 l 143 1200 z "},"Ș":{"ha":639,"x_min":57,"x_max":596,"o":"m 338 -14 q 185 24 246 -14 q 94 131 125 63 q 57 292 64 200 l 150 319 q 175 194 157 250 q 232 105 193 138 q 339 72 271 72 q 456 111 414 72 q 497 235 497 150 q 460 364 497 310 q 360 478 424 418 l 161 668 q 83 774 108 719 q 58 894 58 829 q 128 1074 58 1011 q 313 1136 197 1136 q 420 1121 372 1136 q 502 1072 468 1106 q 556 983 536 1038 q 582 851 575 929 l 492 828 q 469 949 486 899 q 415 1026 451 1000 q 313 1053 378 1053 q 199 1017 243 1053 q 154 904 154 981 q 172 821 154 858 q 233 740 189 783 l 432 553 q 547 414 499 490 q 596 242 596 338 q 563 100 596 157 q 472 15 531 43 q 338 -14 414 -14 m 285 -358 l 260 -312 q 312 -266 299 -296 q 325 -207 325 -236 l 265 -207 l 265 -85 l 379 -85 l 378 -192 q 360 -301 378 -260 q 285 -358 342 -342 z "},"Ṡ":{"ha":639,"x_min":57,"x_max":596,"o":"m 338 -14 q 185 24 246 -14 q 94 131 125 63 q 57 292 64 200 l 150 319 q 175 194 157 250 q 232 105 193 138 q 339 72 271 72 q 456 111 414 72 q 497 235 497 150 q 460 364 497 310 q 360 478 424 418 l 161 668 q 83 774 108 719 q 58 894 58 829 q 128 1074 58 1011 q 313 1136 197 1136 q 420 1121 372 1136 q 502 1072 468 1106 q 556 983 536 1038 q 582 851 575 929 l 492 828 q 469 949 486 899 q 415 1026 451 1000 q 313 1053 378 1053 q 199 1017 243 1053 q 154 904 154 981 q 172 821 154 858 q 233 740 189 783 l 432 553 q 547 414 499 490 q 596 242 596 338 q 563 100 596 157 q 472 15 531 43 q 338 -14 414 -14 m 265 1258 l 265 1411 l 374 1411 l 374 1258 l 265 1258 z "},"ẞ":{"ha":713,"x_min":83,"x_max":667,"o":"m 324 -12 l 324 69 l 371 69 q 515 126 467 69 q 563 315 563 182 q 515 513 563 453 q 371 572 467 572 l 338 572 l 338 656 l 554 1021 q 485 1043 524 1035 q 400 1051 446 1051 q 244 994 299 1051 q 190 824 190 936 l 190 0 l 83 0 l 83 817 q 117 984 83 913 q 221 1096 151 1056 q 393 1136 290 1136 q 527 1121 468 1136 q 638 1079 586 1106 l 638 994 l 400 593 l 388 643 q 597 560 528 643 q 667 319 667 476 q 597 69 667 151 q 399 -12 528 -12 l 324 -12 z "},"Ə":{"ha":724,"x_min":69,"x_max":647,"o":"m 360 -14 q 184 30 247 -14 q 95 152 121 74 q 69 332 69 231 l 69 585 l 540 585 l 540 818 q 526 942 540 889 q 473 1023 511 994 q 360 1051 435 1051 q 245 1023 285 1051 q 191 942 206 994 q 176 818 176 889 l 176 714 l 69 714 l 69 799 q 97 977 69 901 q 186 1094 124 1053 q 360 1136 249 1136 q 531 1094 468 1136 q 621 977 594 1053 q 647 799 647 901 l 647 331 q 622 152 647 229 q 533 31 596 75 q 360 -14 471 -14 m 360 71 q 472 101 433 71 q 526 184 511 131 q 540 308 540 238 l 540 500 l 176 500 l 176 308 q 191 184 176 238 q 245 101 206 131 q 360 71 285 71 z "},"T":{"ha":575,"x_min":25,"x_max":550,"o":"m 238 0 l 238 1043 l 25 1043 l 25 1125 l 550 1125 l 550 1043 l 343 1043 l 343 0 l 238 0 z "},"Ŧ":{"ha":539,"x_min":25,"x_max":550,"o":"m 58 565 l 58 631 l 478 631 l 478 565 l 58 565 m 238 0 l 238 1043 l 25 1043 l 25 1125 l 550 1125 l 550 1043 l 343 1043 l 343 0 l 238 0 z "},"Ť":{"ha":568,"x_min":25,"x_max":550,"o":"m 238 0 l 238 1043 l 25 1043 l 25 1125 l 550 1125 l 550 1043 l 343 1043 l 343 0 l 238 0 m 239 1215 l 121 1447 l 203 1447 l 285 1281 l 367 1447 l 449 1447 l 329 1215 l 239 1215 z "},"Ţ":{"ha":568,"x_min":25,"x_max":550,"o":"m 238 0 l 238 1043 l 25 1043 l 25 1125 l 550 1125 l 550 1043 l 343 1043 l 343 0 l 238 0 m 283 -283 q 254 -281 269 -283 q 224 -276 239 -279 l 224 -224 q 247 -228 235 -226 q 269 -229 258 -229 q 336 -216 313 -229 q 360 -172 360 -203 q 348 -136 360 -150 q 313 -113 336 -122 q 257 -100 290 -104 l 257 0 l 310 0 l 310 -69 q 406 -100 374 -72 q 438 -174 438 -128 q 419 -235 438 -210 q 365 -272 400 -260 q 283 -283 331 -283 z "},"Ț":{"ha":568,"x_min":25,"x_max":550,"o":"m 238 0 l 238 1043 l 25 1043 l 25 1125 l 550 1125 l 550 1043 l 343 1043 l 343 0 l 238 0 m 249 -358 l 224 -312 q 276 -266 263 -296 q 289 -207 289 -236 l 229 -207 l 229 -85 l 343 -85 l 342 -192 q 324 -301 342 -260 q 249 -358 306 -342 z "},"Ṫ":{"ha":568,"x_min":25,"x_max":550,"o":"m 238 0 l 238 1043 l 25 1043 l 25 1125 l 550 1125 l 550 1043 l 343 1043 l 343 0 l 238 0 m 229 1258 l 229 1411 l 338 1411 l 338 1258 l 229 1258 z "},"U":{"ha":746,"x_min":86,"x_max":660,"o":"m 374 -14 q 197 27 260 -14 q 110 141 133 68 q 86 307 86 214 l 86 1125 l 189 1125 l 189 304 q 203 185 189 239 q 258 101 218 132 q 374 71 299 71 q 486 102 446 71 q 542 186 526 133 q 558 304 558 239 l 558 1125 l 660 1125 l 660 307 q 635 141 660 214 q 547 27 610 68 q 374 -14 485 -14 z "},"Ú":{"ha":746,"x_min":86,"x_max":660,"o":"m 374 -14 q 197 27 260 -14 q 110 141 133 68 q 86 307 86 214 l 86 1125 l 189 1125 l 189 304 q 203 185 189 239 q 258 101 218 132 q 374 71 299 71 q 486 102 446 71 q 542 186 526 133 q 558 304 558 239 l 558 1125 l 660 1125 l 660 307 q 635 141 660 214 q 547 27 610 68 q 374 -14 485 -14 m 347 1192 l 435 1464 l 536 1464 l 400 1192 l 347 1192 z "},"Ŭ":{"ha":746,"x_min":86,"x_max":660,"o":"m 374 -14 q 197 27 260 -14 q 110 141 133 68 q 86 307 86 214 l 86 1125 l 189 1125 l 189 304 q 203 185 189 239 q 258 101 218 132 q 374 71 299 71 q 486 102 446 71 q 542 186 526 133 q 558 304 558 239 l 558 1125 l 660 1125 l 660 307 q 635 141 660 214 q 547 27 610 68 q 374 -14 485 -14 m 372 1211 q 250 1255 292 1211 q 206 1378 208 1299 l 271 1378 q 299 1297 272 1322 q 372 1272 326 1272 q 447 1297 419 1272 q 476 1378 474 1322 l 540 1378 q 497 1255 539 1299 q 372 1211 454 1211 z "},"Ǔ":{"ha":746,"x_min":86,"x_max":660,"o":"m 374 -14 q 197 27 260 -14 q 110 141 133 68 q 86 307 86 214 l 86 1125 l 189 1125 l 189 304 q 203 185 189 239 q 258 101 218 132 q 374 71 299 71 q 486 102 446 71 q 542 186 526 133 q 558 304 558 239 l 558 1125 l 660 1125 l 660 307 q 635 141 660 214 q 547 27 610 68 q 374 -14 485 -14 m 328 1215 l 210 1447 l 292 1447 l 374 1281 l 456 1447 l 538 1447 l 418 1215 l 328 1215 z "},"Û":{"ha":746,"x_min":86,"x_max":660,"o":"m 374 -14 q 197 27 260 -14 q 110 141 133 68 q 86 307 86 214 l 86 1125 l 189 1125 l 189 304 q 203 185 189 239 q 258 101 218 132 q 374 71 299 71 q 486 102 446 71 q 542 186 526 133 q 558 304 558 239 l 558 1125 l 660 1125 l 660 307 q 635 141 660 214 q 547 27 610 68 q 374 -14 485 -14 m 197 1200 l 317 1447 l 431 1447 l 549 1200 l 474 1200 l 372 1396 l 272 1200 l 197 1200 z "},"Ȕ":{"ha":746,"x_min":86,"x_max":660,"o":"m 374 -14 q 197 27 260 -14 q 110 141 133 68 q 86 307 86 214 l 86 1125 l 189 1125 l 189 304 q 203 185 189 239 q 258 101 218 132 q 374 71 299 71 q 486 102 446 71 q 542 186 526 133 q 558 304 558 239 l 558 1125 l 660 1125 l 660 307 q 635 141 660 214 q 547 27 610 68 q 374 -14 485 -14 m 269 1231 l 136 1447 l 244 1447 l 322 1231 l 269 1231 m 421 1231 l 325 1447 l 415 1447 l 472 1231 l 421 1231 z "},"Ü":{"ha":746,"x_min":86,"x_max":660,"o":"m 374 -14 q 197 27 260 -14 q 110 141 133 68 q 86 307 86 214 l 86 1125 l 189 1125 l 189 304 q 203 185 189 239 q 258 101 218 132 q 374 71 299 71 q 486 102 446 71 q 542 186 526 133 q 558 304 558 239 l 558 1125 l 660 1125 l 660 307 q 635 141 660 214 q 547 27 610 68 q 374 -14 485 -14 m 438 1324 l 438 1447 l 542 1447 l 542 1324 l 438 1324 m 208 1324 l 208 1447 l 313 1447 l 313 1324 l 208 1324 z "},"Ụ":{"ha":746,"x_min":86,"x_max":660,"o":"m 374 -14 q 197 27 260 -14 q 110 141 133 68 q 86 307 86 214 l 86 1125 l 189 1125 l 189 304 q 203 185 189 239 q 258 101 218 132 q 374 71 299 71 q 486 102 446 71 q 542 186 526 133 q 558 304 558 239 l 558 1125 l 660 1125 l 660 307 q 635 141 660 214 q 547 27 610 68 q 374 -14 485 -14 m 319 -208 l 319 -85 l 428 -85 l 428 -208 l 319 -208 z "},"Ù":{"ha":746,"x_min":86,"x_max":660,"o":"m 374 -14 q 197 27 260 -14 q 110 141 133 68 q 86 307 86 214 l 86 1125 l 189 1125 l 189 304 q 203 185 189 239 q 258 101 218 132 q 374 71 299 71 q 486 102 446 71 q 542 186 526 133 q 558 304 558 239 l 558 1125 l 660 1125 l 660 307 q 635 141 660 214 q 547 27 610 68 q 374 -14 485 -14 m 347 1192 l 219 1464 l 322 1464 l 399 1192 l 347 1192 z "},"Ủ":{"ha":746,"x_min":86,"x_max":660,"o":"m 374 -14 q 197 27 260 -14 q 110 141 133 68 q 86 307 86 214 l 86 1125 l 189 1125 l 189 304 q 203 185 189 239 q 258 101 218 132 q 374 71 299 71 q 486 102 446 71 q 542 186 526 133 q 558 304 558 239 l 558 1125 l 660 1125 l 660 307 q 635 141 660 214 q 547 27 610 68 q 374 -14 485 -14 m 374 1226 l 336 1267 q 392 1303 372 1285 q 413 1344 413 1321 q 394 1383 413 1371 q 340 1394 375 1394 q 309 1392 325 1394 q 275 1386 293 1390 l 275 1439 q 364 1449 319 1449 q 431 1438 403 1449 q 474 1406 458 1428 q 489 1351 489 1385 q 474 1297 489 1319 q 432 1257 458 1274 q 374 1226 406 1240 z "},"Ư":{"ha":746,"x_min":86,"x_max":753,"o":"m 374 -14 q 197 27 260 -14 q 110 141 133 68 q 86 307 86 214 l 86 1125 l 189 1125 l 189 304 q 203 185 189 239 q 258 101 218 132 q 374 71 299 71 q 486 102 446 71 q 542 186 526 133 q 558 304 558 239 l 558 1125 l 660 1125 l 660 307 q 635 141 660 214 q 547 27 610 68 q 374 -14 485 -14 m 585 1067 l 585 1125 l 599 1125 q 657 1149 640 1125 q 674 1218 674 1172 l 753 1218 q 713 1104 753 1142 q 601 1067 674 1067 l 585 1067 z "},"Ứ":{"ha":746,"x_min":86,"x_max":753,"o":"m 374 -14 q 197 27 260 -14 q 110 141 133 68 q 86 307 86 214 l 86 1125 l 189 1125 l 189 304 q 203 185 189 239 q 258 101 218 132 q 374 71 299 71 q 486 102 446 71 q 542 186 526 133 q 558 304 558 239 l 558 1125 l 660 1125 l 660 307 q 635 141 660 214 q 547 27 610 68 q 374 -14 485 -14 m 585 1067 l 585 1125 l 599 1125 q 657 1149 640 1125 q 674 1218 674 1172 l 753 1218 q 713 1104 753 1142 q 601 1067 674 1067 l 585 1067 m 347 1192 l 435 1464 l 536 1464 l 400 1192 l 347 1192 z "},"Ự":{"ha":746,"x_min":86,"x_max":753,"o":"m 374 -14 q 197 27 260 -14 q 110 141 133 68 q 86 307 86 214 l 86 1125 l 189 1125 l 189 304 q 203 185 189 239 q 258 101 218 132 q 374 71 299 71 q 486 102 446 71 q 542 186 526 133 q 558 304 558 239 l 558 1125 l 660 1125 l 660 307 q 635 141 660 214 q 547 27 610 68 q 374 -14 485 -14 m 585 1067 l 585 1125 l 599 1125 q 657 1149 640 1125 q 674 1218 674 1172 l 753 1218 q 713 1104 753 1142 q 601 1067 674 1067 l 585 1067 m 319 -208 l 319 -85 l 428 -85 l 428 -208 l 319 -208 z "},"Ừ":{"ha":746,"x_min":86,"x_max":753,"o":"m 374 -14 q 197 27 260 -14 q 110 141 133 68 q 86 307 86 214 l 86 1125 l 189 1125 l 189 304 q 203 185 189 239 q 258 101 218 132 q 374 71 299 71 q 486 102 446 71 q 542 186 526 133 q 558 304 558 239 l 558 1125 l 660 1125 l 660 307 q 635 141 660 214 q 547 27 610 68 q 374 -14 485 -14 m 585 1067 l 585 1125 l 599 1125 q 657 1149 640 1125 q 674 1218 674 1172 l 753 1218 q 713 1104 753 1142 q 601 1067 674 1067 l 585 1067 m 347 1192 l 219 1464 l 322 1464 l 399 1192 l 347 1192 z "},"Ử":{"ha":746,"x_min":86,"x_max":753,"o":"m 374 -14 q 197 27 260 -14 q 110 141 133 68 q 86 307 86 214 l 86 1125 l 189 1125 l 189 304 q 203 185 189 239 q 258 101 218 132 q 374 71 299 71 q 486 102 446 71 q 542 186 526 133 q 558 304 558 239 l 558 1125 l 660 1125 l 660 307 q 635 141 660 214 q 547 27 610 68 q 374 -14 485 -14 m 585 1067 l 585 1125 l 599 1125 q 657 1149 640 1125 q 674 1218 674 1172 l 753 1218 q 713 1104 753 1142 q 601 1067 674 1067 l 585 1067 m 374 1226 l 336 1267 q 392 1303 372 1285 q 413 1344 413 1321 q 394 1383 413 1371 q 340 1394 375 1394 q 309 1392 325 1394 q 275 1386 293 1390 l 275 1439 q 364 1449 319 1449 q 431 1438 403 1449 q 474 1406 458 1428 q 489 1351 489 1385 q 474 1297 489 1319 q 432 1257 458 1274 q 374 1226 406 1240 z "},"Ữ":{"ha":746,"x_min":86,"x_max":753,"o":"m 374 -14 q 197 27 260 -14 q 110 141 133 68 q 86 307 86 214 l 86 1125 l 189 1125 l 189 304 q 203 185 189 239 q 258 101 218 132 q 374 71 299 71 q 486 102 446 71 q 542 186 526 133 q 558 304 558 239 l 558 1125 l 660 1125 l 660 307 q 635 141 660 214 q 547 27 610 68 q 374 -14 485 -14 m 585 1067 l 585 1125 l 599 1125 q 657 1149 640 1125 q 674 1218 674 1172 l 753 1218 q 713 1104 753 1142 q 601 1067 674 1067 l 585 1067 m 458 1283 q 399 1300 425 1283 q 349 1333 372 1317 q 301 1350 326 1350 q 267 1336 279 1350 q 256 1294 256 1322 l 193 1294 q 201 1347 193 1318 q 229 1396 208 1375 q 289 1417 250 1417 q 349 1401 322 1417 q 399 1368 375 1385 q 447 1351 422 1351 q 482 1365 471 1351 q 493 1411 493 1378 l 554 1411 q 548 1356 554 1386 q 521 1305 542 1326 q 458 1283 500 1283 z "},"Ű":{"ha":746,"x_min":86,"x_max":660,"o":"m 374 -14 q 197 27 260 -14 q 110 141 133 68 q 86 307 86 214 l 86 1125 l 189 1125 l 189 304 q 203 185 189 239 q 258 101 218 132 q 374 71 299 71 q 486 102 446 71 q 542 186 526 133 q 558 304 558 239 l 558 1125 l 660 1125 l 660 307 q 635 141 660 214 q 547 27 610 68 q 374 -14 485 -14 m 426 1235 l 503 1457 l 613 1457 l 482 1235 l 426 1235 m 283 1235 l 338 1457 l 429 1457 l 338 1235 l 283 1235 z "},"Ȗ":{"ha":746,"x_min":86,"x_max":660,"o":"m 374 -14 q 197 27 260 -14 q 110 141 133 68 q 86 307 86 214 l 86 1125 l 189 1125 l 189 304 q 203 185 189 239 q 258 101 218 132 q 374 71 299 71 q 486 102 446 71 q 542 186 526 133 q 558 304 558 239 l 558 1125 l 660 1125 l 660 307 q 635 141 660 214 q 547 27 610 68 q 374 -14 485 -14 m 206 1274 q 226 1367 208 1328 q 281 1426 244 1406 q 374 1447 318 1447 q 467 1426 431 1447 q 522 1367 504 1406 q 542 1274 540 1328 l 476 1274 q 448 1360 475 1336 q 374 1385 421 1385 q 301 1360 328 1385 q 271 1274 274 1335 l 206 1274 z "},"Ū":{"ha":746,"x_min":86,"x_max":660,"o":"m 374 -14 q 197 27 260 -14 q 110 141 133 68 q 86 307 86 214 l 86 1125 l 189 1125 l 189 304 q 203 185 189 239 q 258 101 218 132 q 374 71 299 71 q 486 102 446 71 q 542 186 526 133 q 558 304 558 239 l 558 1125 l 660 1125 l 660 307 q 635 141 660 214 q 547 27 610 68 q 374 -14 485 -14 m 249 1286 l 249 1356 l 499 1356 l 499 1286 l 249 1286 z "},"Ų":{"ha":746,"x_min":86,"x_max":660,"o":"m 374 -14 q 197 27 260 -14 q 110 141 133 68 q 86 307 86 214 l 86 1125 l 189 1125 l 189 304 q 203 185 189 239 q 258 101 218 132 q 374 71 299 71 q 486 102 446 71 q 542 186 526 133 q 558 304 558 239 l 558 1125 l 660 1125 l 660 307 q 635 141 660 214 q 547 27 610 68 q 374 -14 485 -14 m 444 -294 q 382 -288 411 -294 q 331 -269 353 -282 q 297 -233 308 -256 q 285 -181 285 -211 q 303 -108 285 -143 q 349 -45 321 -74 q 411 0 378 -17 l 465 0 q 416 -53 439 -25 q 378 -110 393 -81 q 364 -168 364 -139 q 395 -225 364 -210 q 468 -240 426 -240 q 485 -240 476 -240 q 500 -237 493 -239 l 485 -292 q 467 -294 478 -293 q 444 -294 456 -294 z "},"Ů":{"ha":746,"x_min":86,"x_max":660,"o":"m 374 -14 q 197 27 260 -14 q 110 141 133 68 q 86 307 86 214 l 86 1125 l 189 1125 l 189 304 q 203 185 189 239 q 258 101 218 132 q 374 71 299 71 q 486 102 446 71 q 542 186 526 133 q 558 304 558 239 l 558 1125 l 660 1125 l 660 307 q 635 141 660 214 q 547 27 610 68 q 374 -14 485 -14 m 374 1196 q 281 1229 321 1196 q 240 1328 240 1263 q 281 1427 240 1394 q 374 1460 321 1460 q 467 1427 428 1460 q 507 1328 507 1394 q 467 1229 507 1263 q 374 1196 428 1196 m 374 1251 q 427 1270 404 1251 q 450 1328 450 1289 q 427 1388 450 1369 q 374 1406 404 1406 q 319 1388 342 1406 q 297 1328 297 1369 q 319 1270 297 1289 q 374 1251 342 1251 z "},"Ũ":{"ha":746,"x_min":86,"x_max":660,"o":"m 374 -14 q 197 27 260 -14 q 110 141 133 68 q 86 307 86 214 l 86 1125 l 189 1125 l 189 304 q 203 185 189 239 q 258 101 218 132 q 374 71 299 71 q 486 102 446 71 q 542 186 526 133 q 558 304 558 239 l 558 1125 l 660 1125 l 660 307 q 635 141 660 214 q 547 27 610 68 q 374 -14 485 -14 m 458 1283 q 399 1300 425 1283 q 349 1333 372 1317 q 301 1350 326 1350 q 267 1336 279 1350 q 256 1294 256 1322 l 193 1294 q 201 1347 193 1318 q 229 1396 208 1375 q 289 1417 250 1417 q 349 1401 322 1417 q 399 1368 375 1385 q 447 1351 422 1351 q 482 1365 471 1351 q 493 1411 493 1378 l 554 1411 q 548 1356 554 1386 q 521 1305 542 1326 q 458 1283 500 1283 z "},"V":{"ha":679,"x_min":33,"x_max":647,"o":"m 297 0 l 33 1125 l 135 1125 l 347 193 l 547 1125 l 647 1125 l 393 0 l 297 0 z "},"W":{"ha":993,"x_min":49,"x_max":944,"o":"m 239 0 l 49 1125 l 139 1125 l 288 211 l 457 1108 l 544 1108 l 718 210 l 856 1125 l 944 1125 l 763 0 l 681 0 l 501 928 l 325 0 l 239 0 z "},"Ẃ":{"ha":993,"x_min":49,"x_max":944,"o":"m 239 0 l 49 1125 l 139 1125 l 288 211 l 457 1108 l 544 1108 l 718 210 l 856 1125 l 944 1125 l 763 0 l 681 0 l 501 928 l 325 0 l 239 0 m 471 1192 l 558 1464 l 660 1464 l 524 1192 l 471 1192 z "},"Ŵ":{"ha":993,"x_min":49,"x_max":944,"o":"m 239 0 l 49 1125 l 139 1125 l 288 211 l 457 1108 l 544 1108 l 718 210 l 856 1125 l 944 1125 l 763 0 l 681 0 l 501 928 l 325 0 l 239 0 m 321 1200 l 440 1447 l 554 1447 l 672 1200 l 597 1200 l 496 1396 l 396 1200 l 321 1200 z "},"Ẅ":{"ha":993,"x_min":49,"x_max":944,"o":"m 239 0 l 49 1125 l 139 1125 l 288 211 l 457 1108 l 544 1108 l 718 210 l 856 1125 l 944 1125 l 763 0 l 681 0 l 501 928 l 325 0 l 239 0 m 560 1324 l 560 1447 l 664 1447 l 664 1324 l 560 1324 m 331 1324 l 331 1447 l 435 1447 l 435 1324 l 331 1324 z "},"Ẁ":{"ha":993,"x_min":49,"x_max":944,"o":"m 239 0 l 49 1125 l 139 1125 l 288 211 l 457 1108 l 544 1108 l 718 210 l 856 1125 l 944 1125 l 763 0 l 681 0 l 501 928 l 325 0 l 239 0 m 471 1192 l 343 1464 l 446 1464 l 522 1192 l 471 1192 z "},"X":{"ha":643,"x_min":19,"x_max":625,"o":"m 19 0 l 263 586 l 22 1125 l 121 1125 l 322 676 l 515 1125 l 617 1125 l 368 574 l 625 0 l 524 0 l 310 475 l 121 0 l 19 0 z "},"Y":{"ha":651,"x_min":24,"x_max":628,"o":"m 278 0 l 278 374 l 24 1125 l 126 1125 l 329 500 l 524 1125 l 628 1125 l 381 374 l 381 0 l 278 0 z "},"Ý":{"ha":651,"x_min":24,"x_max":628,"o":"m 278 0 l 278 374 l 24 1125 l 126 1125 l 329 500 l 524 1125 l 628 1125 l 381 374 l 381 0 l 278 0 m 300 1192 l 388 1464 l 489 1464 l 353 1192 l 300 1192 z "},"Ŷ":{"ha":651,"x_min":24,"x_max":628,"o":"m 278 0 l 278 374 l 24 1125 l 126 1125 l 329 500 l 524 1125 l 628 1125 l 381 374 l 381 0 l 278 0 m 150 1200 l 269 1447 l 383 1447 l 501 1200 l 426 1200 l 325 1396 l 225 1200 l 150 1200 z "},"Ÿ":{"ha":651,"x_min":24,"x_max":628,"o":"m 278 0 l 278 374 l 24 1125 l 126 1125 l 329 500 l 524 1125 l 628 1125 l 381 374 l 381 0 l 278 0 m 389 1324 l 389 1447 l 493 1447 l 493 1324 l 389 1324 m 160 1324 l 160 1447 l 264 1447 l 264 1324 l 160 1324 z "},"Ỵ":{"ha":651,"x_min":24,"x_max":628,"o":"m 278 0 l 278 374 l 24 1125 l 126 1125 l 329 500 l 524 1125 l 628 1125 l 381 374 l 381 0 l 278 0 m 272 -208 l 272 -85 l 381 -85 l 381 -208 l 272 -208 z "},"Ỳ":{"ha":651,"x_min":24,"x_max":628,"o":"m 278 0 l 278 374 l 24 1125 l 126 1125 l 329 500 l 524 1125 l 628 1125 l 381 374 l 381 0 l 278 0 m 300 1192 l 172 1464 l 275 1464 l 351 1192 l 300 1192 z "},"Ỷ":{"ha":651,"x_min":24,"x_max":628,"o":"m 278 0 l 278 374 l 24 1125 l 126 1125 l 329 500 l 524 1125 l 628 1125 l 381 374 l 381 0 l 278 0 m 326 1226 l 289 1267 q 345 1303 325 1285 q 365 1344 365 1321 q 347 1383 365 1371 q 293 1394 328 1394 q 262 1392 278 1394 q 228 1386 246 1390 l 228 1439 q 317 1449 272 1449 q 383 1438 356 1449 q 426 1406 411 1428 q 442 1351 442 1385 q 426 1297 442 1319 q 385 1257 411 1274 q 326 1226 358 1240 z "},"Ȳ":{"ha":651,"x_min":24,"x_max":628,"o":"m 278 0 l 278 374 l 24 1125 l 126 1125 l 329 500 l 524 1125 l 628 1125 l 381 374 l 381 0 l 278 0 m 201 1286 l 201 1356 l 451 1356 l 451 1286 l 201 1286 z "},"Ỹ":{"ha":651,"x_min":24,"x_max":628,"o":"m 278 0 l 278 374 l 24 1125 l 126 1125 l 329 500 l 524 1125 l 628 1125 l 381 374 l 381 0 l 278 0 m 411 1283 q 351 1300 378 1283 q 302 1333 325 1317 q 254 1350 279 1350 q 220 1336 232 1350 q 208 1294 208 1322 l 146 1294 q 153 1347 146 1318 q 182 1396 161 1375 q 242 1417 203 1417 q 301 1401 275 1417 q 351 1368 328 1385 q 400 1351 375 1351 q 435 1365 424 1351 q 446 1411 446 1378 l 507 1411 q 501 1356 507 1386 q 474 1305 494 1326 q 411 1283 453 1283 z "},"Z":{"ha":565,"x_min":47,"x_max":538,"o":"m 47 0 l 47 79 l 424 1046 l 78 1046 l 78 1125 l 538 1125 l 538 1069 l 151 79 l 538 79 l 538 0 l 47 0 z "},"Ź":{"ha":565,"x_min":47,"x_max":538,"o":"m 47 0 l 47 79 l 424 1046 l 78 1046 l 78 1125 l 538 1125 l 538 1069 l 151 79 l 538 79 l 538 0 l 47 0 m 257 1192 l 344 1464 l 446 1464 l 310 1192 l 257 1192 z "},"Ž":{"ha":565,"x_min":47,"x_max":538,"o":"m 47 0 l 47 79 l 424 1046 l 78 1046 l 78 1125 l 538 1125 l 538 1069 l 151 79 l 538 79 l 538 0 l 47 0 m 238 1215 l 119 1447 l 201 1447 l 283 1281 l 365 1447 l 447 1447 l 328 1215 l 238 1215 z "},"Ż":{"ha":565,"x_min":47,"x_max":538,"o":"m 47 0 l 47 79 l 424 1046 l 78 1046 l 78 1125 l 538 1125 l 538 1069 l 151 79 l 538 79 l 538 0 l 47 0 m 229 1258 l 229 1411 l 338 1411 l 338 1258 l 229 1258 z "},"a":{"ha":551,"x_min":56,"x_max":488,"o":"m 217 -12 q 132 12 168 -12 q 76 77 96 36 q 56 167 56 118 q 73 271 56 228 q 128 348 90 314 q 228 415 167 382 q 379 488 290 447 l 379 544 q 370 660 379 618 q 340 721 361 703 q 279 739 318 739 q 222 726 247 739 q 182 684 197 714 q 167 601 167 654 l 167 574 l 67 575 q 119 756 68 697 q 285 815 169 815 q 437 751 393 815 q 481 550 481 686 l 481 160 q 482 106 481 139 q 485 44 483 74 q 488 0 486 15 l 397 0 q 389 59 394 26 q 382 111 383 92 q 323 25 365 63 q 217 -12 281 -12 m 249 74 q 304 89 279 74 q 349 126 329 104 q 379 169 368 147 l 379 419 q 277 364 319 389 q 208 315 235 339 q 169 262 182 292 q 157 192 157 232 q 185 101 157 128 q 249 74 213 74 z "},"á":{"ha":551,"x_min":56,"x_max":488,"o":"m 217 -12 q 132 12 168 -12 q 76 77 96 36 q 56 167 56 118 q 73 271 56 228 q 128 348 90 314 q 228 415 167 382 q 379 488 290 447 l 379 544 q 370 660 379 618 q 340 721 361 703 q 279 739 318 739 q 222 726 247 739 q 182 684 197 714 q 167 601 167 654 l 167 574 l 67 575 q 119 756 68 697 q 285 815 169 815 q 437 751 393 815 q 481 550 481 686 l 481 160 q 482 106 481 139 q 485 44 483 74 q 488 0 486 15 l 397 0 q 389 59 394 26 q 382 111 383 92 q 323 25 365 63 q 217 -12 281 -12 m 249 74 q 304 89 279 74 q 349 126 329 104 q 379 169 368 147 l 379 419 q 277 364 319 389 q 208 315 235 339 q 169 262 182 292 q 157 192 157 232 q 185 101 157 128 q 249 74 213 74 m 257 869 l 344 1142 l 446 1142 l 310 869 l 257 869 z "},"ă":{"ha":551,"x_min":56,"x_max":488,"o":"m 217 -12 q 132 12 168 -12 q 76 77 96 36 q 56 167 56 118 q 73 271 56 228 q 128 348 90 314 q 228 415 167 382 q 379 488 290 447 l 379 544 q 370 660 379 618 q 340 721 361 703 q 279 739 318 739 q 222 726 247 739 q 182 684 197 714 q 167 601 167 654 l 167 574 l 67 575 q 119 756 68 697 q 285 815 169 815 q 437 751 393 815 q 481 550 481 686 l 481 160 q 482 106 481 139 q 485 44 483 74 q 488 0 486 15 l 397 0 q 389 59 394 26 q 382 111 383 92 q 323 25 365 63 q 217 -12 281 -12 m 249 74 q 304 89 279 74 q 349 126 329 104 q 379 169 368 147 l 379 419 q 277 364 319 389 q 208 315 235 339 q 169 262 182 292 q 157 192 157 232 q 185 101 157 128 q 249 74 213 74 m 282 889 q 160 933 201 889 q 115 1056 118 976 l 181 1056 q 209 975 182 1000 q 282 950 236 950 q 356 975 329 950 q 386 1056 383 1000 l 450 1056 q 406 933 449 976 q 282 889 364 889 z "},"ắ":{"ha":551,"x_min":56,"x_max":488,"o":"m 217 -12 q 132 12 168 -12 q 76 77 96 36 q 56 167 56 118 q 73 271 56 228 q 128 348 90 314 q 228 415 167 382 q 379 488 290 447 l 379 544 q 370 660 379 618 q 340 721 361 703 q 279 739 318 739 q 222 726 247 739 q 182 684 197 714 q 167 601 167 654 l 167 574 l 67 575 q 119 756 68 697 q 285 815 169 815 q 437 751 393 815 q 481 550 481 686 l 481 160 q 482 106 481 139 q 485 44 483 74 q 488 0 486 15 l 397 0 q 389 59 394 26 q 382 111 383 92 q 323 25 365 63 q 217 -12 281 -12 m 249 74 q 304 89 279 74 q 349 126 329 104 q 379 169 368 147 l 379 419 q 277 364 319 389 q 208 315 235 339 q 169 262 182 292 q 157 192 157 232 q 185 101 157 128 q 249 74 213 74 m 226 1101 l 315 1265 l 418 1265 l 283 1101 l 226 1101 m 282 879 q 160 923 201 879 q 115 1046 118 967 l 181 1046 q 209 965 182 990 q 282 940 236 940 q 356 965 329 940 q 386 1046 383 990 l 450 1046 q 406 923 449 967 q 282 879 364 879 z "},"ặ":{"ha":551,"x_min":56,"x_max":488,"o":"m 217 -12 q 132 12 168 -12 q 76 77 96 36 q 56 167 56 118 q 73 271 56 228 q 128 348 90 314 q 228 415 167 382 q 379 488 290 447 l 379 544 q 370 660 379 618 q 340 721 361 703 q 279 739 318 739 q 222 726 247 739 q 182 684 197 714 q 167 601 167 654 l 167 574 l 67 575 q 119 756 68 697 q 285 815 169 815 q 437 751 393 815 q 481 550 481 686 l 481 160 q 482 106 481 139 q 485 44 483 74 q 488 0 486 15 l 397 0 q 389 59 394 26 q 382 111 383 92 q 323 25 365 63 q 217 -12 281 -12 m 249 74 q 304 89 279 74 q 349 126 329 104 q 379 169 368 147 l 379 419 q 277 364 319 389 q 208 315 235 339 q 169 262 182 292 q 157 192 157 232 q 185 101 157 128 q 249 74 213 74 m 222 -208 l 222 -85 l 331 -85 l 331 -208 l 222 -208 m 282 889 q 160 933 201 889 q 115 1056 118 976 l 181 1056 q 209 975 182 1000 q 282 950 236 950 q 356 975 329 950 q 386 1056 383 1000 l 450 1056 q 406 933 449 976 q 282 889 364 889 z "},"ằ":{"ha":551,"x_min":56,"x_max":488,"o":"m 217 -12 q 132 12 168 -12 q 76 77 96 36 q 56 167 56 118 q 73 271 56 228 q 128 348 90 314 q 228 415 167 382 q 379 488 290 447 l 379 544 q 370 660 379 618 q 340 721 361 703 q 279 739 318 739 q 222 726 247 739 q 182 684 197 714 q 167 601 167 654 l 167 574 l 67 575 q 119 756 68 697 q 285 815 169 815 q 437 751 393 815 q 481 550 481 686 l 481 160 q 482 106 481 139 q 485 44 483 74 q 488 0 486 15 l 397 0 q 389 59 394 26 q 382 111 383 92 q 323 25 365 63 q 217 -12 281 -12 m 249 74 q 304 89 279 74 q 349 126 329 104 q 379 169 368 147 l 379 419 q 277 364 319 389 q 208 315 235 339 q 169 262 182 292 q 157 192 157 232 q 185 101 157 128 q 249 74 213 74 m 285 1101 l 150 1265 l 253 1265 l 343 1101 l 285 1101 m 282 879 q 160 923 201 879 q 115 1046 118 967 l 181 1046 q 209 965 182 990 q 282 940 236 940 q 356 965 329 940 q 386 1046 383 990 l 450 1046 q 406 923 449 967 q 282 879 364 879 z "},"ẳ":{"ha":551,"x_min":56,"x_max":488,"o":"m 217 -12 q 132 12 168 -12 q 76 77 96 36 q 56 167 56 118 q 73 271 56 228 q 128 348 90 314 q 228 415 167 382 q 379 488 290 447 l 379 544 q 370 660 379 618 q 340 721 361 703 q 279 739 318 739 q 222 726 247 739 q 182 684 197 714 q 167 601 167 654 l 167 574 l 67 575 q 119 756 68 697 q 285 815 169 815 q 437 751 393 815 q 481 550 481 686 l 481 160 q 482 106 481 139 q 485 44 483 74 q 488 0 486 15 l 397 0 q 389 59 394 26 q 382 111 383 92 q 323 25 365 63 q 217 -12 281 -12 m 249 74 q 304 89 279 74 q 349 126 329 104 q 379 169 368 147 l 379 419 q 277 364 319 389 q 208 315 235 339 q 169 262 182 292 q 157 192 157 232 q 185 101 157 128 q 249 74 213 74 m 289 1050 l 251 1090 q 300 1126 283 1108 q 317 1167 317 1143 q 299 1205 317 1193 q 254 1217 282 1217 q 223 1215 239 1217 q 190 1207 207 1213 l 190 1258 q 234 1269 213 1265 q 276 1272 256 1272 q 362 1248 329 1272 q 394 1175 394 1224 q 363 1100 394 1129 q 289 1050 332 1071 m 282 889 q 160 933 201 889 q 115 1056 118 976 l 181 1056 q 209 975 182 1000 q 282 950 236 950 q 356 975 329 950 q 386 1056 383 1000 l 450 1056 q 406 933 449 976 q 282 889 364 889 z "},"ẵ":{"ha":551,"x_min":56,"x_max":488,"o":"m 217 -12 q 132 12 168 -12 q 76 77 96 36 q 56 167 56 118 q 73 271 56 228 q 128 348 90 314 q 228 415 167 382 q 379 488 290 447 l 379 544 q 370 660 379 618 q 340 721 361 703 q 279 739 318 739 q 222 726 247 739 q 182 684 197 714 q 167 601 167 654 l 167 574 l 67 575 q 119 756 68 697 q 285 815 169 815 q 437 751 393 815 q 481 550 481 686 l 481 160 q 482 106 481 139 q 485 44 483 74 q 488 0 486 15 l 397 0 q 389 59 394 26 q 382 111 383 92 q 323 25 365 63 q 217 -12 281 -12 m 249 74 q 304 89 279 74 q 349 126 329 104 q 379 169 368 147 l 379 419 q 277 364 319 389 q 208 315 235 339 q 169 262 182 292 q 157 192 157 232 q 185 101 157 128 q 249 74 213 74 m 282 889 q 160 933 201 889 q 115 1056 118 976 l 181 1056 q 209 975 182 1000 q 282 950 236 950 q 356 975 329 950 q 386 1056 383 1000 l 450 1056 q 406 933 449 976 q 282 889 364 889 m 368 1119 q 308 1136 335 1119 q 259 1169 282 1153 q 211 1186 236 1186 q 177 1172 189 1186 q 165 1131 165 1158 l 103 1131 q 110 1183 103 1154 q 139 1232 118 1211 q 199 1253 160 1253 q 258 1237 232 1253 q 308 1204 285 1221 q 357 1188 332 1188 q 392 1201 381 1188 q 403 1247 403 1214 l 464 1247 q 458 1192 464 1222 q 431 1141 451 1163 q 368 1119 410 1119 z "},"ǎ":{"ha":551,"x_min":56,"x_max":488,"o":"m 217 -12 q 132 12 168 -12 q 76 77 96 36 q 56 167 56 118 q 73 271 56 228 q 128 348 90 314 q 228 415 167 382 q 379 488 290 447 l 379 544 q 370 660 379 618 q 340 721 361 703 q 279 739 318 739 q 222 726 247 739 q 182 684 197 714 q 167 601 167 654 l 167 574 l 67 575 q 119 756 68 697 q 285 815 169 815 q 437 751 393 815 q 481 550 481 686 l 481 160 q 482 106 481 139 q 485 44 483 74 q 488 0 486 15 l 397 0 q 389 59 394 26 q 382 111 383 92 q 323 25 365 63 q 217 -12 281 -12 m 249 74 q 304 89 279 74 q 349 126 329 104 q 379 169 368 147 l 379 419 q 277 364 319 389 q 208 315 235 339 q 169 262 182 292 q 157 192 157 232 q 185 101 157 128 q 249 74 213 74 m 238 893 l 119 1125 l 201 1125 l 283 958 l 365 1125 l 447 1125 l 328 893 l 238 893 z "},"â":{"ha":551,"x_min":56,"x_max":488,"o":"m 217 -12 q 132 12 168 -12 q 76 77 96 36 q 56 167 56 118 q 73 271 56 228 q 128 348 90 314 q 228 415 167 382 q 379 488 290 447 l 379 544 q 370 660 379 618 q 340 721 361 703 q 279 739 318 739 q 222 726 247 739 q 182 684 197 714 q 167 601 167 654 l 167 574 l 67 575 q 119 756 68 697 q 285 815 169 815 q 437 751 393 815 q 481 550 481 686 l 481 160 q 482 106 481 139 q 485 44 483 74 q 488 0 486 15 l 397 0 q 389 59 394 26 q 382 111 383 92 q 323 25 365 63 q 217 -12 281 -12 m 249 74 q 304 89 279 74 q 349 126 329 104 q 379 169 368 147 l 379 419 q 277 364 319 389 q 208 315 235 339 q 169 262 182 292 q 157 192 157 232 q 185 101 157 128 q 249 74 213 74 m 107 878 l 226 1125 l 340 1125 l 458 878 l 383 878 l 282 1074 l 182 878 l 107 878 z "},"ấ":{"ha":551,"x_min":56,"x_max":606,"o":"m 217 -12 q 132 12 168 -12 q 76 77 96 36 q 56 167 56 118 q 73 271 56 228 q 128 348 90 314 q 228 415 167 382 q 379 488 290 447 l 379 544 q 370 660 379 618 q 340 721 361 703 q 279 739 318 739 q 222 726 247 739 q 182 684 197 714 q 167 601 167 654 l 167 574 l 67 575 q 119 756 68 697 q 285 815 169 815 q 437 751 393 815 q 481 550 481 686 l 481 160 q 482 106 481 139 q 485 44 483 74 q 488 0 486 15 l 397 0 q 389 59 394 26 q 382 111 383 92 q 323 25 365 63 q 217 -12 281 -12 m 249 74 q 304 89 279 74 q 349 126 329 104 q 379 169 368 147 l 379 419 q 277 364 319 389 q 208 315 235 339 q 169 262 182 292 q 157 192 157 232 q 185 101 157 128 q 249 74 213 74 m 107 878 l 226 1081 l 340 1081 l 460 878 l 385 878 l 283 1031 l 182 878 l 107 878 m 439 1010 l 513 1169 l 606 1169 l 507 1010 l 439 1010 z "},"ậ":{"ha":551,"x_min":56,"x_max":488,"o":"m 217 -12 q 132 12 168 -12 q 76 77 96 36 q 56 167 56 118 q 73 271 56 228 q 128 348 90 314 q 228 415 167 382 q 379 488 290 447 l 379 544 q 370 660 379 618 q 340 721 361 703 q 279 739 318 739 q 222 726 247 739 q 182 684 197 714 q 167 601 167 654 l 167 574 l 67 575 q 119 756 68 697 q 285 815 169 815 q 437 751 393 815 q 481 550 481 686 l 481 160 q 482 106 481 139 q 485 44 483 74 q 488 0 486 15 l 397 0 q 389 59 394 26 q 382 111 383 92 q 323 25 365 63 q 217 -12 281 -12 m 249 74 q 304 89 279 74 q 349 126 329 104 q 379 169 368 147 l 379 419 q 277 364 319 389 q 208 315 235 339 q 169 262 182 292 q 157 192 157 232 q 185 101 157 128 q 249 74 213 74 m 222 -208 l 222 -85 l 331 -85 l 331 -208 l 222 -208 m 107 878 l 226 1081 l 340 1081 l 460 878 l 385 878 l 283 1031 l 182 878 l 107 878 z "},"ầ":{"ha":551,"x_min":56,"x_max":542,"o":"m 217 -12 q 132 12 168 -12 q 76 77 96 36 q 56 167 56 118 q 73 271 56 228 q 128 348 90 314 q 228 415 167 382 q 379 488 290 447 l 379 544 q 370 660 379 618 q 340 721 361 703 q 279 739 318 739 q 222 726 247 739 q 182 684 197 714 q 167 601 167 654 l 167 574 l 67 575 q 119 756 68 697 q 285 815 169 815 q 437 751 393 815 q 481 550 481 686 l 481 160 q 482 106 481 139 q 485 44 483 74 q 488 0 486 15 l 397 0 q 389 59 394 26 q 382 111 383 92 q 323 25 365 63 q 217 -12 281 -12 m 249 74 q 304 89 279 74 q 349 126 329 104 q 379 169 368 147 l 379 419 q 277 364 319 389 q 208 315 235 339 q 169 262 182 292 q 157 192 157 232 q 185 101 157 128 q 249 74 213 74 m 107 878 l 226 1081 l 340 1081 l 460 878 l 385 878 l 283 1031 l 182 878 l 107 878 m 475 1010 l 375 1169 l 468 1169 l 542 1010 l 475 1010 z "},"ẩ":{"ha":551,"x_min":56,"x_max":569,"o":"m 217 -12 q 132 12 168 -12 q 76 77 96 36 q 56 167 56 118 q 73 271 56 228 q 128 348 90 314 q 228 415 167 382 q 379 488 290 447 l 379 544 q 370 660 379 618 q 340 721 361 703 q 279 739 318 739 q 222 726 247 739 q 182 684 197 714 q 167 601 167 654 l 167 574 l 67 575 q 119 756 68 697 q 285 815 169 815 q 437 751 393 815 q 481 550 481 686 l 481 160 q 482 106 481 139 q 485 44 483 74 q 488 0 486 15 l 397 0 q 389 59 394 26 q 382 111 383 92 q 323 25 365 63 q 217 -12 281 -12 m 249 74 q 304 89 279 74 q 349 126 329 104 q 379 169 368 147 l 379 419 q 277 364 319 389 q 208 315 235 339 q 169 262 182 292 q 157 192 157 232 q 185 101 157 128 q 249 74 213 74 m 464 997 l 426 1038 q 475 1073 458 1056 q 492 1115 492 1090 q 474 1152 492 1140 q 429 1164 457 1164 q 398 1162 414 1164 q 365 1154 382 1160 l 365 1207 q 409 1217 388 1214 q 451 1219 431 1219 q 537 1195 504 1219 q 569 1122 569 1171 q 538 1046 569 1074 q 464 997 507 1018 m 107 878 l 226 1081 l 340 1081 l 460 878 l 385 878 l 283 1031 l 182 878 l 107 878 z "},"ẫ":{"ha":551,"x_min":56,"x_max":488,"o":"m 217 -12 q 132 12 168 -12 q 76 77 96 36 q 56 167 56 118 q 73 271 56 228 q 128 348 90 314 q 228 415 167 382 q 379 488 290 447 l 379 544 q 370 660 379 618 q 340 721 361 703 q 279 739 318 739 q 222 726 247 739 q 182 684 197 714 q 167 601 167 654 l 167 574 l 67 575 q 119 756 68 697 q 285 815 169 815 q 437 751 393 815 q 481 550 481 686 l 481 160 q 482 106 481 139 q 485 44 483 74 q 488 0 486 15 l 397 0 q 389 59 394 26 q 382 111 383 92 q 323 25 365 63 q 217 -12 281 -12 m 249 74 q 304 89 279 74 q 349 126 329 104 q 379 169 368 147 l 379 419 q 277 364 319 389 q 208 315 235 339 q 169 262 182 292 q 157 192 157 232 q 185 101 157 128 q 249 74 213 74 m 107 878 l 226 1081 l 340 1081 l 460 878 l 385 878 l 283 1031 l 182 878 l 107 878 m 368 1147 q 308 1164 335 1147 q 259 1197 282 1181 q 211 1214 236 1214 q 177 1200 189 1214 q 165 1158 165 1186 l 103 1158 q 110 1210 103 1182 q 139 1260 118 1239 q 199 1281 160 1281 q 258 1265 232 1281 q 308 1232 285 1249 q 357 1215 332 1215 q 392 1228 381 1215 q 403 1275 403 1242 l 464 1275 q 458 1220 464 1250 q 431 1169 451 1190 q 368 1147 410 1147 z "},"ȁ":{"ha":551,"x_min":46,"x_max":488,"o":"m 217 -12 q 132 12 168 -12 q 76 77 96 36 q 56 167 56 118 q 73 271 56 228 q 128 348 90 314 q 228 415 167 382 q 379 488 290 447 l 379 544 q 370 660 379 618 q 340 721 361 703 q 279 739 318 739 q 222 726 247 739 q 182 684 197 714 q 167 601 167 654 l 167 574 l 67 575 q 119 756 68 697 q 285 815 169 815 q 437 751 393 815 q 481 550 481 686 l 481 160 q 482 106 481 139 q 485 44 483 74 q 488 0 486 15 l 397 0 q 389 59 394 26 q 382 111 383 92 q 323 25 365 63 q 217 -12 281 -12 m 249 74 q 304 89 279 74 q 349 126 329 104 q 379 169 368 147 l 379 419 q 277 364 319 389 q 208 315 235 339 q 169 262 182 292 q 157 192 157 232 q 185 101 157 128 q 249 74 213 74 m 179 908 l 46 1125 l 154 1125 l 232 908 l 179 908 m 331 908 l 235 1125 l 325 1125 l 382 908 l 331 908 z "},"ä":{"ha":551,"x_min":56,"x_max":488,"o":"m 217 -12 q 132 12 168 -12 q 76 77 96 36 q 56 167 56 118 q 73 271 56 228 q 128 348 90 314 q 228 415 167 382 q 379 488 290 447 l 379 544 q 370 660 379 618 q 340 721 361 703 q 279 739 318 739 q 222 726 247 739 q 182 684 197 714 q 167 601 167 654 l 167 574 l 67 575 q 119 756 68 697 q 285 815 169 815 q 437 751 393 815 q 481 550 481 686 l 481 160 q 482 106 481 139 q 485 44 483 74 q 488 0 486 15 l 397 0 q 389 59 394 26 q 382 111 383 92 q 323 25 365 63 q 217 -12 281 -12 m 249 74 q 304 89 279 74 q 349 126 329 104 q 379 169 368 147 l 379 419 q 277 364 319 389 q 208 315 235 339 q 169 262 182 292 q 157 192 157 232 q 185 101 157 128 q 249 74 213 74 m 347 1001 l 347 1125 l 451 1125 l 451 1001 l 347 1001 m 118 1001 l 118 1125 l 222 1125 l 222 1001 l 118 1001 z "},"ạ":{"ha":551,"x_min":56,"x_max":488,"o":"m 217 -12 q 132 12 168 -12 q 76 77 96 36 q 56 167 56 118 q 73 271 56 228 q 128 348 90 314 q 228 415 167 382 q 379 488 290 447 l 379 544 q 370 660 379 618 q 340 721 361 703 q 279 739 318 739 q 222 726 247 739 q 182 684 197 714 q 167 601 167 654 l 167 574 l 67 575 q 119 756 68 697 q 285 815 169 815 q 437 751 393 815 q 481 550 481 686 l 481 160 q 482 106 481 139 q 485 44 483 74 q 488 0 486 15 l 397 0 q 389 59 394 26 q 382 111 383 92 q 323 25 365 63 q 217 -12 281 -12 m 249 74 q 304 89 279 74 q 349 126 329 104 q 379 169 368 147 l 379 419 q 277 364 319 389 q 208 315 235 339 q 169 262 182 292 q 157 192 157 232 q 185 101 157 128 q 249 74 213 74 m 222 -208 l 222 -85 l 331 -85 l 331 -208 l 222 -208 z "},"à":{"ha":551,"x_min":56,"x_max":488,"o":"m 217 -12 q 132 12 168 -12 q 76 77 96 36 q 56 167 56 118 q 73 271 56 228 q 128 348 90 314 q 228 415 167 382 q 379 488 290 447 l 379 544 q 370 660 379 618 q 340 721 361 703 q 279 739 318 739 q 222 726 247 739 q 182 684 197 714 q 167 601 167 654 l 167 574 l 67 575 q 119 756 68 697 q 285 815 169 815 q 437 751 393 815 q 481 550 481 686 l 481 160 q 482 106 481 139 q 485 44 483 74 q 488 0 486 15 l 397 0 q 389 59 394 26 q 382 111 383 92 q 323 25 365 63 q 217 -12 281 -12 m 249 74 q 304 89 279 74 q 349 126 329 104 q 379 169 368 147 l 379 419 q 277 364 319 389 q 208 315 235 339 q 169 262 182 292 q 157 192 157 232 q 185 101 157 128 q 249 74 213 74 m 257 869 l 129 1142 l 232 1142 l 308 869 l 257 869 z "},"ả":{"ha":551,"x_min":56,"x_max":488,"o":"m 217 -12 q 132 12 168 -12 q 76 77 96 36 q 56 167 56 118 q 73 271 56 228 q 128 348 90 314 q 228 415 167 382 q 379 488 290 447 l 379 544 q 370 660 379 618 q 340 721 361 703 q 279 739 318 739 q 222 726 247 739 q 182 684 197 714 q 167 601 167 654 l 167 574 l 67 575 q 119 756 68 697 q 285 815 169 815 q 437 751 393 815 q 481 550 481 686 l 481 160 q 482 106 481 139 q 485 44 483 74 q 488 0 486 15 l 397 0 q 389 59 394 26 q 382 111 383 92 q 323 25 365 63 q 217 -12 281 -12 m 249 74 q 304 89 279 74 q 349 126 329 104 q 379 169 368 147 l 379 419 q 277 364 319 389 q 208 315 235 339 q 169 262 182 292 q 157 192 157 232 q 185 101 157 128 q 249 74 213 74 m 283 904 l 246 944 q 302 981 282 963 q 322 1022 322 999 q 303 1060 322 1049 q 250 1072 285 1072 q 219 1070 235 1072 q 185 1064 203 1068 l 185 1117 q 274 1126 229 1126 q 340 1116 313 1126 q 383 1084 368 1106 q 399 1029 399 1063 q 383 974 399 997 q 342 935 368 951 q 283 904 315 918 z "},"ȃ":{"ha":551,"x_min":56,"x_max":488,"o":"m 217 -12 q 132 12 168 -12 q 76 77 96 36 q 56 167 56 118 q 73 271 56 228 q 128 348 90 314 q 228 415 167 382 q 379 488 290 447 l 379 544 q 370 660 379 618 q 340 721 361 703 q 279 739 318 739 q 222 726 247 739 q 182 684 197 714 q 167 601 167 654 l 167 574 l 67 575 q 119 756 68 697 q 285 815 169 815 q 437 751 393 815 q 481 550 481 686 l 481 160 q 482 106 481 139 q 485 44 483 74 q 488 0 486 15 l 397 0 q 389 59 394 26 q 382 111 383 92 q 323 25 365 63 q 217 -12 281 -12 m 249 74 q 304 89 279 74 q 349 126 329 104 q 379 169 368 147 l 379 419 q 277 364 319 389 q 208 315 235 339 q 169 262 182 292 q 157 192 157 232 q 185 101 157 128 q 249 74 213 74 m 115 951 q 136 1044 118 1006 q 191 1104 154 1083 q 283 1125 228 1125 q 377 1104 340 1125 q 432 1044 414 1083 q 451 951 450 1006 l 386 951 q 358 1038 385 1014 q 283 1063 331 1063 q 210 1038 238 1063 q 181 951 183 1013 l 115 951 z "},"ā":{"ha":551,"x_min":56,"x_max":488,"o":"m 217 -12 q 132 12 168 -12 q 76 77 96 36 q 56 167 56 118 q 73 271 56 228 q 128 348 90 314 q 228 415 167 382 q 379 488 290 447 l 379 544 q 370 660 379 618 q 340 721 361 703 q 279 739 318 739 q 222 726 247 739 q 182 684 197 714 q 167 601 167 654 l 167 574 l 67 575 q 119 756 68 697 q 285 815 169 815 q 437 751 393 815 q 481 550 481 686 l 481 160 q 482 106 481 139 q 485 44 483 74 q 488 0 486 15 l 397 0 q 389 59 394 26 q 382 111 383 92 q 323 25 365 63 q 217 -12 281 -12 m 249 74 q 304 89 279 74 q 349 126 329 104 q 379 169 368 147 l 379 419 q 277 364 319 389 q 208 315 235 339 q 169 262 182 292 q 157 192 157 232 q 185 101 157 128 q 249 74 213 74 m 158 964 l 158 1033 l 408 1033 l 408 964 l 158 964 z "},"ą":{"ha":551,"x_min":56,"x_max":508,"o":"m 217 -12 q 132 12 168 -12 q 76 77 96 36 q 56 167 56 118 q 73 271 56 228 q 128 348 90 314 q 228 415 167 382 q 379 488 290 447 l 379 544 q 370 660 379 618 q 340 721 361 703 q 279 739 318 739 q 222 726 247 739 q 182 684 197 714 q 167 601 167 654 l 167 574 l 67 575 q 119 756 68 697 q 285 815 169 815 q 437 751 393 815 q 481 550 481 686 l 481 160 q 482 106 481 139 q 485 44 483 74 q 488 0 486 15 l 397 0 q 389 59 394 26 q 382 111 383 92 q 323 25 365 63 q 217 -12 281 -12 m 249 74 q 304 89 279 74 q 349 126 329 104 q 379 169 368 147 l 379 419 q 277 364 319 389 q 208 315 235 339 q 169 262 182 292 q 157 192 157 232 q 185 101 157 128 q 249 74 213 74 m 453 -294 q 390 -288 419 -294 q 339 -269 361 -282 q 305 -233 317 -256 q 293 -181 293 -211 q 311 -108 293 -143 q 358 -45 329 -74 q 419 0 386 -17 l 474 0 q 424 -53 447 -25 q 387 -110 401 -81 q 372 -168 372 -139 q 403 -225 372 -210 q 476 -240 435 -240 q 493 -240 485 -240 q 508 -237 501 -239 l 493 -292 q 475 -294 486 -293 q 453 -294 464 -294 z "},"å":{"ha":551,"x_min":56,"x_max":488,"o":"m 217 -12 q 132 12 168 -12 q 76 77 96 36 q 56 167 56 118 q 73 271 56 228 q 128 348 90 314 q 228 415 167 382 q 379 488 290 447 l 379 544 q 370 660 379 618 q 340 721 361 703 q 279 739 318 739 q 222 726 247 739 q 182 684 197 714 q 167 601 167 654 l 167 574 l 67 575 q 119 756 68 697 q 285 815 169 815 q 437 751 393 815 q 481 550 481 686 l 481 160 q 482 106 481 139 q 485 44 483 74 q 488 0 486 15 l 397 0 q 389 59 394 26 q 382 111 383 92 q 323 25 365 63 q 217 -12 281 -12 m 249 74 q 304 89 279 74 q 349 126 329 104 q 379 169 368 147 l 379 419 q 277 364 319 389 q 208 315 235 339 q 169 262 182 292 q 157 192 157 232 q 185 101 157 128 q 249 74 213 74 m 283 874 q 190 907 231 874 q 150 1006 150 940 q 190 1105 150 1072 q 283 1138 231 1138 q 377 1105 338 1138 q 417 1006 417 1072 q 377 907 417 940 q 283 874 338 874 m 283 929 q 337 948 314 929 q 360 1006 360 967 q 337 1065 360 1047 q 283 1083 314 1083 q 229 1065 251 1083 q 207 1006 207 1047 q 229 948 207 967 q 283 929 251 929 z "},"ǻ":{"ha":551,"x_min":56,"x_max":488,"o":"m 217 -12 q 132 12 168 -12 q 76 77 96 36 q 56 167 56 118 q 73 271 56 228 q 128 348 90 314 q 228 415 167 382 q 379 488 290 447 l 379 544 q 370 660 379 618 q 340 721 361 703 q 279 739 318 739 q 222 726 247 739 q 182 684 197 714 q 167 601 167 654 l 167 574 l 67 575 q 119 756 68 697 q 285 815 169 815 q 437 751 393 815 q 481 550 481 686 l 481 160 q 482 106 481 139 q 485 44 483 74 q 488 0 486 15 l 397 0 q 389 59 394 26 q 382 111 383 92 q 323 25 365 63 q 217 -12 281 -12 m 249 74 q 304 89 279 74 q 349 126 329 104 q 379 169 368 147 l 379 419 q 277 364 319 389 q 208 315 235 339 q 169 262 182 292 q 157 192 157 232 q 185 101 157 128 q 249 74 213 74 m 283 874 q 190 907 231 874 q 150 1006 150 940 q 190 1105 150 1072 q 283 1138 231 1138 q 377 1105 338 1138 q 417 1006 417 1072 q 377 907 417 940 q 283 874 338 874 m 283 929 q 337 948 314 929 q 360 1006 360 967 q 337 1065 360 1047 q 283 1083 314 1083 q 229 1065 251 1083 q 207 1006 207 1047 q 229 948 207 967 q 283 929 251 929 m 257 1204 l 344 1476 l 446 1476 l 310 1204 l 257 1204 z "},"ã":{"ha":551,"x_min":56,"x_max":488,"o":"m 217 -12 q 132 12 168 -12 q 76 77 96 36 q 56 167 56 118 q 73 271 56 228 q 128 348 90 314 q 228 415 167 382 q 379 488 290 447 l 379 544 q 370 660 379 618 q 340 721 361 703 q 279 739 318 739 q 222 726 247 739 q 182 684 197 714 q 167 601 167 654 l 167 574 l 67 575 q 119 756 68 697 q 285 815 169 815 q 437 751 393 815 q 481 550 481 686 l 481 160 q 482 106 481 139 q 485 44 483 74 q 488 0 486 15 l 397 0 q 389 59 394 26 q 382 111 383 92 q 323 25 365 63 q 217 -12 281 -12 m 249 74 q 304 89 279 74 q 349 126 329 104 q 379 169 368 147 l 379 419 q 277 364 319 389 q 208 315 235 339 q 169 262 182 292 q 157 192 157 232 q 185 101 157 128 q 249 74 213 74 m 368 961 q 308 978 335 961 q 259 1011 282 994 q 211 1028 236 1028 q 177 1014 189 1028 q 165 972 165 1000 l 103 972 q 110 1024 103 996 q 139 1074 118 1053 q 199 1094 160 1094 q 258 1078 232 1094 q 308 1046 285 1063 q 357 1029 332 1029 q 392 1042 381 1029 q 403 1089 403 1056 l 464 1089 q 458 1034 464 1064 q 431 983 451 1004 q 368 961 410 961 z "},"æ":{"ha":864,"x_min":56,"x_max":804,"o":"m 228 -12 q 101 38 146 -12 q 56 167 56 89 q 73 271 56 225 q 136 352 90 317 q 264 414 182 388 l 381 451 l 381 564 q 356 697 381 658 q 271 736 332 736 q 216 722 240 736 q 178 675 192 707 q 164 589 164 643 l 65 590 q 119 758 65 700 q 269 815 172 815 q 391 771 346 815 q 439 647 436 726 l 425 647 q 455 743 428 706 q 524 798 482 781 q 615 815 567 815 q 752 767 707 815 q 797 644 797 719 q 774 546 797 583 q 710 486 751 508 q 617 449 669 464 l 483 407 l 483 275 q 508 119 483 168 q 594 69 533 69 q 650 83 626 69 q 688 130 674 96 q 703 226 703 164 l 703 274 l 804 274 l 804 229 q 785 102 804 156 q 721 18 765 49 q 601 -12 676 -12 q 515 4 553 -12 q 452 57 476 21 q 419 150 428 93 q 376 57 406 93 q 309 4 347 21 q 228 -12 271 -12 m 251 67 q 315 87 286 67 q 363 153 344 107 q 381 278 381 199 l 381 388 l 293 356 q 205 308 235 333 q 165 253 175 283 q 156 183 156 222 q 169 117 156 143 q 205 78 183 90 q 251 67 226 67 m 483 468 l 600 506 q 681 551 657 524 q 704 632 704 578 q 682 702 704 671 q 603 733 660 733 q 536 715 563 733 q 497 653 510 696 q 483 540 483 611 l 483 468 z "},"ǽ":{"ha":864,"x_min":56,"x_max":804,"o":"m 228 -12 q 101 38 146 -12 q 56 167 56 89 q 73 271 56 225 q 136 352 90 317 q 264 414 182 388 l 381 451 l 381 564 q 356 697 381 658 q 271 736 332 736 q 216 722 240 736 q 178 675 192 707 q 164 589 164 643 l 65 590 q 119 758 65 700 q 269 815 172 815 q 391 771 346 815 q 439 647 436 726 l 425 647 q 455 743 428 706 q 524 798 482 781 q 615 815 567 815 q 752 767 707 815 q 797 644 797 719 q 774 546 797 583 q 710 486 751 508 q 617 449 669 464 l 483 407 l 483 275 q 508 119 483 168 q 594 69 533 69 q 650 83 626 69 q 688 130 674 96 q 703 226 703 164 l 703 274 l 804 274 l 804 229 q 785 102 804 156 q 721 18 765 49 q 601 -12 676 -12 q 515 4 553 -12 q 452 57 476 21 q 419 150 428 93 q 376 57 406 93 q 309 4 347 21 q 228 -12 271 -12 m 251 67 q 315 87 286 67 q 363 153 344 107 q 381 278 381 199 l 381 388 l 293 356 q 205 308 235 333 q 165 253 175 283 q 156 183 156 222 q 169 117 156 143 q 205 78 183 90 q 251 67 226 67 m 483 468 l 600 506 q 681 551 657 524 q 704 632 704 578 q 682 702 704 671 q 603 733 660 733 q 536 715 563 733 q 497 653 510 696 q 483 540 483 611 l 483 468 m 401 869 l 489 1142 l 590 1142 l 454 869 l 401 869 z "},"b":{"ha":578,"x_min":79,"x_max":517,"o":"m 324 -12 q 240 13 275 -12 q 181 64 204 38 l 181 0 l 79 0 l 79 1125 l 181 1125 l 181 736 q 242 791 204 767 q 333 815 279 815 q 428 788 392 815 q 483 715 464 761 q 510 613 503 669 q 517 496 517 556 l 517 326 q 499 148 517 224 q 440 30 482 72 q 324 -12 399 -12 m 306 68 q 376 97 353 68 q 406 184 399 126 q 414 324 414 242 l 414 496 q 406 627 414 574 q 376 708 399 681 q 304 736 353 736 q 234 715 267 736 q 181 674 201 694 l 181 126 q 235 85 203 103 q 306 68 267 68 z "},"ḃ":{"ha":578,"x_min":76,"x_max":517,"o":"m 324 -12 q 240 13 275 -12 q 181 64 204 38 l 181 0 l 79 0 l 79 1125 l 181 1125 l 181 736 q 242 791 204 767 q 333 815 279 815 q 428 788 392 815 q 483 715 464 761 q 510 613 503 669 q 517 496 517 556 l 517 326 q 499 148 517 224 q 440 30 482 72 q 324 -12 399 -12 m 306 68 q 376 97 353 68 q 406 184 399 126 q 414 324 414 242 l 414 496 q 406 627 414 574 q 376 708 399 681 q 304 736 353 736 q 234 715 267 736 q 181 674 201 694 l 181 126 q 235 85 203 103 q 306 68 267 68 m 76 1258 l 76 1411 l 185 1411 l 185 1258 l 76 1258 z "},"c":{"ha":540,"x_min":63,"x_max":482,"o":"m 278 -12 q 138 29 183 -12 q 77 142 92 71 q 63 304 63 214 l 63 492 q 81 674 63 603 q 145 781 99 746 q 278 815 192 815 q 407 783 363 815 q 467 693 451 751 q 482 558 482 635 l 482 519 l 388 519 l 388 558 q 377 668 388 629 q 342 723 367 707 q 278 739 318 739 q 206 717 231 739 q 172 644 181 694 q 164 508 164 593 l 164 283 q 188 113 164 163 q 279 64 211 64 q 350 85 326 64 q 381 150 374 107 q 388 257 388 193 l 388 301 l 482 301 l 482 263 q 467 120 482 182 q 408 23 453 58 q 278 -12 364 -12 z "},"ć":{"ha":540,"x_min":63,"x_max":482,"o":"m 278 -12 q 138 29 183 -12 q 77 142 92 71 q 63 304 63 214 l 63 492 q 81 674 63 603 q 145 781 99 746 q 278 815 192 815 q 407 783 363 815 q 467 693 451 751 q 482 558 482 635 l 482 519 l 388 519 l 388 558 q 377 668 388 629 q 342 723 367 707 q 278 739 318 739 q 206 717 231 739 q 172 644 181 694 q 164 508 164 593 l 164 283 q 188 113 164 163 q 279 64 211 64 q 350 85 326 64 q 381 150 374 107 q 388 257 388 193 l 388 301 l 482 301 l 482 263 q 467 120 482 182 q 408 23 453 58 q 278 -12 364 -12 m 244 869 l 332 1142 l 433 1142 l 297 869 l 244 869 z "},"č":{"ha":540,"x_min":63,"x_max":482,"o":"m 278 -12 q 138 29 183 -12 q 77 142 92 71 q 63 304 63 214 l 63 492 q 81 674 63 603 q 145 781 99 746 q 278 815 192 815 q 407 783 363 815 q 467 693 451 751 q 482 558 482 635 l 482 519 l 388 519 l 388 558 q 377 668 388 629 q 342 723 367 707 q 278 739 318 739 q 206 717 231 739 q 172 644 181 694 q 164 508 164 593 l 164 283 q 188 113 164 163 q 279 64 211 64 q 350 85 326 64 q 381 150 374 107 q 388 257 388 193 l 388 301 l 482 301 l 482 263 q 467 120 482 182 q 408 23 453 58 q 278 -12 364 -12 m 225 893 l 107 1125 l 189 1125 l 271 958 l 353 1125 l 435 1125 l 315 893 l 225 893 z "},"ç":{"ha":540,"x_min":63,"x_max":482,"o":"m 278 -12 q 138 29 183 -12 q 77 142 92 71 q 63 304 63 214 l 63 492 q 81 674 63 603 q 145 781 99 746 q 278 815 192 815 q 407 783 363 815 q 467 693 451 751 q 482 558 482 635 l 482 519 l 388 519 l 388 558 q 377 668 388 629 q 342 723 367 707 q 278 739 318 739 q 206 717 231 739 q 172 644 181 694 q 164 508 164 593 l 164 283 q 188 113 164 163 q 279 64 211 64 q 350 85 326 64 q 381 150 374 107 q 388 257 388 193 l 388 301 l 482 301 l 482 263 q 467 120 482 182 q 408 23 453 58 q 278 -12 364 -12 m 271 -283 q 242 -281 257 -283 q 211 -276 226 -279 l 211 -224 q 234 -228 222 -226 q 257 -229 246 -229 q 324 -216 300 -229 q 347 -172 347 -203 q 335 -136 347 -150 q 301 -113 324 -122 q 244 -100 278 -104 l 244 0 l 297 0 l 297 -69 q 393 -100 361 -72 q 425 -174 425 -128 q 406 -235 425 -210 q 353 -272 388 -260 q 271 -283 318 -283 z "},"ĉ":{"ha":540,"x_min":63,"x_max":482,"o":"m 278 -12 q 138 29 183 -12 q 77 142 92 71 q 63 304 63 214 l 63 492 q 81 674 63 603 q 145 781 99 746 q 278 815 192 815 q 407 783 363 815 q 467 693 451 751 q 482 558 482 635 l 482 519 l 388 519 l 388 558 q 377 668 388 629 q 342 723 367 707 q 278 739 318 739 q 206 717 231 739 q 172 644 181 694 q 164 508 164 593 l 164 283 q 188 113 164 163 q 279 64 211 64 q 350 85 326 64 q 381 150 374 107 q 388 257 388 193 l 388 301 l 482 301 l 482 263 q 467 120 482 182 q 408 23 453 58 q 278 -12 364 -12 m 94 878 l 214 1125 l 328 1125 l 446 878 l 371 878 l 269 1074 l 169 878 l 94 878 z "},"ċ":{"ha":540,"x_min":63,"x_max":482,"o":"m 278 -12 q 138 29 183 -12 q 77 142 92 71 q 63 304 63 214 l 63 492 q 81 674 63 603 q 145 781 99 746 q 278 815 192 815 q 407 783 363 815 q 467 693 451 751 q 482 558 482 635 l 482 519 l 388 519 l 388 558 q 377 668 388 629 q 342 723 367 707 q 278 739 318 739 q 206 717 231 739 q 172 644 181 694 q 164 508 164 593 l 164 283 q 188 113 164 163 q 279 64 211 64 q 350 85 326 64 q 381 150 374 107 q 388 257 388 193 l 388 301 l 482 301 l 482 263 q 467 120 482 182 q 408 23 453 58 q 278 -12 364 -12 m 217 936 l 217 1089 l 325 1089 l 325 936 l 217 936 z "},"d":{"ha":574,"x_min":63,"x_max":494,"o":"m 256 -12 q 108 65 153 -12 q 63 324 63 143 l 63 472 q 78 654 63 578 q 134 773 93 731 q 251 815 175 815 q 334 794 299 815 q 393 746 369 772 l 393 1125 l 494 1125 l 494 0 l 393 0 l 393 57 q 335 9 369 31 q 256 -12 301 -12 m 276 68 q 340 83 310 68 q 393 121 369 99 l 393 679 q 342 717 372 699 q 274 736 311 736 q 185 677 207 736 q 164 506 164 618 l 164 315 q 173 179 164 235 q 206 96 182 124 q 276 68 231 68 z "},"ð":{"ha":618,"x_min":75,"x_max":560,"o":"m 310 -14 q 174 26 226 -14 q 99 138 122 65 q 75 311 75 211 l 75 414 q 97 609 76 529 q 165 731 118 689 q 289 772 213 772 q 365 760 331 772 q 425 731 399 747 q 406 835 418 782 q 376 919 394 888 l 225 876 l 225 932 l 349 967 q 263 1044 319 1018 q 111 1076 206 1071 l 115 1146 q 308 1107 231 1142 q 429 993 385 1072 l 560 1029 l 560 972 l 456 944 q 494 835 475 903 q 525 680 513 768 q 538 485 538 592 l 538 339 q 517 149 538 228 q 447 28 497 69 q 310 -14 397 -14 m 313 68 q 392 99 365 68 q 427 194 418 129 q 436 360 436 258 q 435 434 436 392 q 433 520 435 476 q 431 599 432 564 q 428 651 429 635 q 376 678 404 667 q 314 690 347 690 q 236 659 267 690 q 191 558 206 628 q 176 371 176 488 q 188 201 176 269 q 230 101 200 133 q 313 68 260 68 z "},"ď":{"ha":661,"x_min":63,"x_max":681,"o":"m 256 -12 q 108 65 153 -12 q 63 324 63 143 l 63 472 q 78 654 63 578 q 134 773 93 731 q 251 815 175 815 q 334 794 299 815 q 393 746 369 772 l 393 1125 l 494 1125 l 494 0 l 393 0 l 393 57 q 335 9 369 31 q 256 -12 301 -12 m 276 68 q 340 83 310 68 q 393 121 369 99 l 393 679 q 342 717 372 699 q 274 736 311 736 q 185 677 207 736 q 164 506 164 618 l 164 315 q 173 179 164 235 q 206 96 182 124 q 276 68 231 68 m 583 813 l 563 857 q 614 905 599 878 q 629 974 629 932 l 568 974 l 568 1125 l 681 1125 l 681 985 q 658 878 681 917 q 583 813 636 839 z "},"đ":{"ha":593,"x_min":63,"x_max":575,"o":"m 256 -12 q 108 65 153 -12 q 63 324 63 143 l 63 472 q 78 654 63 578 q 134 773 93 731 q 251 815 175 815 q 334 794 299 815 q 393 746 369 772 l 393 953 l 261 953 l 261 1014 l 393 1014 l 393 1125 l 494 1125 l 494 1014 l 575 1014 l 575 953 l 494 953 l 494 0 l 393 0 l 393 57 q 335 9 369 31 q 256 -12 301 -12 m 276 68 q 340 83 310 68 q 393 121 369 99 l 393 679 q 342 717 372 699 q 274 736 311 736 q 185 677 207 736 q 164 506 164 618 l 164 315 q 173 179 164 235 q 206 96 182 124 q 276 68 231 68 z "},"ḋ":{"ha":574,"x_min":63,"x_max":499,"o":"m 256 -12 q 108 65 153 -12 q 63 324 63 143 l 63 472 q 78 654 63 578 q 134 773 93 731 q 251 815 175 815 q 334 794 299 815 q 393 746 369 772 l 393 1125 l 494 1125 l 494 0 l 393 0 l 393 57 q 335 9 369 31 q 256 -12 301 -12 m 276 68 q 340 83 310 68 q 393 121 369 99 l 393 679 q 342 717 372 699 q 274 736 311 736 q 185 677 207 736 q 164 506 164 618 l 164 315 q 173 179 164 235 q 206 96 182 124 q 276 68 231 68 m 390 1258 l 390 1411 l 499 1411 l 499 1258 l 390 1258 z "},"ǳ":{"ha":1036,"x_min":63,"x_max":999,"o":"m 256 -12 q 108 65 153 -12 q 63 324 63 143 l 63 472 q 78 654 63 578 q 134 773 93 731 q 251 815 175 815 q 334 794 299 815 q 393 746 369 772 l 393 1125 l 494 1125 l 494 0 l 393 0 l 393 57 q 335 9 369 31 q 256 -12 301 -12 m 276 68 q 340 83 310 68 q 393 121 369 99 l 393 679 q 342 717 372 699 q 274 736 311 736 q 185 677 207 736 q 164 506 164 618 l 164 315 q 173 179 164 235 q 206 96 182 124 q 276 68 231 68 m 618 0 l 618 71 l 892 725 l 647 725 l 647 803 l 999 803 l 999 742 l 726 78 l 994 78 l 994 0 l 618 0 z "},"ǆ":{"ha":1036,"x_min":63,"x_max":999,"o":"m 256 -12 q 108 65 153 -12 q 63 324 63 143 l 63 472 q 78 654 63 578 q 134 773 93 731 q 251 815 175 815 q 334 794 299 815 q 393 746 369 772 l 393 1125 l 494 1125 l 494 0 l 393 0 l 393 57 q 335 9 369 31 q 256 -12 301 -12 m 276 68 q 340 83 310 68 q 393 121 369 99 l 393 679 q 342 717 372 699 q 274 736 311 736 q 185 677 207 736 q 164 506 164 618 l 164 315 q 173 179 164 235 q 206 96 182 124 q 276 68 231 68 m 618 0 l 618 71 l 892 725 l 647 725 l 647 803 l 999 803 l 999 742 l 726 78 l 994 78 l 994 0 l 618 0 m 760 893 l 642 1125 l 724 1125 l 806 958 l 888 1125 l 969 1125 l 850 893 l 760 893 z "},"e":{"ha":549,"x_min":63,"x_max":489,"o":"m 279 -12 q 156 17 204 -12 q 85 117 108 47 q 63 301 63 186 l 63 504 q 86 691 63 624 q 158 787 110 758 q 281 815 207 815 q 410 779 365 815 q 472 670 454 743 q 489 483 489 597 l 489 411 l 164 411 l 164 271 q 176 148 164 193 q 213 83 188 103 q 279 64 239 64 q 335 76 310 64 q 374 122 360 88 q 389 218 389 156 l 389 274 l 488 274 l 488 229 q 442 53 488 119 q 279 -12 397 -12 m 164 469 l 389 469 l 389 536 q 382 645 389 600 q 352 715 375 690 q 279 739 329 739 q 212 721 238 739 q 175 656 186 703 q 164 524 164 610 l 164 469 z "},"é":{"ha":549,"x_min":63,"x_max":489,"o":"m 279 -12 q 156 17 204 -12 q 85 117 108 47 q 63 301 63 186 l 63 504 q 86 691 63 624 q 158 787 110 758 q 281 815 207 815 q 410 779 365 815 q 472 670 454 743 q 489 483 489 597 l 489 411 l 164 411 l 164 271 q 176 148 164 193 q 213 83 188 103 q 279 64 239 64 q 335 76 310 64 q 374 122 360 88 q 389 218 389 156 l 389 274 l 488 274 l 488 229 q 442 53 488 119 q 279 -12 397 -12 m 164 469 l 389 469 l 389 536 q 382 645 389 600 q 352 715 375 690 q 279 739 329 739 q 212 721 238 739 q 175 656 186 703 q 164 524 164 610 l 164 469 m 249 869 l 336 1142 l 438 1142 l 301 869 l 249 869 z "},"ĕ":{"ha":549,"x_min":63,"x_max":489,"o":"m 279 -12 q 156 17 204 -12 q 85 117 108 47 q 63 301 63 186 l 63 504 q 86 691 63 624 q 158 787 110 758 q 281 815 207 815 q 410 779 365 815 q 472 670 454 743 q 489 483 489 597 l 489 411 l 164 411 l 164 271 q 176 148 164 193 q 213 83 188 103 q 279 64 239 64 q 335 76 310 64 q 374 122 360 88 q 389 218 389 156 l 389 274 l 488 274 l 488 229 q 442 53 488 119 q 279 -12 397 -12 m 164 469 l 389 469 l 389 536 q 382 645 389 600 q 352 715 375 690 q 279 739 329 739 q 212 721 238 739 q 175 656 186 703 q 164 524 164 610 l 164 469 m 274 889 q 151 933 193 889 q 107 1056 110 976 l 172 1056 q 201 975 174 1000 q 274 950 228 950 q 348 975 321 950 q 378 1056 375 1000 l 442 1056 q 398 933 440 976 q 274 889 356 889 z "},"ě":{"ha":549,"x_min":63,"x_max":489,"o":"m 279 -12 q 156 17 204 -12 q 85 117 108 47 q 63 301 63 186 l 63 504 q 86 691 63 624 q 158 787 110 758 q 281 815 207 815 q 410 779 365 815 q 472 670 454 743 q 489 483 489 597 l 489 411 l 164 411 l 164 271 q 176 148 164 193 q 213 83 188 103 q 279 64 239 64 q 335 76 310 64 q 374 122 360 88 q 389 218 389 156 l 389 274 l 488 274 l 488 229 q 442 53 488 119 q 279 -12 397 -12 m 164 469 l 389 469 l 389 536 q 382 645 389 600 q 352 715 375 690 q 279 739 329 739 q 212 721 238 739 q 175 656 186 703 q 164 524 164 610 l 164 469 m 229 893 l 111 1125 l 193 1125 l 275 958 l 357 1125 l 439 1125 l 319 893 l 229 893 z "},"ê":{"ha":549,"x_min":63,"x_max":489,"o":"m 279 -12 q 156 17 204 -12 q 85 117 108 47 q 63 301 63 186 l 63 504 q 86 691 63 624 q 158 787 110 758 q 281 815 207 815 q 410 779 365 815 q 472 670 454 743 q 489 483 489 597 l 489 411 l 164 411 l 164 271 q 176 148 164 193 q 213 83 188 103 q 279 64 239 64 q 335 76 310 64 q 374 122 360 88 q 389 218 389 156 l 389 274 l 488 274 l 488 229 q 442 53 488 119 q 279 -12 397 -12 m 164 469 l 389 469 l 389 536 q 382 645 389 600 q 352 715 375 690 q 279 739 329 739 q 212 721 238 739 q 175 656 186 703 q 164 524 164 610 l 164 469 m 99 878 l 218 1125 l 332 1125 l 450 878 l 375 878 l 274 1074 l 174 878 l 99 878 z "},"ế":{"ha":549,"x_min":63,"x_max":597,"o":"m 279 -12 q 156 17 204 -12 q 85 117 108 47 q 63 301 63 186 l 63 504 q 86 691 63 624 q 158 787 110 758 q 281 815 207 815 q 410 779 365 815 q 472 670 454 743 q 489 483 489 597 l 489 411 l 164 411 l 164 271 q 176 148 164 193 q 213 83 188 103 q 279 64 239 64 q 335 76 310 64 q 374 122 360 88 q 389 218 389 156 l 389 274 l 488 274 l 488 229 q 442 53 488 119 q 279 -12 397 -12 m 164 469 l 389 469 l 389 536 q 382 645 389 600 q 352 715 375 690 q 279 739 329 739 q 212 721 238 739 q 175 656 186 703 q 164 524 164 610 l 164 469 m 99 878 l 218 1081 l 332 1081 l 451 878 l 376 878 l 275 1031 l 174 878 l 99 878 m 431 1010 l 504 1169 l 597 1169 l 499 1010 l 431 1010 z "},"ệ":{"ha":549,"x_min":63,"x_max":489,"o":"m 279 -12 q 156 17 204 -12 q 85 117 108 47 q 63 301 63 186 l 63 504 q 86 691 63 624 q 158 787 110 758 q 281 815 207 815 q 410 779 365 815 q 472 670 454 743 q 489 483 489 597 l 489 411 l 164 411 l 164 271 q 176 148 164 193 q 213 83 188 103 q 279 64 239 64 q 335 76 310 64 q 374 122 360 88 q 389 218 389 156 l 389 274 l 488 274 l 488 229 q 442 53 488 119 q 279 -12 397 -12 m 164 469 l 389 469 l 389 536 q 382 645 389 600 q 352 715 375 690 q 279 739 329 739 q 212 721 238 739 q 175 656 186 703 q 164 524 164 610 l 164 469 m 221 -208 l 221 -85 l 329 -85 l 329 -208 l 221 -208 m 99 878 l 218 1081 l 332 1081 l 451 878 l 376 878 l 275 1031 l 174 878 l 99 878 z "},"ề":{"ha":549,"x_min":63,"x_max":533,"o":"m 279 -12 q 156 17 204 -12 q 85 117 108 47 q 63 301 63 186 l 63 504 q 86 691 63 624 q 158 787 110 758 q 281 815 207 815 q 410 779 365 815 q 472 670 454 743 q 489 483 489 597 l 489 411 l 164 411 l 164 271 q 176 148 164 193 q 213 83 188 103 q 279 64 239 64 q 335 76 310 64 q 374 122 360 88 q 389 218 389 156 l 389 274 l 488 274 l 488 229 q 442 53 488 119 q 279 -12 397 -12 m 164 469 l 389 469 l 389 536 q 382 645 389 600 q 352 715 375 690 q 279 739 329 739 q 212 721 238 739 q 175 656 186 703 q 164 524 164 610 l 164 469 m 99 878 l 218 1081 l 332 1081 l 451 878 l 376 878 l 275 1031 l 174 878 l 99 878 m 467 1010 l 367 1169 l 460 1169 l 533 1010 l 467 1010 z "},"ể":{"ha":549,"x_min":63,"x_max":561,"o":"m 279 -12 q 156 17 204 -12 q 85 117 108 47 q 63 301 63 186 l 63 504 q 86 691 63 624 q 158 787 110 758 q 281 815 207 815 q 410 779 365 815 q 472 670 454 743 q 489 483 489 597 l 489 411 l 164 411 l 164 271 q 176 148 164 193 q 213 83 188 103 q 279 64 239 64 q 335 76 310 64 q 374 122 360 88 q 389 218 389 156 l 389 274 l 488 274 l 488 229 q 442 53 488 119 q 279 -12 397 -12 m 164 469 l 389 469 l 389 536 q 382 645 389 600 q 352 715 375 690 q 279 739 329 739 q 212 721 238 739 q 175 656 186 703 q 164 524 164 610 l 164 469 m 456 997 l 418 1038 q 467 1073 450 1056 q 483 1115 483 1090 q 466 1152 483 1140 q 421 1164 449 1164 q 390 1162 406 1164 q 357 1154 374 1160 l 357 1207 q 401 1217 379 1214 q 443 1219 422 1219 q 528 1195 496 1219 q 561 1122 561 1171 q 530 1046 561 1074 q 456 997 499 1018 m 99 878 l 218 1081 l 332 1081 l 451 878 l 376 878 l 275 1031 l 174 878 l 99 878 z "},"ễ":{"ha":549,"x_min":63,"x_max":489,"o":"m 279 -12 q 156 17 204 -12 q 85 117 108 47 q 63 301 63 186 l 63 504 q 86 691 63 624 q 158 787 110 758 q 281 815 207 815 q 410 779 365 815 q 472 670 454 743 q 489 483 489 597 l 489 411 l 164 411 l 164 271 q 176 148 164 193 q 213 83 188 103 q 279 64 239 64 q 335 76 310 64 q 374 122 360 88 q 389 218 389 156 l 389 274 l 488 274 l 488 229 q 442 53 488 119 q 279 -12 397 -12 m 164 469 l 389 469 l 389 536 q 382 645 389 600 q 352 715 375 690 q 279 739 329 739 q 212 721 238 739 q 175 656 186 703 q 164 524 164 610 l 164 469 m 99 878 l 218 1081 l 332 1081 l 451 878 l 376 878 l 275 1031 l 174 878 l 99 878 m 360 1147 q 300 1164 326 1147 q 251 1197 274 1181 q 203 1214 228 1214 q 169 1200 181 1214 q 157 1158 157 1186 l 94 1158 q 102 1210 94 1182 q 131 1260 110 1239 q 190 1281 151 1281 q 250 1265 224 1281 q 300 1232 276 1249 q 349 1215 324 1215 q 383 1228 372 1215 q 394 1275 394 1242 l 456 1275 q 449 1220 456 1250 q 422 1169 443 1190 q 360 1147 401 1147 z "},"ȅ":{"ha":549,"x_min":38,"x_max":489,"o":"m 279 -12 q 156 17 204 -12 q 85 117 108 47 q 63 301 63 186 l 63 504 q 86 691 63 624 q 158 787 110 758 q 281 815 207 815 q 410 779 365 815 q 472 670 454 743 q 489 483 489 597 l 489 411 l 164 411 l 164 271 q 176 148 164 193 q 213 83 188 103 q 279 64 239 64 q 335 76 310 64 q 374 122 360 88 q 389 218 389 156 l 389 274 l 488 274 l 488 229 q 442 53 488 119 q 279 -12 397 -12 m 164 469 l 389 469 l 389 536 q 382 645 389 600 q 352 715 375 690 q 279 739 329 739 q 212 721 238 739 q 175 656 186 703 q 164 524 164 610 l 164 469 m 171 908 l 38 1125 l 146 1125 l 224 908 l 171 908 m 322 908 l 226 1125 l 317 1125 l 374 908 l 322 908 z "},"ë":{"ha":549,"x_min":63,"x_max":489,"o":"m 279 -12 q 156 17 204 -12 q 85 117 108 47 q 63 301 63 186 l 63 504 q 86 691 63 624 q 158 787 110 758 q 281 815 207 815 q 410 779 365 815 q 472 670 454 743 q 489 483 489 597 l 489 411 l 164 411 l 164 271 q 176 148 164 193 q 213 83 188 103 q 279 64 239 64 q 335 76 310 64 q 374 122 360 88 q 389 218 389 156 l 389 274 l 488 274 l 488 229 q 442 53 488 119 q 279 -12 397 -12 m 164 469 l 389 469 l 389 536 q 382 645 389 600 q 352 715 375 690 q 279 739 329 739 q 212 721 238 739 q 175 656 186 703 q 164 524 164 610 l 164 469 m 339 1001 l 339 1125 l 443 1125 l 443 1001 l 339 1001 m 110 1001 l 110 1125 l 214 1125 l 214 1001 l 110 1001 z "},"ė":{"ha":549,"x_min":63,"x_max":489,"o":"m 279 -12 q 156 17 204 -12 q 85 117 108 47 q 63 301 63 186 l 63 504 q 86 691 63 624 q 158 787 110 758 q 281 815 207 815 q 410 779 365 815 q 472 670 454 743 q 489 483 489 597 l 489 411 l 164 411 l 164 271 q 176 148 164 193 q 213 83 188 103 q 279 64 239 64 q 335 76 310 64 q 374 122 360 88 q 389 218 389 156 l 389 274 l 488 274 l 488 229 q 442 53 488 119 q 279 -12 397 -12 m 164 469 l 389 469 l 389 536 q 382 645 389 600 q 352 715 375 690 q 279 739 329 739 q 212 721 238 739 q 175 656 186 703 q 164 524 164 610 l 164 469 m 221 936 l 221 1089 l 329 1089 l 329 936 l 221 936 z "},"ẹ":{"ha":549,"x_min":63,"x_max":489,"o":"m 279 -12 q 156 17 204 -12 q 85 117 108 47 q 63 301 63 186 l 63 504 q 86 691 63 624 q 158 787 110 758 q 281 815 207 815 q 410 779 365 815 q 472 670 454 743 q 489 483 489 597 l 489 411 l 164 411 l 164 271 q 176 148 164 193 q 213 83 188 103 q 279 64 239 64 q 335 76 310 64 q 374 122 360 88 q 389 218 389 156 l 389 274 l 488 274 l 488 229 q 442 53 488 119 q 279 -12 397 -12 m 164 469 l 389 469 l 389 536 q 382 645 389 600 q 352 715 375 690 q 279 739 329 739 q 212 721 238 739 q 175 656 186 703 q 164 524 164 610 l 164 469 m 221 -208 l 221 -85 l 329 -85 l 329 -208 l 221 -208 z "},"è":{"ha":549,"x_min":63,"x_max":489,"o":"m 279 -12 q 156 17 204 -12 q 85 117 108 47 q 63 301 63 186 l 63 504 q 86 691 63 624 q 158 787 110 758 q 281 815 207 815 q 410 779 365 815 q 472 670 454 743 q 489 483 489 597 l 489 411 l 164 411 l 164 271 q 176 148 164 193 q 213 83 188 103 q 279 64 239 64 q 335 76 310 64 q 374 122 360 88 q 389 218 389 156 l 389 274 l 488 274 l 488 229 q 442 53 488 119 q 279 -12 397 -12 m 164 469 l 389 469 l 389 536 q 382 645 389 600 q 352 715 375 690 q 279 739 329 739 q 212 721 238 739 q 175 656 186 703 q 164 524 164 610 l 164 469 m 249 869 l 121 1142 l 224 1142 l 300 869 l 249 869 z "},"ẻ":{"ha":549,"x_min":63,"x_max":489,"o":"m 279 -12 q 156 17 204 -12 q 85 117 108 47 q 63 301 63 186 l 63 504 q 86 691 63 624 q 158 787 110 758 q 281 815 207 815 q 410 779 365 815 q 472 670 454 743 q 489 483 489 597 l 489 411 l 164 411 l 164 271 q 176 148 164 193 q 213 83 188 103 q 279 64 239 64 q 335 76 310 64 q 374 122 360 88 q 389 218 389 156 l 389 274 l 488 274 l 488 229 q 442 53 488 119 q 279 -12 397 -12 m 164 469 l 389 469 l 389 536 q 382 645 389 600 q 352 715 375 690 q 279 739 329 739 q 212 721 238 739 q 175 656 186 703 q 164 524 164 610 l 164 469 m 275 904 l 238 944 q 294 981 274 963 q 314 1022 314 999 q 295 1060 314 1049 q 242 1072 276 1072 q 210 1070 226 1072 q 176 1064 194 1068 l 176 1117 q 265 1126 221 1126 q 332 1116 304 1126 q 375 1084 360 1106 q 390 1029 390 1063 q 375 974 390 997 q 333 935 360 951 q 275 904 307 918 z "},"ȇ":{"ha":549,"x_min":63,"x_max":489,"o":"m 279 -12 q 156 17 204 -12 q 85 117 108 47 q 63 301 63 186 l 63 504 q 86 691 63 624 q 158 787 110 758 q 281 815 207 815 q 410 779 365 815 q 472 670 454 743 q 489 483 489 597 l 489 411 l 164 411 l 164 271 q 176 148 164 193 q 213 83 188 103 q 279 64 239 64 q 335 76 310 64 q 374 122 360 88 q 389 218 389 156 l 389 274 l 488 274 l 488 229 q 442 53 488 119 q 279 -12 397 -12 m 164 469 l 389 469 l 389 536 q 382 645 389 600 q 352 715 375 690 q 279 739 329 739 q 212 721 238 739 q 175 656 186 703 q 164 524 164 610 l 164 469 m 107 951 q 128 1044 110 1006 q 183 1104 146 1083 q 275 1125 219 1125 q 369 1104 332 1125 q 424 1044 406 1083 q 443 951 442 1006 l 378 951 q 349 1038 376 1014 q 275 1063 322 1063 q 202 1038 229 1063 q 172 951 175 1013 l 107 951 z "},"ē":{"ha":549,"x_min":63,"x_max":489,"o":"m 279 -12 q 156 17 204 -12 q 85 117 108 47 q 63 301 63 186 l 63 504 q 86 691 63 624 q 158 787 110 758 q 281 815 207 815 q 410 779 365 815 q 472 670 454 743 q 489 483 489 597 l 489 411 l 164 411 l 164 271 q 176 148 164 193 q 213 83 188 103 q 279 64 239 64 q 335 76 310 64 q 374 122 360 88 q 389 218 389 156 l 389 274 l 488 274 l 488 229 q 442 53 488 119 q 279 -12 397 -12 m 164 469 l 389 469 l 389 536 q 382 645 389 600 q 352 715 375 690 q 279 739 329 739 q 212 721 238 739 q 175 656 186 703 q 164 524 164 610 l 164 469 m 150 964 l 150 1033 l 400 1033 l 400 964 l 150 964 z "},"ę":{"ha":549,"x_min":63,"x_max":489,"o":"m 279 -12 q 156 17 204 -12 q 85 117 108 47 q 63 301 63 186 l 63 504 q 86 691 63 624 q 158 787 110 758 q 281 815 207 815 q 410 779 365 815 q 472 670 454 743 q 489 483 489 597 l 489 411 l 164 411 l 164 271 q 176 148 164 193 q 213 83 188 103 q 279 64 239 64 q 335 76 310 64 q 374 122 360 88 q 389 218 389 156 l 389 274 l 488 274 l 488 229 q 442 53 488 119 q 279 -12 397 -12 m 164 469 l 389 469 l 389 536 q 382 645 389 600 q 352 715 375 690 q 279 739 329 739 q 212 721 238 739 q 175 656 186 703 q 164 524 164 610 l 164 469 m 338 -281 q 275 -274 304 -281 q 224 -255 246 -268 q 190 -219 201 -242 q 178 -167 178 -197 q 196 -94 178 -129 q 242 -31 214 -60 q 304 14 271 -3 l 358 14 q 309 -39 332 -11 q 272 -96 286 -67 q 257 -154 257 -125 q 288 -211 257 -196 q 361 -226 319 -226 q 378 -226 369 -226 q 393 -224 386 -225 l 378 -278 q 360 -280 371 -279 q 338 -281 349 -281 z "},"ẽ":{"ha":549,"x_min":63,"x_max":489,"o":"m 279 -12 q 156 17 204 -12 q 85 117 108 47 q 63 301 63 186 l 63 504 q 86 691 63 624 q 158 787 110 758 q 281 815 207 815 q 410 779 365 815 q 472 670 454 743 q 489 483 489 597 l 489 411 l 164 411 l 164 271 q 176 148 164 193 q 213 83 188 103 q 279 64 239 64 q 335 76 310 64 q 374 122 360 88 q 389 218 389 156 l 389 274 l 488 274 l 488 229 q 442 53 488 119 q 279 -12 397 -12 m 164 469 l 389 469 l 389 536 q 382 645 389 600 q 352 715 375 690 q 279 739 329 739 q 212 721 238 739 q 175 656 186 703 q 164 524 164 610 l 164 469 m 360 961 q 300 978 326 961 q 251 1011 274 994 q 203 1028 228 1028 q 169 1014 181 1028 q 157 972 157 1000 l 94 972 q 102 1024 94 996 q 131 1074 110 1053 q 190 1094 151 1094 q 250 1078 224 1094 q 300 1046 276 1063 q 349 1029 324 1029 q 383 1042 372 1029 q 394 1089 394 1056 l 456 1089 q 449 1034 456 1064 q 422 983 443 1004 q 360 961 401 961 z "},"ə":{"ha":549,"x_min":60,"x_max":486,"o":"m 268 -14 q 140 22 185 -14 q 77 131 94 57 q 60 317 60 204 l 60 389 l 385 389 l 385 529 q 374 651 385 604 q 338 718 363 697 q 269 739 314 739 q 214 727 239 739 q 174 682 189 715 q 160 585 160 649 l 160 529 l 60 529 l 60 574 q 106 749 60 683 q 269 815 153 815 q 392 785 344 815 q 463 687 440 756 q 486 501 486 618 l 486 296 q 463 110 486 178 q 391 15 439 43 q 268 -14 343 -14 m 269 61 q 336 79 311 61 q 373 144 361 97 q 385 276 385 192 l 385 331 l 160 331 l 160 265 q 167 156 160 203 q 197 85 174 110 q 269 61 221 61 z "},"ʒ":{"ha":586,"x_min":29,"x_max":547,"o":"m 279 -272 q 136 -238 192 -272 q 55 -142 81 -204 q 29 1 29 -81 l 29 29 l 128 29 q 128 18 128 26 q 128 6 128 10 q 162 -136 128 -83 q 279 -189 196 -189 q 369 -165 333 -189 q 424 -90 406 -142 q 443 49 443 -37 q 427 192 443 132 q 373 285 411 253 q 267 317 335 317 l 126 317 l 126 388 l 411 775 l 453 725 l 75 725 l 75 803 l 494 803 l 494 742 l 221 365 l 199 394 l 271 394 q 433 352 372 394 q 520 232 493 310 q 547 49 547 154 q 520 -119 547 -46 q 434 -232 493 -192 q 279 -272 375 -272 z "},"ǯ":{"ha":586,"x_min":29,"x_max":547,"o":"m 279 -272 q 136 -238 192 -272 q 55 -142 81 -204 q 29 1 29 -81 l 29 29 l 128 29 q 128 18 128 26 q 128 6 128 10 q 162 -136 128 -83 q 279 -189 196 -189 q 369 -165 333 -189 q 424 -90 406 -142 q 443 49 443 -37 q 427 192 443 132 q 373 285 411 253 q 267 317 335 317 l 126 317 l 126 388 l 411 775 l 453 725 l 75 725 l 75 803 l 494 803 l 494 742 l 221 365 l 199 394 l 271 394 q 433 352 372 394 q 520 232 493 310 q 547 49 547 154 q 520 -119 547 -46 q 434 -232 493 -192 q 279 -272 375 -272 m 247 893 l 129 1125 l 211 1125 l 293 958 l 375 1125 l 457 1125 l 338 893 l 247 893 z "},"f":{"ha":372,"x_min":25,"x_max":360,"o":"m 128 0 l 128 729 l 25 729 l 25 803 l 128 803 l 128 886 q 138 992 128 946 q 178 1064 147 1038 q 275 1090 210 1090 q 317 1088 297 1090 q 357 1081 338 1086 l 357 1006 q 328 1010 344 1008 q 300 1013 313 1013 q 242 984 254 1013 q 231 896 231 956 l 231 803 l 360 803 l 360 729 l 231 729 l 231 0 l 128 0 z "},"ḟ":{"ha":372,"x_min":25,"x_max":360,"o":"m 128 0 l 128 729 l 25 729 l 25 803 l 128 803 l 128 886 q 138 992 128 946 q 178 1064 147 1038 q 275 1090 210 1090 q 317 1088 297 1090 q 357 1081 338 1086 l 357 1006 q 328 1010 344 1008 q 300 1013 313 1013 q 242 984 254 1013 q 231 896 231 956 l 231 803 l 360 803 l 360 729 l 231 729 l 231 0 l 128 0 m 196 1215 l 196 1368 l 304 1368 l 304 1215 l 196 1215 z "},"g":{"ha":599,"x_min":24,"x_max":615,"o":"m 282 -264 q 144 -249 203 -264 q 55 -201 86 -233 q 24 -118 24 -168 q 43 -44 24 -78 q 93 15 63 -11 q 156 57 124 40 q 88 92 110 69 q 67 144 67 114 q 92 219 67 186 q 163 290 118 253 q 84 390 107 329 q 61 535 61 451 q 85 676 61 613 q 159 777 110 739 q 286 815 208 815 q 397 786 357 815 q 458 715 438 757 q 501 763 471 735 q 567 806 532 792 l 588 813 l 615 742 q 567 726 593 738 q 517 700 540 714 q 483 672 494 686 q 501 604 493 647 q 508 532 508 561 q 487 389 508 453 q 417 288 465 325 q 288 251 369 251 q 244 256 267 251 q 206 264 221 260 q 169 219 186 243 q 151 172 151 194 q 167 142 151 153 q 218 128 183 132 l 346 108 q 495 50 443 94 q 547 -78 547 6 q 513 -182 547 -140 q 420 -244 479 -224 q 282 -264 361 -264 m 286 -182 q 417 -158 367 -182 q 467 -79 467 -133 q 455 -31 467 -51 q 410 5 443 -10 q 315 29 378 19 l 213 43 q 168 9 192 29 q 127 -36 144 -11 q 110 -93 110 -61 q 153 -160 110 -139 q 286 -182 197 -182 m 288 325 q 358 344 332 325 q 397 393 383 363 q 415 461 410 424 q 419 535 419 499 q 414 607 419 571 q 394 674 408 643 q 355 724 381 706 q 288 743 329 743 q 219 724 246 743 q 177 673 192 704 q 158 606 163 642 q 153 535 153 569 q 157 464 153 501 q 176 395 161 426 q 217 344 190 364 q 288 325 244 325 z "},"ǵ":{"ha":599,"x_min":24,"x_max":615,"o":"m 282 -264 q 144 -249 203 -264 q 55 -201 86 -233 q 24 -118 24 -168 q 43 -44 24 -78 q 93 15 63 -11 q 156 57 124 40 q 88 92 110 69 q 67 144 67 114 q 92 219 67 186 q 163 290 118 253 q 84 390 107 329 q 61 535 61 451 q 85 676 61 613 q 159 777 110 739 q 286 815 208 815 q 397 786 357 815 q 458 715 438 757 q 501 763 471 735 q 567 806 532 792 l 588 813 l 615 742 q 567 726 593 738 q 517 700 540 714 q 483 672 494 686 q 501 604 493 647 q 508 532 508 561 q 487 389 508 453 q 417 288 465 325 q 288 251 369 251 q 244 256 267 251 q 206 264 221 260 q 169 219 186 243 q 151 172 151 194 q 167 142 151 153 q 218 128 183 132 l 346 108 q 495 50 443 94 q 547 -78 547 6 q 513 -182 547 -140 q 420 -244 479 -224 q 282 -264 361 -264 m 286 -182 q 417 -158 367 -182 q 467 -79 467 -133 q 455 -31 467 -51 q 410 5 443 -10 q 315 29 378 19 l 213 43 q 168 9 192 29 q 127 -36 144 -11 q 110 -93 110 -61 q 153 -160 110 -139 q 286 -182 197 -182 m 288 325 q 358 344 332 325 q 397 393 383 363 q 415 461 410 424 q 419 535 419 499 q 414 607 419 571 q 394 674 408 643 q 355 724 381 706 q 288 743 329 743 q 219 724 246 743 q 177 673 192 704 q 158 606 163 642 q 153 535 153 569 q 157 464 153 501 q 176 395 161 426 q 217 344 190 364 q 288 325 244 325 m 274 869 l 361 1142 l 463 1142 l 326 869 l 274 869 z "},"ğ":{"ha":599,"x_min":24,"x_max":615,"o":"m 282 -264 q 144 -249 203 -264 q 55 -201 86 -233 q 24 -118 24 -168 q 43 -44 24 -78 q 93 15 63 -11 q 156 57 124 40 q 88 92 110 69 q 67 144 67 114 q 92 219 67 186 q 163 290 118 253 q 84 390 107 329 q 61 535 61 451 q 85 676 61 613 q 159 777 110 739 q 286 815 208 815 q 397 786 357 815 q 458 715 438 757 q 501 763 471 735 q 567 806 532 792 l 588 813 l 615 742 q 567 726 593 738 q 517 700 540 714 q 483 672 494 686 q 501 604 493 647 q 508 532 508 561 q 487 389 508 453 q 417 288 465 325 q 288 251 369 251 q 244 256 267 251 q 206 264 221 260 q 169 219 186 243 q 151 172 151 194 q 167 142 151 153 q 218 128 183 132 l 346 108 q 495 50 443 94 q 547 -78 547 6 q 513 -182 547 -140 q 420 -244 479 -224 q 282 -264 361 -264 m 286 -182 q 417 -158 367 -182 q 467 -79 467 -133 q 455 -31 467 -51 q 410 5 443 -10 q 315 29 378 19 l 213 43 q 168 9 192 29 q 127 -36 144 -11 q 110 -93 110 -61 q 153 -160 110 -139 q 286 -182 197 -182 m 288 325 q 358 344 332 325 q 397 393 383 363 q 415 461 410 424 q 419 535 419 499 q 414 607 419 571 q 394 674 408 643 q 355 724 381 706 q 288 743 329 743 q 219 724 246 743 q 177 673 192 704 q 158 606 163 642 q 153 535 153 569 q 157 464 153 501 q 176 395 161 426 q 217 344 190 364 q 288 325 244 325 m 300 889 q 178 933 219 889 q 133 1056 136 976 l 199 1056 q 227 975 200 1000 q 300 950 254 950 q 374 975 347 950 q 404 1056 401 1000 l 468 1056 q 424 933 467 976 q 300 889 382 889 z "},"ǧ":{"ha":599,"x_min":24,"x_max":615,"o":"m 282 -264 q 144 -249 203 -264 q 55 -201 86 -233 q 24 -118 24 -168 q 43 -44 24 -78 q 93 15 63 -11 q 156 57 124 40 q 88 92 110 69 q 67 144 67 114 q 92 219 67 186 q 163 290 118 253 q 84 390 107 329 q 61 535 61 451 q 85 676 61 613 q 159 777 110 739 q 286 815 208 815 q 397 786 357 815 q 458 715 438 757 q 501 763 471 735 q 567 806 532 792 l 588 813 l 615 742 q 567 726 593 738 q 517 700 540 714 q 483 672 494 686 q 501 604 493 647 q 508 532 508 561 q 487 389 508 453 q 417 288 465 325 q 288 251 369 251 q 244 256 267 251 q 206 264 221 260 q 169 219 186 243 q 151 172 151 194 q 167 142 151 153 q 218 128 183 132 l 346 108 q 495 50 443 94 q 547 -78 547 6 q 513 -182 547 -140 q 420 -244 479 -224 q 282 -264 361 -264 m 286 -182 q 417 -158 367 -182 q 467 -79 467 -133 q 455 -31 467 -51 q 410 5 443 -10 q 315 29 378 19 l 213 43 q 168 9 192 29 q 127 -36 144 -11 q 110 -93 110 -61 q 153 -160 110 -139 q 286 -182 197 -182 m 288 325 q 358 344 332 325 q 397 393 383 363 q 415 461 410 424 q 419 535 419 499 q 414 607 419 571 q 394 674 408 643 q 355 724 381 706 q 288 743 329 743 q 219 724 246 743 q 177 673 192 704 q 158 606 163 642 q 153 535 153 569 q 157 464 153 501 q 176 395 161 426 q 217 344 190 364 q 288 325 244 325 m 254 893 l 136 1125 l 218 1125 l 300 958 l 382 1125 l 464 1125 l 344 893 l 254 893 z "},"ĝ":{"ha":599,"x_min":24,"x_max":615,"o":"m 282 -264 q 144 -249 203 -264 q 55 -201 86 -233 q 24 -118 24 -168 q 43 -44 24 -78 q 93 15 63 -11 q 156 57 124 40 q 88 92 110 69 q 67 144 67 114 q 92 219 67 186 q 163 290 118 253 q 84 390 107 329 q 61 535 61 451 q 85 676 61 613 q 159 777 110 739 q 286 815 208 815 q 397 786 357 815 q 458 715 438 757 q 501 763 471 735 q 567 806 532 792 l 588 813 l 615 742 q 567 726 593 738 q 517 700 540 714 q 483 672 494 686 q 501 604 493 647 q 508 532 508 561 q 487 389 508 453 q 417 288 465 325 q 288 251 369 251 q 244 256 267 251 q 206 264 221 260 q 169 219 186 243 q 151 172 151 194 q 167 142 151 153 q 218 128 183 132 l 346 108 q 495 50 443 94 q 547 -78 547 6 q 513 -182 547 -140 q 420 -244 479 -224 q 282 -264 361 -264 m 286 -182 q 417 -158 367 -182 q 467 -79 467 -133 q 455 -31 467 -51 q 410 5 443 -10 q 315 29 378 19 l 213 43 q 168 9 192 29 q 127 -36 144 -11 q 110 -93 110 -61 q 153 -160 110 -139 q 286 -182 197 -182 m 288 325 q 358 344 332 325 q 397 393 383 363 q 415 461 410 424 q 419 535 419 499 q 414 607 419 571 q 394 674 408 643 q 355 724 381 706 q 288 743 329 743 q 219 724 246 743 q 177 673 192 704 q 158 606 163 642 q 153 535 153 569 q 157 464 153 501 q 176 395 161 426 q 217 344 190 364 q 288 325 244 325 m 124 878 l 243 1125 l 357 1125 l 475 878 l 400 878 l 299 1074 l 199 878 l 124 878 z "},"ģ":{"ha":599,"x_min":24,"x_max":615,"o":"m 335 1163 l 360 1117 q 308 1070 321 1100 q 296 1011 296 1040 l 354 1011 l 354 889 l 242 889 l 242 996 q 260 1106 242 1065 q 335 1163 278 1147 m 282 -264 q 144 -249 203 -264 q 55 -201 86 -233 q 24 -118 24 -168 q 43 -44 24 -78 q 93 15 63 -11 q 156 57 124 40 q 88 92 110 69 q 67 144 67 114 q 92 219 67 186 q 163 290 118 253 q 84 390 107 329 q 61 535 61 451 q 85 676 61 613 q 159 777 110 739 q 286 815 208 815 q 397 786 357 815 q 458 715 438 757 q 501 763 471 735 q 567 806 532 792 l 588 813 l 615 742 q 567 726 593 738 q 517 700 540 714 q 483 672 494 686 q 501 604 493 647 q 508 532 508 561 q 487 389 508 453 q 417 288 465 325 q 288 251 369 251 q 244 256 267 251 q 206 264 221 260 q 169 219 186 243 q 151 172 151 194 q 167 142 151 153 q 218 128 183 132 l 346 108 q 495 50 443 94 q 547 -78 547 6 q 513 -182 547 -140 q 420 -244 479 -224 q 282 -264 361 -264 m 286 -182 q 417 -158 367 -182 q 467 -79 467 -133 q 455 -31 467 -51 q 410 5 443 -10 q 315 29 378 19 l 213 43 q 168 9 192 29 q 127 -36 144 -11 q 110 -93 110 -61 q 153 -160 110 -139 q 286 -182 197 -182 m 288 325 q 358 344 332 325 q 397 393 383 363 q 415 461 410 424 q 419 535 419 499 q 414 607 419 571 q 394 674 408 643 q 355 724 381 706 q 288 743 329 743 q 219 724 246 743 q 177 673 192 704 q 158 606 163 642 q 153 535 153 569 q 157 464 153 501 q 176 395 161 426 q 217 344 190 364 q 288 325 244 325 z "},"ġ":{"ha":599,"x_min":24,"x_max":615,"o":"m 282 -264 q 144 -249 203 -264 q 55 -201 86 -233 q 24 -118 24 -168 q 43 -44 24 -78 q 93 15 63 -11 q 156 57 124 40 q 88 92 110 69 q 67 144 67 114 q 92 219 67 186 q 163 290 118 253 q 84 390 107 329 q 61 535 61 451 q 85 676 61 613 q 159 777 110 739 q 286 815 208 815 q 397 786 357 815 q 458 715 438 757 q 501 763 471 735 q 567 806 532 792 l 588 813 l 615 742 q 567 726 593 738 q 517 700 540 714 q 483 672 494 686 q 501 604 493 647 q 508 532 508 561 q 487 389 508 453 q 417 288 465 325 q 288 251 369 251 q 244 256 267 251 q 206 264 221 260 q 169 219 186 243 q 151 172 151 194 q 167 142 151 153 q 218 128 183 132 l 346 108 q 495 50 443 94 q 547 -78 547 6 q 513 -182 547 -140 q 420 -244 479 -224 q 282 -264 361 -264 m 286 -182 q 417 -158 367 -182 q 467 -79 467 -133 q 455 -31 467 -51 q 410 5 443 -10 q 315 29 378 19 l 213 43 q 168 9 192 29 q 127 -36 144 -11 q 110 -93 110 -61 q 153 -160 110 -139 q 286 -182 197 -182 m 288 325 q 358 344 332 325 q 397 393 383 363 q 415 461 410 424 q 419 535 419 499 q 414 607 419 571 q 394 674 408 643 q 355 724 381 706 q 288 743 329 743 q 219 724 246 743 q 177 673 192 704 q 158 606 163 642 q 153 535 153 569 q 157 464 153 501 q 176 395 161 426 q 217 344 190 364 q 288 325 244 325 m 246 936 l 246 1089 l 354 1089 l 354 936 l 246 936 z "},"ǥ":{"ha":599,"x_min":-24,"x_max":615,"o":"m 282 -264 q 144 -249 203 -264 q 55 -201 86 -233 q 24 -118 24 -168 q 43 -44 24 -78 q 93 15 63 -11 q 156 57 124 40 q 88 92 110 69 q 67 144 67 114 q 92 219 67 186 q 163 290 118 253 q 84 390 107 329 q 61 535 61 451 q 85 676 61 613 q 159 777 110 739 q 286 815 208 815 q 397 786 357 815 q 458 715 438 757 q 501 763 471 735 q 567 806 532 792 l 588 813 l 615 742 q 567 726 593 738 q 517 700 540 714 q 483 672 494 686 q 501 604 493 647 q 508 532 508 561 q 487 389 508 453 q 417 288 465 325 q 288 251 369 251 q 244 256 267 251 q 206 264 221 260 q 169 219 186 243 q 151 172 151 194 q 167 142 151 153 q 218 128 183 132 l 346 108 q 495 50 443 94 q 547 -78 547 6 q 513 -182 547 -140 q 420 -244 479 -224 q 282 -264 361 -264 m -24 -101 l -24 -42 l 593 -42 l 593 -101 l -24 -101 m 286 -182 q 417 -158 367 -182 q 467 -79 467 -133 q 455 -31 467 -51 q 410 5 443 -10 q 315 29 378 19 l 213 43 q 168 9 192 29 q 127 -36 144 -11 q 110 -93 110 -61 q 153 -160 110 -139 q 286 -182 197 -182 m 288 325 q 358 344 332 325 q 397 393 383 363 q 415 461 410 424 q 419 535 419 499 q 414 607 419 571 q 394 674 408 643 q 355 724 381 706 q 288 743 329 743 q 219 724 246 743 q 177 673 192 704 q 158 606 163 642 q 153 535 153 569 q 157 464 153 501 q 176 395 161 426 q 217 344 190 364 q 288 325 244 325 z "},"h":{"ha":572,"x_min":79,"x_max":500,"o":"m 79 0 l 79 1125 l 181 1125 l 181 718 q 269 788 221 761 q 376 815 318 815 q 444 795 417 815 q 485 737 471 775 q 500 644 500 699 l 500 0 l 397 0 l 397 622 q 378 710 397 685 q 321 736 360 736 q 249 715 286 736 q 181 660 213 693 l 181 0 l 79 0 z "},"ħ":{"ha":571,"x_min":-11,"x_max":499,"o":"m 79 0 l 79 968 l -11 968 l -11 1029 l 79 1029 l 79 1125 l 181 1125 l 181 1029 l 347 1029 l 347 968 l 181 968 l 181 718 q 269 788 219 761 q 375 815 318 815 q 443 795 415 815 q 485 737 471 775 q 499 644 499 699 l 499 0 l 397 0 l 397 622 q 378 710 397 685 q 321 736 360 736 q 249 715 286 736 q 181 660 213 693 l 181 0 l 79 0 z "},"ȟ":{"ha":572,"x_min":79,"x_max":518,"o":"m 79 0 l 79 1125 l 181 1125 l 181 718 q 269 788 221 761 q 376 815 318 815 q 444 795 417 815 q 485 737 471 775 q 500 644 500 699 l 500 0 l 397 0 l 397 622 q 378 710 397 685 q 321 736 360 736 q 249 715 286 736 q 181 660 213 693 l 181 0 l 79 0 m 310 1124 l 192 1356 l 274 1356 l 356 1189 l 438 1356 l 519 1356 l 400 1124 l 310 1124 z "},"ĥ":{"ha":572,"x_min":-47,"x_max":500,"o":"m 79 0 l 79 1125 l 181 1125 l 181 718 q 269 788 221 761 q 376 815 318 815 q 444 795 417 815 q 485 737 471 775 q 500 644 500 699 l 500 0 l 397 0 l 397 622 q 378 710 397 685 q 321 736 360 736 q 249 715 286 736 q 181 660 213 693 l 181 0 l 79 0 m -46 1200 l 74 1447 l 188 1447 l 306 1200 l 231 1200 l 129 1396 l 29 1200 l -46 1200 z "},"i":{"ha":283,"x_min":89,"x_max":190,"o":"m 89 0 l 89 803 l 190 803 l 190 0 l 89 0 m 89 914 l 89 1051 l 190 1051 l 190 914 l 89 914 z "},"ı":{"ha":275,"x_min":89,"x_max":190,"o":"m 89 0 l 89 803 l 190 803 l 190 0 l 89 0 z "},"í":{"ha":275,"x_min":89,"x_max":303,"o":"m 89 0 l 89 803 l 190 803 l 190 0 l 89 0 m 114 869 l 201 1142 l 303 1142 l 167 869 l 114 869 z "},"ĭ":{"ha":275,"x_min":-28,"x_max":307,"o":"m 89 0 l 89 803 l 190 803 l 190 0 l 89 0 m 139 889 q 17 933 58 889 q -28 1056 -25 976 l 38 1056 q 66 975 39 1000 q 139 950 93 950 q 213 975 186 950 q 243 1056 240 1000 l 307 1056 q 263 933 306 976 q 139 889 221 889 z "},"î":{"ha":275,"x_min":-37,"x_max":315,"o":"m 89 0 l 89 803 l 190 803 l 190 0 l 89 0 m -36 878 l 83 1125 l 197 1125 l 315 878 l 240 878 l 139 1074 l 39 878 l -36 878 z "},"ȉ":{"ha":275,"x_min":-97,"x_max":239,"o":"m 89 0 l 89 803 l 190 803 l 190 0 l 89 0 m 36 908 l -97 1125 l 11 1125 l 89 908 l 36 908 m 188 908 l 92 1125 l 182 1125 l 239 908 l 188 908 z "},"ï":{"ha":275,"x_min":-26,"x_max":307,"o":"m 89 0 l 89 803 l 190 803 l 190 0 l 89 0 m 203 1001 l 203 1125 l 307 1125 l 307 1001 l 203 1001 m -26 1001 l -26 1125 l 78 1125 l 78 1001 l -26 1001 z "},"ị":{"ha":283,"x_min":89,"x_max":197,"o":"m 89 0 l 89 803 l 190 803 l 190 0 l 89 0 m 89 914 l 89 1051 l 190 1051 l 190 914 l 89 914 m 89 -208 l 89 -85 l 197 -85 l 197 -208 l 89 -208 z "},"ì":{"ha":275,"x_min":-14,"x_max":190,"o":"m 89 0 l 89 803 l 190 803 l 190 0 l 89 0 m 114 869 l -14 1142 l 89 1142 l 165 869 l 114 869 z "},"ỉ":{"ha":275,"x_min":42,"x_max":256,"o":"m 89 0 l 89 803 l 190 803 l 190 0 l 89 0 m 140 904 l 103 944 q 159 981 139 963 q 179 1022 179 999 q 160 1060 179 1049 q 107 1072 142 1072 q 76 1070 92 1072 q 42 1064 60 1068 l 42 1117 q 131 1126 86 1126 q 197 1116 169 1126 q 240 1084 225 1106 q 256 1029 256 1063 q 240 974 256 997 q 199 935 225 951 q 140 904 172 918 z "},"ȋ":{"ha":275,"x_min":-28,"x_max":307,"o":"m 89 0 l 89 803 l 190 803 l 190 0 l 89 0 m -28 951 q -7 1044 -25 1006 q 48 1104 11 1083 q 140 1125 85 1125 q 234 1104 197 1125 q 289 1044 271 1083 q 308 951 307 1006 l 243 951 q 215 1038 242 1014 q 140 1063 188 1063 q 67 1038 94 1063 q 38 951 40 1013 l -28 951 z "},"ĳ":{"ha":579,"x_min":89,"x_max":492,"o":"m 89 0 l 89 803 l 190 803 l 190 0 l 89 0 m 89 914 l 89 1051 l 190 1051 l 190 914 l 89 914 m 314 -211 q 286 -210 304 -211 q 260 -206 268 -208 l 260 -128 q 277 -130 264 -129 q 294 -131 290 -131 q 358 -115 338 -131 q 384 -73 378 -99 q 390 -19 390 -47 l 390 803 l 492 803 l 492 -28 q 444 -167 492 -124 q 314 -211 397 -211 m 390 914 l 390 1051 l 492 1051 l 492 914 l 390 914 z "},"ī":{"ha":275,"x_min":15,"x_max":264,"o":"m 89 0 l 89 803 l 190 803 l 190 0 l 89 0 m 15 964 l 15 1033 l 265 1033 l 265 964 l 15 964 z "},"į":{"ha":283,"x_min":-12,"x_max":201,"o":"m 89 0 l 89 803 l 190 803 l 190 0 l 89 0 m 89 914 l 89 1051 l 190 1051 l 190 914 l 89 914 m 147 -294 q 85 -288 114 -294 q 33 -269 56 -282 q -1 -233 11 -256 q -12 -181 -12 -211 q 6 -108 -12 -143 q 52 -45 24 -74 q 114 0 81 -17 l 168 0 q 119 -53 142 -25 q 81 -110 96 -81 q 67 -168 67 -139 q 98 -225 67 -210 q 171 -240 129 -240 q 188 -240 179 -240 q 203 -237 196 -239 l 188 -292 q 169 -294 181 -293 q 147 -294 158 -294 z "},"ĩ":{"ha":275,"x_min":-40,"x_max":321,"o":"m 89 0 l 89 803 l 190 803 l 190 0 l 89 0 m 225 961 q 165 978 192 961 q 116 1011 139 994 q 68 1028 93 1028 q 34 1014 46 1028 q 22 972 22 1000 l -40 972 q -33 1024 -40 996 q -4 1074 -25 1053 q 56 1094 17 1094 q 115 1078 89 1094 q 165 1046 142 1063 q 214 1029 189 1029 q 249 1042 238 1029 q 260 1089 260 1056 l 321 1089 q 315 1034 321 1064 q 288 983 308 1004 q 225 961 267 961 z "},"j":{"ha":296,"x_min":-24,"x_max":208,"o":"m 31 -211 q 3 -210 21 -211 q -24 -206 -15 -208 l -24 -128 q -6 -130 -19 -129 q 11 -131 7 -131 q 74 -115 54 -131 q 101 -73 94 -99 q 107 -19 107 -47 l 107 803 l 208 803 l 208 -28 q 161 -167 208 -124 q 31 -211 114 -211 m 107 914 l 107 1051 l 208 1051 l 208 914 l 107 914 z "},"ȷ":{"ha":296,"x_min":-24,"x_max":208,"o":"m 31 -211 q 3 -210 21 -211 q -24 -206 -15 -208 l -24 -128 q -6 -130 -19 -129 q 11 -131 7 -131 q 74 -115 54 -131 q 101 -73 94 -99 q 107 -19 107 -47 l 107 803 l 208 803 l 208 -28 q 161 -167 208 -124 q 31 -211 114 -211 z "},"ĵ":{"ha":296,"x_min":-24,"x_max":333,"o":"m 31 -211 q 3 -210 21 -211 q -24 -206 -15 -208 l -24 -128 q -6 -130 -19 -129 q 11 -131 7 -131 q 74 -115 54 -131 q 101 -73 94 -99 q 107 -19 107 -47 l 107 803 l 208 803 l 208 -28 q 161 -167 208 -124 q 31 -211 114 -211 m -18 878 l 101 1125 l 215 1125 l 333 878 l 258 878 l 157 1074 l 57 878 l -18 878 z "},"k":{"ha":556,"x_min":79,"x_max":556,"o":"m 79 0 l 79 1125 l 181 1125 l 181 411 l 449 803 l 556 803 l 353 493 l 547 0 l 444 0 l 275 436 l 181 304 l 181 0 l 79 0 z "},"ǩ":{"ha":556,"x_min":79,"x_max":556,"o":"m 79 0 l 79 1125 l 181 1125 l 181 411 l 449 803 l 556 803 l 353 493 l 547 0 l 444 0 l 275 436 l 181 304 l 181 0 l 79 0 m 303 1128 l 185 1360 l 267 1360 l 349 1193 l 431 1360 l 513 1360 l 393 1128 l 303 1128 z "},"ķ":{"ha":556,"x_min":79,"x_max":556,"o":"m 79 0 l 79 1125 l 181 1125 l 181 411 l 449 803 l 556 803 l 353 493 l 547 0 l 444 0 l 275 436 l 181 304 l 181 0 l 79 0 m 244 -358 l 219 -312 q 272 -266 258 -296 q 285 -207 285 -236 l 225 -207 l 225 -85 l 339 -85 l 338 -192 q 319 -301 338 -260 q 244 -358 301 -342 z "},"ĸ":{"ha":581,"x_min":86,"x_max":550,"o":"m 86 0 l 86 803 l 188 803 l 188 408 l 442 803 l 547 803 l 350 492 l 550 0 l 447 0 l 279 422 l 188 290 l 188 0 l 86 0 z "},"l":{"ha":281,"x_min":92,"x_max":193,"o":"m 92 0 l 92 1125 l 193 1125 l 193 0 l 92 0 z "},"ĺ":{"ha":281,"x_min":92,"x_max":306,"o":"m 92 0 l 92 1125 l 193 1125 l 193 0 l 92 0 m 117 1192 l 204 1464 l 306 1464 l 169 1192 l 117 1192 z "},"ľ":{"ha":360,"x_min":92,"x_max":379,"o":"m 92 0 l 92 1125 l 193 1125 l 193 0 l 92 0 m 282 813 l 261 857 q 313 905 297 878 q 328 974 328 932 l 267 974 l 267 1125 l 379 1125 l 379 985 q 357 878 379 917 q 282 813 335 839 z "},"ļ":{"ha":281,"x_min":83,"x_max":203,"o":"m 92 0 l 92 1125 l 193 1125 l 193 0 l 92 0 m 108 -358 l 83 -312 q 135 -266 122 -296 q 149 -207 149 -236 l 89 -207 l 89 -85 l 203 -85 l 201 -192 q 183 -301 201 -260 q 108 -358 165 -342 z "},"ŀ":{"ha":338,"x_min":92,"x_max":353,"o":"m 92 0 l 92 1125 l 193 1125 l 193 0 l 92 0 m 271 550 l 271 672 l 353 672 l 353 550 l 271 550 z "},"ǉ":{"ha":576,"x_min":92,"x_max":489,"o":"m 92 0 l 92 1125 l 193 1125 l 193 0 l 92 0 m 311 -211 q 283 -210 301 -211 q 257 -206 265 -208 l 257 -128 q 274 -130 261 -129 q 292 -131 288 -131 q 355 -115 335 -131 q 381 -73 375 -99 q 388 -19 388 -47 l 388 803 l 489 803 l 489 -28 q 442 -167 489 -124 q 311 -211 394 -211 m 388 914 l 388 1051 l 489 1051 l 489 914 l 388 914 z "},"ł":{"ha":354,"x_min":39,"x_max":314,"o":"m 129 0 l 129 617 l 39 569 l 39 654 l 129 699 l 129 1125 l 231 1125 l 231 749 l 314 793 l 314 710 l 231 665 l 231 0 l 129 0 z "},"m":{"ha":894,"x_min":78,"x_max":822,"o":"m 78 0 l 78 803 l 172 803 l 172 721 q 261 792 213 768 q 361 817 310 817 q 438 794 403 817 q 489 713 474 772 q 581 790 531 764 q 686 817 631 817 q 752 800 721 817 q 803 743 783 783 q 822 633 822 703 l 822 0 l 728 0 l 728 631 q 705 724 728 701 q 647 747 682 747 q 569 725 608 747 q 496 664 531 703 q 498 649 497 657 q 499 633 499 642 l 499 0 l 403 0 l 403 631 q 380 724 403 701 q 322 747 357 747 q 246 725 285 747 q 172 665 207 703 l 172 0 l 78 0 z "},"ṁ":{"ha":894,"x_min":78,"x_max":822,"o":"m 78 0 l 78 803 l 172 803 l 172 721 q 261 792 213 768 q 361 817 310 817 q 438 794 403 817 q 489 713 474 772 q 581 790 531 764 q 686 817 631 817 q 752 800 721 817 q 803 743 783 783 q 822 633 822 703 l 822 0 l 728 0 l 728 631 q 705 724 728 701 q 647 747 682 747 q 569 725 608 747 q 496 664 531 703 q 498 649 497 657 q 499 633 499 642 l 499 0 l 403 0 l 403 631 q 380 724 403 701 q 322 747 357 747 q 246 725 285 747 q 172 665 207 703 l 172 0 l 78 0 m 394 936 l 394 1089 l 503 1089 l 503 936 l 394 936 z "},"n":{"ha":568,"x_min":78,"x_max":496,"o":"m 78 0 l 78 803 l 179 803 l 179 719 q 267 788 218 761 q 372 815 315 815 q 440 795 413 815 q 482 737 468 775 q 496 644 496 699 l 496 0 l 394 0 l 394 622 q 376 710 394 685 q 318 736 357 736 q 247 715 283 736 q 179 661 211 694 l 179 0 l 78 0 z "},"ń":{"ha":568,"x_min":78,"x_max":496,"o":"m 78 0 l 78 803 l 179 803 l 179 719 q 267 788 218 761 q 372 815 315 815 q 440 795 413 815 q 482 737 468 775 q 496 644 496 699 l 496 0 l 394 0 l 394 622 q 376 710 394 685 q 318 736 357 736 q 247 715 283 736 q 179 661 211 694 l 179 0 l 78 0 m 258 869 l 346 1142 l 447 1142 l 311 869 l 258 869 z "},"ŉ":{"ha":646,"x_min":19,"x_max":582,"o":"m 40 844 l 18 889 q 70 937 56 910 q 85 1006 85 964 l 25 1006 l 25 1157 l 138 1157 l 138 1017 q 115 910 138 949 q 40 844 93 871 m 164 0 l 164 803 l 265 803 l 265 719 q 353 788 304 761 q 458 815 401 815 q 526 795 499 815 q 568 737 554 775 q 582 644 582 699 l 582 0 l 481 0 l 481 622 q 462 710 481 685 q 404 736 443 736 q 333 715 369 736 q 265 661 297 694 l 265 0 l 164 0 z "},"ň":{"ha":568,"x_min":78,"x_max":496,"o":"m 78 0 l 78 803 l 179 803 l 179 719 q 267 788 218 761 q 372 815 315 815 q 440 795 413 815 q 482 737 468 775 q 496 644 496 699 l 496 0 l 394 0 l 394 622 q 376 710 394 685 q 318 736 357 736 q 247 715 283 736 q 179 661 211 694 l 179 0 l 78 0 m 239 893 l 121 1125 l 203 1125 l 285 958 l 367 1125 l 449 1125 l 329 893 l 239 893 z "},"ņ":{"ha":568,"x_min":78,"x_max":496,"o":"m 78 0 l 78 803 l 179 803 l 179 719 q 267 788 218 761 q 372 815 315 815 q 440 795 413 815 q 482 737 468 775 q 496 644 496 699 l 496 0 l 394 0 l 394 622 q 376 710 394 685 q 318 736 357 736 q 247 715 283 736 q 179 661 211 694 l 179 0 l 78 0 m 250 -358 l 225 -312 q 277 -266 264 -296 q 290 -207 290 -236 l 231 -207 l 231 -85 l 344 -85 l 343 -192 q 325 -301 343 -260 q 250 -358 307 -342 z "},"ŋ":{"ha":539,"x_min":69,"x_max":489,"o":"m 222 -231 l 222 -151 q 326 -134 292 -151 q 374 -85 361 -117 q 386 -7 386 -53 l 386 622 q 367 710 386 685 q 310 736 349 736 q 240 715 275 736 q 172 661 204 694 l 172 0 l 69 0 l 69 803 l 172 803 l 172 719 q 259 788 211 761 q 364 815 307 815 q 432 795 404 815 q 474 737 460 775 q 489 644 489 699 l 489 -8 q 457 -140 489 -90 q 371 -210 425 -189 q 250 -231 317 -231 l 222 -231 z "},"ǌ":{"ha":864,"x_min":78,"x_max":776,"o":"m 78 0 l 78 803 l 179 803 l 179 719 q 267 788 218 761 q 372 815 315 815 q 440 795 413 815 q 482 737 468 775 q 496 644 496 699 l 496 0 l 394 0 l 394 622 q 376 710 394 685 q 318 736 357 736 q 247 715 283 736 q 179 661 211 694 l 179 0 l 78 0 m 599 -211 q 571 -210 589 -211 q 544 -206 553 -208 l 544 -128 q 562 -130 549 -129 q 579 -131 575 -131 q 642 -115 622 -131 q 669 -73 663 -99 q 675 -19 675 -47 l 675 803 l 776 803 l 776 -28 q 729 -167 776 -124 q 599 -211 682 -211 m 675 914 l 675 1051 l 776 1051 l 776 914 l 675 914 z "},"ñ":{"ha":568,"x_min":78,"x_max":496,"o":"m 78 0 l 78 803 l 179 803 l 179 719 q 267 788 218 761 q 372 815 315 815 q 440 795 413 815 q 482 737 468 775 q 496 644 496 699 l 496 0 l 394 0 l 394 622 q 376 710 394 685 q 318 736 357 736 q 247 715 283 736 q 179 661 211 694 l 179 0 l 78 0 m 369 961 q 310 978 336 961 q 260 1011 283 994 q 213 1028 238 1028 q 178 1014 190 1028 q 167 972 167 1000 l 104 972 q 112 1024 104 996 q 140 1074 119 1053 q 200 1094 161 1094 q 260 1078 233 1094 q 310 1046 286 1063 q 358 1029 333 1029 q 393 1042 382 1029 q 404 1089 404 1056 l 465 1089 q 459 1034 465 1064 q 432 983 453 1004 q 369 961 411 961 z "},"o":{"ha":554,"x_min":63,"x_max":492,"o":"m 276 -12 q 148 23 194 -12 q 82 126 101 58 q 63 290 63 193 l 63 513 q 82 677 63 610 q 148 780 101 744 q 276 815 194 815 q 407 780 361 815 q 472 677 453 744 q 492 513 492 610 l 492 290 q 472 126 492 193 q 407 23 453 58 q 276 -12 361 -12 m 276 64 q 353 92 329 64 q 383 170 378 119 q 389 285 389 221 l 389 518 q 383 633 389 583 q 353 710 378 682 q 276 739 329 739 q 200 710 224 739 q 171 633 176 682 q 165 518 165 583 l 165 285 q 171 170 165 221 q 200 92 176 119 q 276 64 224 64 z "},"ó":{"ha":554,"x_min":63,"x_max":492,"o":"m 276 -12 q 148 23 194 -12 q 82 126 101 58 q 63 290 63 193 l 63 513 q 82 677 63 610 q 148 780 101 744 q 276 815 194 815 q 407 780 361 815 q 472 677 453 744 q 492 513 492 610 l 492 290 q 472 126 492 193 q 407 23 453 58 q 276 -12 361 -12 m 276 64 q 353 92 329 64 q 383 170 378 119 q 389 285 389 221 l 389 518 q 383 633 389 583 q 353 710 378 682 q 276 739 329 739 q 200 710 224 739 q 171 633 176 682 q 165 518 165 583 l 165 285 q 171 170 165 221 q 200 92 176 119 q 276 64 224 64 m 251 869 l 339 1142 l 440 1142 l 304 869 l 251 869 z "},"ŏ":{"ha":554,"x_min":63,"x_max":492,"o":"m 276 -12 q 148 23 194 -12 q 82 126 101 58 q 63 290 63 193 l 63 513 q 82 677 63 610 q 148 780 101 744 q 276 815 194 815 q 407 780 361 815 q 472 677 453 744 q 492 513 492 610 l 492 290 q 472 126 492 193 q 407 23 453 58 q 276 -12 361 -12 m 276 64 q 353 92 329 64 q 383 170 378 119 q 389 285 389 221 l 389 518 q 383 633 389 583 q 353 710 378 682 q 276 739 329 739 q 200 710 224 739 q 171 633 176 682 q 165 518 165 583 l 165 285 q 171 170 165 221 q 200 92 176 119 q 276 64 224 64 m 276 889 q 154 933 196 889 q 110 1056 113 976 l 175 1056 q 203 975 176 1000 q 276 950 231 950 q 351 975 324 950 q 381 1056 378 1000 l 444 1056 q 401 933 443 976 q 276 889 358 889 z "},"ô":{"ha":554,"x_min":63,"x_max":492,"o":"m 276 -12 q 148 23 194 -12 q 82 126 101 58 q 63 290 63 193 l 63 513 q 82 677 63 610 q 148 780 101 744 q 276 815 194 815 q 407 780 361 815 q 472 677 453 744 q 492 513 492 610 l 492 290 q 472 126 492 193 q 407 23 453 58 q 276 -12 361 -12 m 276 64 q 353 92 329 64 q 383 170 378 119 q 389 285 389 221 l 389 518 q 383 633 389 583 q 353 710 378 682 q 276 739 329 739 q 200 710 224 739 q 171 633 176 682 q 165 518 165 583 l 165 285 q 171 170 165 221 q 200 92 176 119 q 276 64 224 64 m 101 878 l 221 1125 l 335 1125 l 453 878 l 378 878 l 276 1074 l 176 878 l 101 878 z "},"ố":{"ha":554,"x_min":63,"x_max":600,"o":"m 276 -12 q 148 23 194 -12 q 82 126 101 58 q 63 290 63 193 l 63 513 q 82 677 63 610 q 148 780 101 744 q 276 815 194 815 q 407 780 361 815 q 472 677 453 744 q 492 513 492 610 l 492 290 q 472 126 492 193 q 407 23 453 58 q 276 -12 361 -12 m 276 64 q 353 92 329 64 q 383 170 378 119 q 389 285 389 221 l 389 518 q 383 633 389 583 q 353 710 378 682 q 276 739 329 739 q 200 710 224 739 q 171 633 176 682 q 165 518 165 583 l 165 285 q 171 170 165 221 q 200 92 176 119 q 276 64 224 64 m 101 878 l 221 1081 l 335 1081 l 454 878 l 379 878 l 278 1031 l 176 878 l 101 878 m 433 1010 l 507 1169 l 600 1169 l 501 1010 l 433 1010 z "},"ộ":{"ha":554,"x_min":63,"x_max":492,"o":"m 276 -12 q 148 23 194 -12 q 82 126 101 58 q 63 290 63 193 l 63 513 q 82 677 63 610 q 148 780 101 744 q 276 815 194 815 q 407 780 361 815 q 472 677 453 744 q 492 513 492 610 l 492 290 q 472 126 492 193 q 407 23 453 58 q 276 -12 361 -12 m 276 64 q 353 92 329 64 q 383 170 378 119 q 389 285 389 221 l 389 518 q 383 633 389 583 q 353 710 378 682 q 276 739 329 739 q 200 710 224 739 q 171 633 176 682 q 165 518 165 583 l 165 285 q 171 170 165 221 q 200 92 176 119 q 276 64 224 64 m 224 -208 l 224 -85 l 332 -85 l 332 -208 l 224 -208 m 101 878 l 221 1081 l 335 1081 l 454 878 l 379 878 l 278 1031 l 176 878 l 101 878 z "},"ồ":{"ha":554,"x_min":63,"x_max":536,"o":"m 276 -12 q 148 23 194 -12 q 82 126 101 58 q 63 290 63 193 l 63 513 q 82 677 63 610 q 148 780 101 744 q 276 815 194 815 q 407 780 361 815 q 472 677 453 744 q 492 513 492 610 l 492 290 q 472 126 492 193 q 407 23 453 58 q 276 -12 361 -12 m 276 64 q 353 92 329 64 q 383 170 378 119 q 389 285 389 221 l 389 518 q 383 633 389 583 q 353 710 378 682 q 276 739 329 739 q 200 710 224 739 q 171 633 176 682 q 165 518 165 583 l 165 285 q 171 170 165 221 q 200 92 176 119 q 276 64 224 64 m 101 878 l 221 1081 l 335 1081 l 454 878 l 379 878 l 278 1031 l 176 878 l 101 878 m 469 1010 l 369 1169 l 463 1169 l 536 1010 l 469 1010 z "},"ổ":{"ha":554,"x_min":63,"x_max":564,"o":"m 276 -12 q 148 23 194 -12 q 82 126 101 58 q 63 290 63 193 l 63 513 q 82 677 63 610 q 148 780 101 744 q 276 815 194 815 q 407 780 361 815 q 472 677 453 744 q 492 513 492 610 l 492 290 q 472 126 492 193 q 407 23 453 58 q 276 -12 361 -12 m 276 64 q 353 92 329 64 q 383 170 378 119 q 389 285 389 221 l 389 518 q 383 633 389 583 q 353 710 378 682 q 276 739 329 739 q 200 710 224 739 q 171 633 176 682 q 165 518 165 583 l 165 285 q 171 170 165 221 q 200 92 176 119 q 276 64 224 64 m 458 997 l 421 1038 q 469 1073 453 1056 q 486 1115 486 1090 q 469 1152 486 1140 q 424 1164 451 1164 q 392 1162 408 1164 q 360 1154 376 1160 l 360 1207 q 403 1217 382 1214 q 446 1219 425 1219 q 531 1195 499 1219 q 564 1122 564 1171 q 533 1046 564 1074 q 458 997 501 1018 m 101 878 l 221 1081 l 335 1081 l 454 878 l 379 878 l 278 1031 l 176 878 l 101 878 z "},"ỗ":{"ha":554,"x_min":63,"x_max":492,"o":"m 276 -12 q 148 23 194 -12 q 82 126 101 58 q 63 290 63 193 l 63 513 q 82 677 63 610 q 148 780 101 744 q 276 815 194 815 q 407 780 361 815 q 472 677 453 744 q 492 513 492 610 l 492 290 q 472 126 492 193 q 407 23 453 58 q 276 -12 361 -12 m 276 64 q 353 92 329 64 q 383 170 378 119 q 389 285 389 221 l 389 518 q 383 633 389 583 q 353 710 378 682 q 276 739 329 739 q 200 710 224 739 q 171 633 176 682 q 165 518 165 583 l 165 285 q 171 170 165 221 q 200 92 176 119 q 276 64 224 64 m 101 878 l 221 1081 l 335 1081 l 454 878 l 379 878 l 278 1031 l 176 878 l 101 878 m 363 1147 q 303 1164 329 1147 q 253 1197 276 1181 q 206 1214 231 1214 q 172 1200 183 1214 q 160 1158 160 1186 l 97 1158 q 105 1210 97 1182 q 133 1260 113 1239 q 193 1281 154 1281 q 253 1265 226 1281 q 303 1232 279 1249 q 351 1215 326 1215 q 386 1228 375 1215 q 397 1275 397 1242 l 458 1275 q 452 1220 458 1250 q 425 1169 446 1190 q 363 1147 404 1147 z "},"ȍ":{"ha":554,"x_min":40,"x_max":492,"o":"m 276 -12 q 148 23 194 -12 q 82 126 101 58 q 63 290 63 193 l 63 513 q 82 677 63 610 q 148 780 101 744 q 276 815 194 815 q 407 780 361 815 q 472 677 453 744 q 492 513 492 610 l 492 290 q 472 126 492 193 q 407 23 453 58 q 276 -12 361 -12 m 276 64 q 353 92 329 64 q 383 170 378 119 q 389 285 389 221 l 389 518 q 383 633 389 583 q 353 710 378 682 q 276 739 329 739 q 200 710 224 739 q 171 633 176 682 q 165 518 165 583 l 165 285 q 171 170 165 221 q 200 92 176 119 q 276 64 224 64 m 174 908 l 40 1125 l 149 1125 l 226 908 l 174 908 m 325 908 l 229 1125 l 319 1125 l 376 908 l 325 908 z "},"ö":{"ha":554,"x_min":63,"x_max":492,"o":"m 276 -12 q 148 23 194 -12 q 82 126 101 58 q 63 290 63 193 l 63 513 q 82 677 63 610 q 148 780 101 744 q 276 815 194 815 q 407 780 361 815 q 472 677 453 744 q 492 513 492 610 l 492 290 q 472 126 492 193 q 407 23 453 58 q 276 -12 361 -12 m 276 64 q 353 92 329 64 q 383 170 378 119 q 389 285 389 221 l 389 518 q 383 633 389 583 q 353 710 378 682 q 276 739 329 739 q 200 710 224 739 q 171 633 176 682 q 165 518 165 583 l 165 285 q 171 170 165 221 q 200 92 176 119 q 276 64 224 64 m 342 1001 l 342 1125 l 446 1125 l 446 1001 l 342 1001 m 113 1001 l 113 1125 l 217 1125 l 217 1001 l 113 1001 z "},"ȫ":{"ha":554,"x_min":63,"x_max":492,"o":"m 276 -12 q 148 23 194 -12 q 82 126 101 58 q 63 290 63 193 l 63 513 q 82 677 63 610 q 148 780 101 744 q 276 815 194 815 q 407 780 361 815 q 472 677 453 744 q 492 513 492 610 l 492 290 q 472 126 492 193 q 407 23 453 58 q 276 -12 361 -12 m 276 64 q 353 92 329 64 q 383 170 378 119 q 389 285 389 221 l 389 518 q 383 633 389 583 q 353 710 378 682 q 276 739 329 739 q 200 710 224 739 q 171 633 176 682 q 165 518 165 583 l 165 285 q 171 170 165 221 q 200 92 176 119 q 276 64 224 64 m 342 1001 l 342 1125 l 446 1125 l 446 1001 l 342 1001 m 113 1001 l 113 1125 l 217 1125 l 217 1001 l 113 1001 m 153 1286 l 153 1356 l 403 1356 l 403 1286 l 153 1286 z "},"ȱ":{"ha":554,"x_min":63,"x_max":492,"o":"m 276 -12 q 148 23 194 -12 q 82 126 101 58 q 63 290 63 193 l 63 513 q 82 677 63 610 q 148 780 101 744 q 276 815 194 815 q 407 780 361 815 q 472 677 453 744 q 492 513 492 610 l 492 290 q 472 126 492 193 q 407 23 453 58 q 276 -12 361 -12 m 276 64 q 353 92 329 64 q 383 170 378 119 q 389 285 389 221 l 389 518 q 383 633 389 583 q 353 710 378 682 q 276 739 329 739 q 200 710 224 739 q 171 633 176 682 q 165 518 165 583 l 165 285 q 171 170 165 221 q 200 92 176 119 q 276 64 224 64 m 224 936 l 224 1089 l 332 1089 l 332 936 l 224 936 m 153 1250 l 153 1319 l 403 1319 l 403 1250 l 153 1250 z "},"ọ":{"ha":554,"x_min":63,"x_max":492,"o":"m 276 -12 q 148 23 194 -12 q 82 126 101 58 q 63 290 63 193 l 63 513 q 82 677 63 610 q 148 780 101 744 q 276 815 194 815 q 407 780 361 815 q 472 677 453 744 q 492 513 492 610 l 492 290 q 472 126 492 193 q 407 23 453 58 q 276 -12 361 -12 m 276 64 q 353 92 329 64 q 383 170 378 119 q 389 285 389 221 l 389 518 q 383 633 389 583 q 353 710 378 682 q 276 739 329 739 q 200 710 224 739 q 171 633 176 682 q 165 518 165 583 l 165 285 q 171 170 165 221 q 200 92 176 119 q 276 64 224 64 m 224 -208 l 224 -85 l 332 -85 l 332 -208 l 224 -208 z "},"ò":{"ha":554,"x_min":63,"x_max":492,"o":"m 276 -12 q 148 23 194 -12 q 82 126 101 58 q 63 290 63 193 l 63 513 q 82 677 63 610 q 148 780 101 744 q 276 815 194 815 q 407 780 361 815 q 472 677 453 744 q 492 513 492 610 l 492 290 q 472 126 492 193 q 407 23 453 58 q 276 -12 361 -12 m 276 64 q 353 92 329 64 q 383 170 378 119 q 389 285 389 221 l 389 518 q 383 633 389 583 q 353 710 378 682 q 276 739 329 739 q 200 710 224 739 q 171 633 176 682 q 165 518 165 583 l 165 285 q 171 170 165 221 q 200 92 176 119 q 276 64 224 64 m 251 869 l 124 1142 l 226 1142 l 303 869 l 251 869 z "},"ỏ":{"ha":554,"x_min":63,"x_max":492,"o":"m 276 -12 q 148 23 194 -12 q 82 126 101 58 q 63 290 63 193 l 63 513 q 82 677 63 610 q 148 780 101 744 q 276 815 194 815 q 407 780 361 815 q 472 677 453 744 q 492 513 492 610 l 492 290 q 472 126 492 193 q 407 23 453 58 q 276 -12 361 -12 m 276 64 q 353 92 329 64 q 383 170 378 119 q 389 285 389 221 l 389 518 q 383 633 389 583 q 353 710 378 682 q 276 739 329 739 q 200 710 224 739 q 171 633 176 682 q 165 518 165 583 l 165 285 q 171 170 165 221 q 200 92 176 119 q 276 64 224 64 m 278 904 l 240 944 q 297 981 276 963 q 317 1022 317 999 q 298 1060 317 1049 q 244 1072 279 1072 q 213 1070 229 1072 q 179 1064 197 1068 l 179 1117 q 268 1126 224 1126 q 335 1116 307 1126 q 378 1084 363 1106 q 393 1029 393 1063 q 378 974 393 997 q 336 935 363 951 q 278 904 310 918 z "},"ơ":{"ha":554,"x_min":63,"x_max":492,"o":"m 276 -12 q 148 23 194 -12 q 82 126 101 58 q 63 290 63 193 l 63 513 q 82 677 63 610 q 148 780 101 744 q 276 815 194 815 q 407 780 361 815 q 472 677 453 744 q 492 513 492 610 l 492 290 q 472 126 492 193 q 407 23 453 58 q 276 -12 361 -12 m 276 64 q 353 92 329 64 q 383 170 378 119 q 389 285 389 221 l 389 518 q 383 633 389 583 q 353 710 378 682 q 276 739 329 739 q 200 710 224 739 q 171 633 176 682 q 165 518 165 583 l 165 285 q 171 170 165 221 q 200 92 176 119 q 276 64 224 64 m 324 744 l 324 803 l 338 803 q 396 826 379 803 q 413 896 413 850 l 492 896 q 452 782 492 819 q 340 744 413 744 l 324 744 z "},"ớ":{"ha":554,"x_min":63,"x_max":492,"o":"m 276 -12 q 148 23 194 -12 q 82 126 101 58 q 63 290 63 193 l 63 513 q 82 677 63 610 q 148 780 101 744 q 276 815 194 815 q 407 780 361 815 q 472 677 453 744 q 492 513 492 610 l 492 290 q 472 126 492 193 q 407 23 453 58 q 276 -12 361 -12 m 276 64 q 353 92 329 64 q 383 170 378 119 q 389 285 389 221 l 389 518 q 383 633 389 583 q 353 710 378 682 q 276 739 329 739 q 200 710 224 739 q 171 633 176 682 q 165 518 165 583 l 165 285 q 171 170 165 221 q 200 92 176 119 q 276 64 224 64 m 324 744 l 324 803 l 338 803 q 396 826 379 803 q 413 896 413 850 l 492 896 q 452 782 492 819 q 340 744 413 744 l 324 744 m 251 869 l 339 1142 l 440 1142 l 304 869 l 251 869 z "},"ợ":{"ha":554,"x_min":63,"x_max":492,"o":"m 276 -12 q 148 23 194 -12 q 82 126 101 58 q 63 290 63 193 l 63 513 q 82 677 63 610 q 148 780 101 744 q 276 815 194 815 q 407 780 361 815 q 472 677 453 744 q 492 513 492 610 l 492 290 q 472 126 492 193 q 407 23 453 58 q 276 -12 361 -12 m 276 64 q 353 92 329 64 q 383 170 378 119 q 389 285 389 221 l 389 518 q 383 633 389 583 q 353 710 378 682 q 276 739 329 739 q 200 710 224 739 q 171 633 176 682 q 165 518 165 583 l 165 285 q 171 170 165 221 q 200 92 176 119 q 276 64 224 64 m 324 744 l 324 803 l 338 803 q 396 826 379 803 q 413 896 413 850 l 492 896 q 452 782 492 819 q 340 744 413 744 l 324 744 m 224 -208 l 224 -85 l 332 -85 l 332 -208 l 224 -208 z "},"ờ":{"ha":554,"x_min":63,"x_max":492,"o":"m 276 -12 q 148 23 194 -12 q 82 126 101 58 q 63 290 63 193 l 63 513 q 82 677 63 610 q 148 780 101 744 q 276 815 194 815 q 407 780 361 815 q 472 677 453 744 q 492 513 492 610 l 492 290 q 472 126 492 193 q 407 23 453 58 q 276 -12 361 -12 m 276 64 q 353 92 329 64 q 383 170 378 119 q 389 285 389 221 l 389 518 q 383 633 389 583 q 353 710 378 682 q 276 739 329 739 q 200 710 224 739 q 171 633 176 682 q 165 518 165 583 l 165 285 q 171 170 165 221 q 200 92 176 119 q 276 64 224 64 m 324 744 l 324 803 l 338 803 q 396 826 379 803 q 413 896 413 850 l 492 896 q 452 782 492 819 q 340 744 413 744 l 324 744 m 251 869 l 124 1142 l 226 1142 l 303 869 l 251 869 z "},"ở":{"ha":554,"x_min":63,"x_max":492,"o":"m 276 -12 q 148 23 194 -12 q 82 126 101 58 q 63 290 63 193 l 63 513 q 82 677 63 610 q 148 780 101 744 q 276 815 194 815 q 407 780 361 815 q 472 677 453 744 q 492 513 492 610 l 492 290 q 472 126 492 193 q 407 23 453 58 q 276 -12 361 -12 m 276 64 q 353 92 329 64 q 383 170 378 119 q 389 285 389 221 l 389 518 q 383 633 389 583 q 353 710 378 682 q 276 739 329 739 q 200 710 224 739 q 171 633 176 682 q 165 518 165 583 l 165 285 q 171 170 165 221 q 200 92 176 119 q 276 64 224 64 m 324 744 l 324 803 l 338 803 q 396 826 379 803 q 413 896 413 850 l 492 896 q 452 782 492 819 q 340 744 413 744 l 324 744 m 278 904 l 240 944 q 297 981 276 963 q 317 1022 317 999 q 298 1060 317 1049 q 244 1072 279 1072 q 213 1070 229 1072 q 179 1064 197 1068 l 179 1117 q 268 1126 224 1126 q 335 1116 307 1126 q 378 1084 363 1106 q 393 1029 393 1063 q 378 974 393 997 q 336 935 363 951 q 278 904 310 918 z "},"ỡ":{"ha":554,"x_min":63,"x_max":492,"o":"m 276 -12 q 148 23 194 -12 q 82 126 101 58 q 63 290 63 193 l 63 513 q 82 677 63 610 q 148 780 101 744 q 276 815 194 815 q 407 780 361 815 q 472 677 453 744 q 492 513 492 610 l 492 290 q 472 126 492 193 q 407 23 453 58 q 276 -12 361 -12 m 276 64 q 353 92 329 64 q 383 170 378 119 q 389 285 389 221 l 389 518 q 383 633 389 583 q 353 710 378 682 q 276 739 329 739 q 200 710 224 739 q 171 633 176 682 q 165 518 165 583 l 165 285 q 171 170 165 221 q 200 92 176 119 q 276 64 224 64 m 324 744 l 324 803 l 338 803 q 396 826 379 803 q 413 896 413 850 l 492 896 q 452 782 492 819 q 340 744 413 744 l 324 744 m 363 961 q 303 978 329 961 q 253 1011 276 994 q 206 1028 231 1028 q 172 1014 183 1028 q 160 972 160 1000 l 97 972 q 105 1024 97 996 q 133 1074 113 1053 q 193 1094 154 1094 q 253 1078 226 1094 q 303 1046 279 1063 q 351 1029 326 1029 q 386 1042 375 1029 q 397 1089 397 1056 l 458 1089 q 452 1034 458 1064 q 425 983 446 1004 q 363 961 404 961 z "},"ő":{"ha":554,"x_min":63,"x_max":517,"o":"m 276 -12 q 148 23 194 -12 q 82 126 101 58 q 63 290 63 193 l 63 513 q 82 677 63 610 q 148 780 101 744 q 276 815 194 815 q 407 780 361 815 q 472 677 453 744 q 492 513 492 610 l 492 290 q 472 126 492 193 q 407 23 453 58 q 276 -12 361 -12 m 276 64 q 353 92 329 64 q 383 170 378 119 q 389 285 389 221 l 389 518 q 383 633 389 583 q 353 710 378 682 q 276 739 329 739 q 200 710 224 739 q 171 633 176 682 q 165 518 165 583 l 165 285 q 171 170 165 221 q 200 92 176 119 q 276 64 224 64 m 331 913 l 407 1135 l 517 1135 l 386 913 l 331 913 m 188 913 l 242 1135 l 333 1135 l 242 913 l 188 913 z "},"ȏ":{"ha":554,"x_min":63,"x_max":492,"o":"m 276 -12 q 148 23 194 -12 q 82 126 101 58 q 63 290 63 193 l 63 513 q 82 677 63 610 q 148 780 101 744 q 276 815 194 815 q 407 780 361 815 q 472 677 453 744 q 492 513 492 610 l 492 290 q 472 126 492 193 q 407 23 453 58 q 276 -12 361 -12 m 276 64 q 353 92 329 64 q 383 170 378 119 q 389 285 389 221 l 389 518 q 383 633 389 583 q 353 710 378 682 q 276 739 329 739 q 200 710 224 739 q 171 633 176 682 q 165 518 165 583 l 165 285 q 171 170 165 221 q 200 92 176 119 q 276 64 224 64 m 110 951 q 131 1044 113 1006 q 185 1104 149 1083 q 278 1125 222 1125 q 372 1104 335 1125 q 426 1044 408 1083 q 446 951 444 1006 l 381 951 q 352 1038 379 1014 q 278 1063 325 1063 q 205 1038 232 1063 q 175 951 178 1013 l 110 951 z "},"ō":{"ha":554,"x_min":63,"x_max":492,"o":"m 276 -12 q 148 23 194 -12 q 82 126 101 58 q 63 290 63 193 l 63 513 q 82 677 63 610 q 148 780 101 744 q 276 815 194 815 q 407 780 361 815 q 472 677 453 744 q 492 513 492 610 l 492 290 q 472 126 492 193 q 407 23 453 58 q 276 -12 361 -12 m 276 64 q 353 92 329 64 q 383 170 378 119 q 389 285 389 221 l 389 518 q 383 633 389 583 q 353 710 378 682 q 276 739 329 739 q 200 710 224 739 q 171 633 176 682 q 165 518 165 583 l 165 285 q 171 170 165 221 q 200 92 176 119 q 276 64 224 64 m 153 964 l 153 1033 l 403 1033 l 403 964 l 153 964 z "},"ǫ":{"ha":554,"x_min":63,"x_max":492,"o":"m 276 -12 q 148 23 194 -12 q 82 126 101 58 q 63 290 63 193 l 63 513 q 82 677 63 610 q 148 780 101 744 q 276 815 194 815 q 407 780 361 815 q 472 677 453 744 q 492 513 492 610 l 492 290 q 472 126 492 193 q 407 23 453 58 q 276 -12 361 -12 m 276 64 q 353 92 329 64 q 383 170 378 119 q 389 285 389 221 l 389 518 q 383 633 389 583 q 353 710 378 682 q 276 739 329 739 q 200 710 224 739 q 171 633 176 682 q 165 518 165 583 l 165 285 q 171 170 165 221 q 200 92 176 119 q 276 64 224 64 m 339 -290 q 276 -284 306 -290 q 225 -265 247 -278 q 191 -229 203 -251 q 179 -176 179 -207 q 197 -104 179 -139 q 244 -41 215 -69 q 306 4 272 -12 l 360 4 q 310 -49 333 -21 q 273 -106 288 -76 q 258 -164 258 -135 q 290 -221 258 -206 q 363 -236 321 -236 q 379 -235 371 -236 q 394 -233 388 -235 l 379 -287 q 361 -290 372 -289 q 339 -290 350 -290 z "},"ø":{"ha":553,"x_min":63,"x_max":492,"o":"m 118 -106 l 83 -94 l 444 899 l 482 885 l 118 -106 m 276 -12 q 148 23 194 -12 q 82 126 101 58 q 63 290 63 193 l 63 513 q 82 677 63 610 q 148 780 101 744 q 276 815 194 815 q 407 780 361 815 q 472 677 453 744 q 492 513 492 610 l 492 290 q 472 126 492 193 q 407 23 453 58 q 276 -12 361 -12 m 276 64 q 353 92 329 64 q 383 170 378 119 q 389 285 389 221 l 389 518 q 383 633 389 583 q 353 710 378 682 q 276 739 329 739 q 200 710 224 739 q 171 633 176 682 q 165 518 165 583 l 165 285 q 171 170 165 221 q 200 92 176 119 q 276 64 224 64 z "},"ǿ":{"ha":553,"x_min":63,"x_max":492,"o":"m 118 -106 l 83 -94 l 444 899 l 482 885 l 118 -106 m 276 -12 q 148 23 194 -12 q 82 126 101 58 q 63 290 63 193 l 63 513 q 82 677 63 610 q 148 780 101 744 q 276 815 194 815 q 407 780 361 815 q 472 677 453 744 q 492 513 492 610 l 492 290 q 472 126 492 193 q 407 23 453 58 q 276 -12 361 -12 m 276 64 q 353 92 329 64 q 383 170 378 119 q 389 285 389 221 l 389 518 q 383 633 389 583 q 353 710 378 682 q 276 739 329 739 q 200 710 224 739 q 171 633 176 682 q 165 518 165 583 l 165 285 q 171 170 165 221 q 200 92 176 119 q 276 64 224 64 m 251 869 l 339 1142 l 440 1142 l 304 869 l 251 869 z "},"õ":{"ha":554,"x_min":63,"x_max":492,"o":"m 276 -12 q 148 23 194 -12 q 82 126 101 58 q 63 290 63 193 l 63 513 q 82 677 63 610 q 148 780 101 744 q 276 815 194 815 q 407 780 361 815 q 472 677 453 744 q 492 513 492 610 l 492 290 q 472 126 492 193 q 407 23 453 58 q 276 -12 361 -12 m 276 64 q 353 92 329 64 q 383 170 378 119 q 389 285 389 221 l 389 518 q 383 633 389 583 q 353 710 378 682 q 276 739 329 739 q 200 710 224 739 q 171 633 176 682 q 165 518 165 583 l 165 285 q 171 170 165 221 q 200 92 176 119 q 276 64 224 64 m 363 961 q 303 978 329 961 q 253 1011 276 994 q 206 1028 231 1028 q 172 1014 183 1028 q 160 972 160 1000 l 97 972 q 105 1024 97 996 q 133 1074 113 1053 q 193 1094 154 1094 q 253 1078 226 1094 q 303 1046 279 1063 q 351 1029 326 1029 q 386 1042 375 1029 q 397 1089 397 1056 l 458 1089 q 452 1034 458 1064 q 425 983 446 1004 q 363 961 404 961 z "},"ȭ":{"ha":554,"x_min":63,"x_max":492,"o":"m 276 -12 q 148 23 194 -12 q 82 126 101 58 q 63 290 63 193 l 63 513 q 82 677 63 610 q 148 780 101 744 q 276 815 194 815 q 407 780 361 815 q 472 677 453 744 q 492 513 492 610 l 492 290 q 472 126 492 193 q 407 23 453 58 q 276 -12 361 -12 m 276 64 q 353 92 329 64 q 383 170 378 119 q 389 285 389 221 l 389 518 q 383 633 389 583 q 353 710 378 682 q 276 739 329 739 q 200 710 224 739 q 171 633 176 682 q 165 518 165 583 l 165 285 q 171 170 165 221 q 200 92 176 119 q 276 64 224 64 m 363 961 q 303 978 329 961 q 253 1011 276 994 q 206 1028 231 1028 q 172 1014 183 1028 q 160 972 160 1000 l 97 972 q 105 1024 97 996 q 133 1074 113 1053 q 193 1094 154 1094 q 253 1078 226 1094 q 303 1046 279 1063 q 351 1029 326 1029 q 386 1042 375 1029 q 397 1089 397 1056 l 458 1089 q 452 1034 458 1064 q 425 983 446 1004 q 363 961 404 961 m 153 1292 l 153 1361 l 403 1361 l 403 1292 l 153 1292 z "},"œ":{"ha":901,"x_min":74,"x_max":831,"o":"m 288 -12 q 158 22 204 -12 q 92 124 111 57 q 74 288 74 192 l 74 515 q 92 678 74 611 q 157 780 111 744 q 285 815 203 815 q 363 801 329 815 q 419 763 397 788 q 453 703 440 738 q 494 769 468 744 q 553 804 519 793 q 628 815 588 815 q 751 781 707 815 q 813 674 796 746 q 831 489 831 601 l 831 415 l 503 415 l 503 326 q 513 185 503 243 q 551 99 524 128 q 625 71 578 71 q 703 104 676 71 q 729 215 729 138 l 729 274 l 831 274 l 831 217 q 785 47 831 107 q 632 -12 739 -12 q 521 16 568 -12 q 453 106 474 44 q 395 18 436 49 q 288 -12 354 -12 m 288 71 q 364 99 340 71 q 394 175 388 126 q 401 288 401 224 l 401 515 q 394 629 401 581 q 364 706 388 678 q 288 733 340 733 q 211 706 235 733 q 181 629 188 678 q 175 515 175 581 l 175 288 q 181 175 175 224 q 211 99 188 126 q 288 71 235 71 m 503 469 l 729 469 l 729 517 q 723 626 729 576 q 694 704 717 675 q 618 733 671 733 q 550 710 575 733 q 514 640 525 688 q 503 521 503 593 l 503 469 z "},"p":{"ha":579,"x_min":78,"x_max":515,"o":"m 78 -264 l 78 803 l 179 803 l 179 736 q 242 791 204 767 q 333 815 279 815 q 427 788 392 815 q 482 715 463 761 q 508 613 501 669 q 515 496 515 556 l 515 326 q 499 148 515 224 q 440 30 482 72 q 322 -12 397 -12 q 238 13 274 -12 q 179 64 203 38 l 179 -264 l 78 -264 m 307 68 q 376 97 353 68 q 406 184 399 126 q 414 324 414 242 l 414 496 q 406 627 414 574 q 375 708 399 681 q 304 736 351 736 q 233 715 265 736 q 179 674 200 694 l 179 126 q 234 85 201 103 q 307 68 267 68 z "},"ṗ":{"ha":579,"x_min":78,"x_max":515,"o":"m 78 -264 l 78 803 l 179 803 l 179 736 q 242 791 204 767 q 333 815 279 815 q 427 788 392 815 q 482 715 463 761 q 508 613 501 669 q 515 496 515 556 l 515 326 q 499 148 515 224 q 440 30 482 72 q 322 -12 397 -12 q 238 13 274 -12 q 179 64 203 38 l 179 -264 l 78 -264 m 307 68 q 376 97 353 68 q 406 184 399 126 q 414 324 414 242 l 414 496 q 406 627 414 574 q 375 708 399 681 q 304 736 351 736 q 233 715 265 736 q 179 674 200 694 l 179 126 q 234 85 201 103 q 307 68 267 68 m 236 936 l 236 1089 l 344 1089 l 344 936 l 236 936 z "},"þ":{"ha":578,"x_min":79,"x_max":517,"o":"m 79 -264 l 79 1125 l 181 1125 l 181 736 q 242 791 204 767 q 335 815 281 815 q 428 788 393 815 q 483 715 464 761 q 510 613 503 669 q 517 496 517 556 l 517 326 q 499 148 517 224 q 440 30 482 72 q 324 -12 397 -12 q 240 13 275 -12 q 181 64 204 38 l 181 -264 l 79 -264 m 307 68 q 376 97 353 68 q 406 184 399 126 q 414 324 414 242 l 414 496 q 406 627 414 574 q 376 708 399 681 q 306 736 353 736 q 233 715 265 736 q 181 674 201 694 l 181 126 q 235 85 203 103 q 307 68 268 68 z "},"q":{"ha":575,"x_min":65,"x_max":497,"o":"m 396 -264 l 396 57 q 338 9 372 31 q 258 -12 304 -12 q 110 65 156 -12 q 65 324 65 143 l 65 472 q 81 654 65 578 q 137 773 96 731 q 256 815 178 815 q 337 794 301 815 q 396 744 372 772 l 396 803 l 497 803 l 497 -264 l 396 -264 m 279 68 q 342 83 313 68 q 396 122 372 99 l 396 678 q 344 717 375 699 q 276 736 314 736 q 188 677 210 736 q 167 506 167 618 l 167 315 q 176 179 167 235 q 209 96 185 124 q 279 68 233 68 z "},"r":{"ha":413,"x_min":85,"x_max":390,"o":"m 85 0 l 85 803 l 188 803 l 188 693 q 276 784 226 757 q 372 811 326 811 q 381 811 376 811 q 390 810 385 811 l 390 701 q 367 708 381 706 q 340 710 353 710 q 255 688 293 710 q 188 617 217 665 l 188 0 l 85 0 z "},"ŕ":{"ha":413,"x_min":85,"x_max":400,"o":"m 85 0 l 85 803 l 188 803 l 188 693 q 276 784 226 757 q 372 811 326 811 q 381 811 376 811 q 390 810 385 811 l 390 701 q 367 708 381 706 q 340 710 353 710 q 255 688 293 710 q 188 617 217 665 l 188 0 l 85 0 m 210 869 l 297 1142 l 399 1142 l 263 869 l 210 869 z "}}}
